{"glyphs":{":":{"x_min":0,"x_max":245,"ha":245,"o":"m 164 246 l 173 239 q 180 235 180 222 q 180 219 177 215 q 174 210 173 207 q 156 173 133 173 q 125 173 110 186 q 95 200 90 210 q 86 221 83 224 q 81 227 81 229 q 81 234 85 240 q 89 247 91 257 q 93 266 101 271 q 110 275 114 280 q 118 284 124 284 q 128 284 132 281 q 136 277 144 273 q 151 269 158 257 z m 131 60 l 140 53 q 147 49 147 36 q 147 33 145 29 q 142 25 140 21 q 123 -13 100 -13 q 93 -13 77 0 q 62 14 57 24 q 53 35 51 38 q 48 41 48 43 q 48 48 52 54 q 56 61 58 71 q 60 80 69 84 q 77 89 81 94 q 85 98 91 98 q 95 98 99 94 q 103 91 110 87 q 117 84 125 72 z"},"$":{"x_min":0,"x_max":500,"ha":500,"o":"m -9 136 l -9 138 l 14 130 q 15 130 18 131 q 20 133 22 133 q 26 133 29 129 q 32 126 38 123 l 41 123 l 47 125 q 47 124 55 122 l 67 122 l 71 121 q 75 120 77 120 l 89 122 l 94 122 l 108 120 q 127 120 129 133 q 143 163 153 178 q 154 180 156 185 q 157 190 164 203 q 170 216 178 231 l 193 259 l 194 267 q 197 276 204 287 q 212 299 218 312 q 224 325 225 332 q 226 339 233 347 q 240 356 243 364 q 246 371 249 376 q 258 393 258 402 q 258 403 252 404 q 246 406 239 406 q 209 406 193 440 q 177 475 177 489 q 177 525 203 540 q 215 550 217 554 q 218 558 231 563 q 243 569 248 575 q 252 581 256 581 q 262 581 265 580 q 274 592 296 600 q 318 607 331 613 l 350 618 l 360 623 q 363 625 372 626 q 397 644 399 670 q 401 678 410 684 q 419 690 419 692 q 419 694 418 698 l 418 700 q 418 716 428 716 q 442 716 442 698 q 442 694 439 689 q 437 685 435 670 q 434 655 408 644 q 406 643 406 640 q 406 636 410 636 q 414 636 418 637 l 441 637 q 450 637 454 640 q 458 640 470 666 l 470 672 q 470 675 478 683 q 485 690 489 702 q 493 713 498 718 q 502 723 502 728 l 504 728 q 505 728 513 725 l 515 725 q 525 725 525 713 q 525 701 513 677 l 498 638 q 498 635 512 633 q 526 631 528 629 l 529 624 q 545 609 545 589 q 545 571 539 554 q 532 537 524 537 q 518 537 512 550 q 507 562 507 565 q 507 571 513 576 q 519 581 519 583 q 519 596 497 596 q 471 596 467 593 q 462 589 457 577 q 451 565 447 562 q 442 559 441 557 q 443 545 443 544 q 443 537 434 529 l 417 478 q 417 474 439 468 l 443 466 q 449 463 460 459 q 470 455 479 443 l 481 442 q 497 430 506 387 q 515 344 515 334 l 514 320 l 515 312 l 511 301 q 511 300 513 295 q 514 290 514 286 q 514 282 509 277 q 503 271 501 260 q 499 250 495 246 q 490 242 490 240 q 490 233 478 215 q 465 197 452 187 l 421 161 q 416 161 412 154 q 402 146 395 144 q 394 144 374 132 q 354 120 340 116 l 328 109 q 327 107 296 97 q 266 88 254 87 q 243 86 239 77 q 235 68 221 39 q 215 33 208 33 q 206 33 202 39 q 198 44 198 46 l 199 54 l 197 65 q 197 71 190 73 l 150 68 q 148 68 140 56 q 131 44 128 33 q 126 23 110 23 q 107 23 98 34 q 89 45 89 47 q 89 48 92 60 q 86 65 76 65 q 67 66 59 70 l 51 73 q 42 77 37 80 l 29 83 q 20 89 5 111 q -9 133 -9 136 z m 345 478 l 354 477 l 371 479 l 377 479 q 378 478 380 478 q 382 478 384 485 l 405 529 q 407 537 408 538 l 413 539 q 418 544 418 545 l 417 552 q 417 554 426 564 q 434 575 434 584 q 434 588 431 588 q 426 583 423 582 l 408 583 q 399 583 365 562 q 364 560 362 542 q 353 516 343 497 q 333 478 333 477 q 333 476 334 475 q 336 475 339 477 q 343 479 345 478 z m 280 527 l 257 513 q 230 497 228 488 q 227 485 226 484 q 224 483 224 478 q 224 466 260 466 q 262 466 267 467 q 271 468 280 468 q 289 468 295 479 l 301 486 q 306 491 309 502 q 312 514 322 522 q 331 531 331 541 q 331 549 328 549 l 327 548 q 308 544 280 527 z m 297 304 q 310 319 314 330 q 319 342 320 344 q 322 347 332 371 q 341 395 347 404 q 347 406 333 406 l 316 405 q 308 405 307 404 q 306 404 301 396 q 295 387 290 383 q 284 379 282 366 q 280 354 270 337 l 254 300 q 250 291 247 286 q 244 282 235 259 q 226 235 224 232 q 222 230 221 221 l 218 213 q 216 209 216 207 l 216 203 l 214 202 l 215 197 q 214 195 212 190 q 211 186 201 177 l 200 175 l 200 158 q 191 149 191 143 q 195 140 203 140 q 205 140 214 146 l 230 148 q 232 149 234 154 l 241 169 q 248 179 250 191 q 255 196 263 212 l 289 276 q 294 290 297 297 z m 318 182 l 325 189 q 330 190 335 190 q 347 190 380 213 q 412 236 421 247 q 424 251 428 255 q 432 258 437 269 q 443 272 448 279 l 454 282 q 474 307 482 363 l 482 365 q 482 384 450 393 q 418 402 411 402 l 404 400 l 380 401 q 377 401 376 395 q 375 389 358 357 q 341 325 336 308 l 327 277 l 320 263 l 303 214 q 302 212 299 210 q 296 209 290 194 l 278 171 q 277 170 277 168 q 277 165 280 165 q 281 165 295 172 l 302 174 q 314 178 318 182 z"},"?":{"x_min":0,"x_max":568,"ha":568,"o":"m 261 373 l 307 401 q 320 409 327 409 q 328 409 380 435 q 394 440 401 445 q 408 449 421 453 q 434 458 442 466 q 443 466 444 467 l 457 466 q 459 467 463 472 q 467 477 477 481 l 487 479 q 491 483 496 483 q 509 483 539 502 q 545 505 561 510 q 576 515 582 520 q 587 524 598 525 q 609 526 634 540 q 658 553 658 568 q 658 570 654 573 q 649 577 643 583 q 637 590 632 590 l 610 589 l 594 595 q 579 590 576 590 q 565 590 545 597 q 530 589 511 589 l 509 589 l 498 590 q 497 590 490 585 q 482 581 474 581 l 463 584 l 461 584 q 459 584 453 581 q 447 578 433 577 q 420 575 415 574 l 393 572 l 383 568 q 376 565 371 565 q 368 565 361 568 q 354 571 353 571 q 350 571 344 566 q 337 561 328 559 q 318 556 316 553 q 306 542 297 542 q 296 542 291 524 q 285 507 264 507 q 232 507 232 534 l 236 556 q 241 582 269 592 q 297 601 308 601 q 312 601 317 597 l 323 605 l 335 604 q 342 610 353 610 q 354 610 357 608 l 359 608 q 360 608 365 609 q 370 610 373 610 l 375 610 l 382 609 q 383 609 385 611 q 387 613 401 620 l 411 615 q 422 621 434 622 l 437 623 q 447 630 464 630 l 496 631 q 509 631 512 627 q 516 624 518 624 q 520 624 524 626 q 529 628 534 628 q 545 628 550 626 q 550 625 551 625 l 566 627 q 573 627 577 625 q 580 624 581 624 l 593 627 l 596 627 l 603 626 q 604 626 608 622 l 610 621 l 621 621 q 628 616 631 616 q 632 616 637 618 q 642 619 644 619 q 661 607 668 607 l 678 608 q 683 608 698 590 q 713 572 713 556 l 715 554 l 718 554 q 720 552 720 545 l 720 530 q 720 503 705 495 q 704 495 697 486 q 690 476 680 475 q 671 473 668 472 q 666 470 653 458 q 639 447 633 447 q 627 447 614 454 l 612 454 q 609 454 608 452 q 607 449 603 446 q 599 442 595 438 q 591 434 585 433 q 579 431 571 423 q 562 414 554 414 l 543 412 q 525 403 508 403 q 507 403 495 396 q 482 388 473 388 q 471 388 462 391 q 455 381 440 373 l 422 359 q 416 353 408 353 l 389 354 q 388 354 381 347 q 375 339 347 322 l 336 324 q 319 309 310 307 q 300 306 292 302 q 285 297 284 298 q 281 294 269 281 q 258 268 258 258 l 259 249 q 259 192 237 192 q 228 192 226 201 q 223 210 221 216 q 219 221 218 229 q 216 236 209 241 q 202 247 196 258 l 191 265 q 184 275 184 280 q 184 291 194 314 q 205 338 221 345 l 246 365 l 249 365 q 250 365 261 373 z m 258 155 l 267 148 q 272 144 273 141 l 286 117 q 290 112 290 107 q 290 105 287 101 q 283 97 280 86 q 276 74 263 65 l 256 59 q 255 57 253 57 q 252 56 248 52 q 244 48 243 48 q 224 48 219 51 q 213 55 209 62 q 205 69 201 73 q 197 76 197 80 q 197 83 193 92 q 190 100 190 102 q 190 110 196 115 q 201 119 203 123 q 204 127 214 137 q 223 147 228 154 q 232 160 247 160 q 251 160 258 155 z"},"<":{"x_min":0,"x_max":500,"ha":500,"o":"m 516 611 l 516 576 l 199 369 l 516 158 l 516 63 l 103 339 l 103 345 z"},"'":{"x_min":0,"x_max":299,"ha":299,"o":"m 279 454 l 277 454 l 273 452 q 269 452 257 464 l 252 466 q 245 469 238 482 q 230 495 230 506 q 230 509 233 514 q 236 519 238 533 q 240 547 253 551 q 258 552 258 555 q 258 556 257 558 l 257 559 q 257 561 266 575 q 275 588 281 612 q 288 636 304 636 q 312 636 328 615 q 344 593 344 582 q 344 567 335 555 q 326 542 310 518 q 295 494 293 485 l 290 467 q 281 458 279 454 z"},"=":{"x_min":0,"x_max":500,"ha":500,"o":"m 230 455 l 232 454 q 240 450 241 450 l 248 451 l 260 448 l 300 449 l 316 448 q 319 448 323 451 q 327 453 328 453 l 349 452 l 358 454 q 363 452 369 452 q 376 452 383 454 q 387 452 391 452 q 397 452 405 455 l 408 455 q 409 455 417 451 l 424 452 l 435 451 q 438 451 450 457 q 462 462 481 462 l 501 460 l 516 463 l 531 456 l 542 456 q 543 456 550 448 q 557 439 557 437 q 557 410 537 401 q 518 392 501 392 l 485 396 l 463 392 q 449 392 431 395 l 415 397 l 394 392 q 390 392 378 399 l 376 399 q 375 399 365 395 q 356 391 349 391 q 340 391 330 395 q 321 398 319 398 q 317 398 310 396 q 303 393 300 393 l 270 394 l 225 398 l 209 397 q 188 397 188 429 q 188 449 208 449 q 212 449 230 455 z m 167 317 l 169 317 l 176 318 l 188 314 l 228 316 l 244 315 q 246 315 250 317 q 255 320 256 320 l 277 319 l 286 320 l 297 319 l 311 320 q 328 320 333 321 l 336 321 l 363 318 l 372 321 q 396 329 409 329 l 429 327 l 444 330 l 459 323 l 470 323 q 471 323 478 314 q 485 306 485 304 q 485 277 465 268 q 446 259 429 259 l 413 263 l 391 258 q 386 257 373 259 l 343 264 l 322 259 q 318 259 306 266 l 304 266 q 303 266 294 262 q 284 258 277 258 q 268 258 259 261 q 249 265 248 265 q 247 265 239 262 q 231 259 228 259 l 208 261 l 178 260 l 157 264 l 153 264 l 138 263 q 116 263 116 295 q 116 300 119 307 q 123 313 143 317 l 158 321 z"},"a":{"x_min":0,"x_max":428,"ha":428,"o":"m 371 165 l 379 172 q 386 172 388 178 q 389 185 398 189 q 407 193 415 205 q 423 217 431 217 q 434 217 438 212 q 442 207 442 204 q 442 188 432 171 l 430 157 l 427 151 q 419 147 417 143 q 415 138 406 132 l 401 125 q 390 122 386 114 q 383 106 376 105 q 370 104 362 95 q 357 93 350 91 l 349 86 q 344 81 334 78 q 323 75 318 73 q 313 70 311 70 q 302 70 294 73 q 286 77 278 78 q 275 81 274 84 q 274 88 270 94 q 265 99 265 109 l 267 118 q 267 120 265 123 q 262 126 262 128 q 262 130 263 131 q 264 132 264 134 q 264 136 263 139 q 262 142 262 144 l 265 168 q 265 171 263 171 q 261 171 256 166 q 251 161 244 161 q 240 158 238 149 q 234 144 228 140 l 226 137 q 225 134 219 132 q 212 129 210 126 l 205 121 l 196 122 q 195 121 190 114 q 186 106 179 101 l 142 71 q 136 67 125 61 l 122 58 q 83 32 67 32 q 54 32 36 40 q 19 47 17 57 l 12 77 q 8 84 8 96 q 8 102 9 104 l 9 107 l 8 123 q 8 129 17 129 l 16 142 q 16 144 25 157 q 33 171 36 173 l 41 179 q 41 185 48 192 q 55 198 60 205 q 64 212 76 220 l 91 235 q 108 252 128 262 q 131 263 140 272 q 149 281 160 285 q 172 289 183 295 q 194 302 200 302 l 204 302 q 206 302 230 314 l 233 314 q 235 314 242 310 l 243 310 l 251 314 q 253 315 256 315 q 286 315 289 273 q 290 264 294 264 q 299 264 308 282 q 317 300 346 300 q 367 300 367 273 q 367 241 339 213 q 337 209 336 204 l 329 184 l 329 183 q 329 180 325 175 q 321 170 321 166 l 322 154 l 320 140 q 320 131 323 128 q 339 132 346 141 q 353 150 356 151 l 361 153 q 365 160 371 165 z m 209 165 q 211 176 221 181 q 231 187 233 193 q 242 200 260 217 q 277 235 277 239 q 277 240 275 240 l 274 240 l 270 238 l 261 239 l 252 238 l 245 241 l 239 240 l 229 242 q 221 242 216 239 q 210 236 194 232 q 178 228 166 219 q 153 209 147 209 q 144 202 124 188 q 112 184 109 171 q 96 161 96 159 l 93 151 q 89 147 83 145 q 77 143 76 135 q 75 127 70 120 q 64 114 64 110 q 64 86 73 86 q 77 86 90 91 q 102 96 104 98 q 106 100 112 102 l 121 107 q 123 109 125 109 q 128 110 130 113 q 133 115 139 118 q 146 122 149 127 q 157 132 176 142 l 186 150 q 197 155 199 158 q 202 162 209 165 z"},"L":{"x_min":0,"x_max":635,"ha":635,"o":"m 36 83 l 52 86 l 67 93 q 83 101 97 101 q 100 101 103 98 l 125 113 q 139 120 154 120 q 155 120 160 129 q 166 137 171 142 l 182 157 q 193 173 197 182 l 197 187 q 197 188 202 198 q 208 207 212 209 q 217 212 218 216 l 218 221 q 218 223 222 229 q 226 236 232 241 q 239 246 247 262 l 253 269 l 258 272 q 259 273 259 276 q 259 280 258 282 q 263 287 264 291 l 268 304 l 273 307 l 273 316 q 273 319 281 328 q 288 338 297 362 l 312 391 l 312 393 q 303 389 299 386 l 285 379 q 284 379 276 372 q 268 364 261 364 q 249 351 236 348 q 222 346 217 342 l 211 339 q 209 339 205 336 q 201 333 199 333 q 195 333 187 339 l 185 339 l 185 335 q 185 327 181 326 q 177 325 172 323 q 168 322 166 322 q 152 322 150 329 q 148 336 145 338 q 142 341 142 344 q 142 357 154 370 q 167 384 175 385 q 176 385 183 388 l 185 388 l 194 386 q 205 383 207 381 q 209 378 212 378 l 220 379 l 227 378 q 229 378 235 385 q 241 393 251 394 q 274 401 299 417 q 301 422 307 424 l 313 431 q 313 433 324 436 q 335 439 344 454 q 352 468 352 470 q 352 471 351 474 q 352 476 355 477 q 361 497 365 500 q 370 502 385 518 l 385 520 l 383 525 l 383 527 q 383 549 403 560 q 407 586 418 590 l 424 593 l 422 608 q 422 612 432 614 l 435 615 l 453 647 q 458 657 467 657 q 468 657 469 656 l 471 656 q 475 656 475 660 q 475 661 474 663 l 474 666 q 474 677 491 690 q 509 704 532 704 q 537 704 551 692 q 565 680 565 656 l 559 637 q 562 626 562 625 q 562 621 554 619 q 553 618 553 613 q 553 608 551 603 q 549 598 547 588 q 546 588 544 586 l 535 583 q 534 570 532 570 l 530 570 l 524 568 q 518 566 518 562 q 518 561 519 556 q 520 555 520 553 q 520 542 496 537 q 497 529 489 524 q 481 518 479 514 l 456 491 q 445 480 414 463 q 412 459 410 450 q 407 441 404 437 l 386 396 l 386 392 q 386 387 380 383 l 380 376 q 380 374 374 364 l 358 324 q 352 312 347 304 q 343 297 340 289 q 338 281 333 274 q 328 268 326 262 q 324 256 309 253 q 310 251 313 249 q 317 247 317 245 q 315 242 314 240 q 313 238 312 232 q 311 227 309 223 q 307 220 304 217 q 302 214 300 211 q 298 208 295 206 l 291 196 l 286 192 q 285 192 285 189 q 285 188 286 186 q 280 172 275 167 q 274 166 274 155 q 282 155 286 153 q 298 158 299 158 q 302 158 306 156 q 310 155 311 155 l 319 158 l 330 155 l 336 156 l 349 155 l 357 157 l 365 156 l 373 158 l 377 158 q 380 158 399 155 l 400 155 q 402 155 409 159 l 410 159 q 412 159 417 157 q 423 156 426 156 l 438 157 l 461 153 l 467 155 q 468 155 469 154 q 495 150 527 141 l 542 138 q 543 137 547 137 q 552 137 559 141 q 584 136 592 129 q 593 128 598 125 q 603 123 606 120 q 609 117 618 111 q 628 104 628 95 q 628 68 621 56 q 613 44 606 44 q 588 44 560 62 q 556 68 551 72 q 545 75 544 82 l 542 84 l 528 84 q 526 84 522 87 l 512 89 q 502 94 500 96 q 498 98 493 99 q 489 99 485 102 q 477 103 469 107 l 459 107 l 456 109 q 454 115 449 115 l 445 115 l 441 116 l 432 116 l 425 121 l 423 121 l 416 118 l 406 122 l 399 119 q 382 119 376 122 l 368 121 q 363 125 362 125 l 336 121 l 325 122 l 315 121 l 311 124 q 311 123 304 119 q 298 116 280 113 l 264 110 l 255 111 l 249 109 q 241 92 231 88 q 229 88 228 82 q 227 76 221 72 q 216 68 213 64 q 210 61 207 60 q 203 58 198 46 q 192 33 179 33 l 172 35 q 173 33 175 31 q 177 29 177 27 q 177 18 164 18 q 163 18 157 13 q 151 9 141 6 l 137 2 q 135 0 128 0 l 99 -11 l 98 -11 l 91 -10 q 90 -10 87 -11 l 77 -11 q 74 -11 67 -7 l 60 -11 q 59 -10 49 -7 q 36 -7 32 -3 q 28 1 26 1 l 21 3 q 16 5 10 5 q 3 6 -9 21 q -21 37 -21 45 q -21 50 -17 54 q -13 59 -4 62 q 4 66 15 71 z m 497 589 l 511 598 q 515 601 530 626 q 544 652 544 667 q 544 671 543 675 q 529 669 526 665 q 524 660 506 638 q 489 616 488 611 q 488 605 480 591 q 473 577 473 574 q 472 572 468 565 q 464 558 464 556 q 464 554 466 554 q 489 575 492 581 q 496 588 497 589 z m 29 55 l 11 47 q 5 45 5 42 q 6 41 7 39 q 15 37 21 33 q 26 30 32 30 l 46 27 l 59 28 l 63 26 q 65 27 75 34 q 75 35 76 35 l 88 34 q 91 36 95 40 q 100 43 107 46 q 112 54 122 62 q 124 68 126 71 l 129 81 q 106 79 102 78 l 66 67 q 33 57 29 55 z"},"3":{"x_min":0,"x_max":464,"ha":464,"o":"m 375 257 l 380 252 q 384 254 386 261 q 393 264 416 286 l 427 292 q 453 311 453 323 l 451 335 l 454 348 q 443 359 436 368 q 428 378 416 378 q 414 378 406 375 l 404 375 q 397 375 389 382 l 372 380 l 360 381 q 359 381 354 379 q 349 377 348 377 l 339 381 l 338 381 l 331 377 q 329 376 315 376 l 246 368 q 236 367 220 377 l 216 379 q 206 384 196 400 q 185 416 185 427 q 185 445 195 445 q 198 445 200 444 l 204 444 q 208 444 219 451 q 230 458 248 458 q 265 459 311 477 q 316 480 325 480 q 335 481 341 491 q 346 501 356 501 l 361 501 q 366 501 376 506 l 382 506 q 389 510 417 522 l 429 528 q 437 532 444 534 l 445 537 q 438 541 434 541 l 416 536 l 414 536 l 407 539 l 405 539 q 396 533 395 533 q 393 533 388 538 l 386 538 q 385 538 380 534 q 376 530 374 530 q 372 530 370 532 q 370 534 368 534 l 361 531 q 355 531 349 534 q 343 538 340 538 q 338 538 333 533 q 328 528 322 528 q 310 528 304 531 q 299 534 297 534 q 290 534 271 529 q 251 524 246 524 l 245 524 l 237 525 q 222 525 204 517 l 201 517 q 195 517 188 523 l 177 530 q 173 533 164 547 q 155 562 155 565 q 155 572 160 579 q 166 587 171 587 q 173 587 177 585 q 182 583 185 583 q 192 583 197 584 q 201 585 205 585 q 229 585 235 583 l 240 583 q 241 584 243 584 q 245 584 248 580 q 251 575 253 575 q 273 575 277 580 q 281 585 282 585 q 284 585 288 580 l 294 581 q 295 581 297 580 l 318 580 l 375 582 l 389 580 q 424 580 431 583 q 436 582 446 582 l 455 582 l 460 579 l 461 579 q 462 579 468 582 l 469 582 q 470 582 475 581 q 479 579 490 578 q 526 556 526 522 q 526 502 514 498 q 503 494 498 490 q 493 485 490 484 q 486 483 476 477 q 466 471 460 468 q 454 465 450 462 q 447 460 442 460 q 441 460 432 457 q 424 453 417 453 q 410 453 406 448 q 402 443 393 443 q 391 443 386 444 q 383 439 377 435 q 384 430 401 426 l 420 420 q 424 419 438 403 l 445 400 q 457 392 461 383 l 472 374 q 478 371 479 355 l 483 327 q 483 324 478 317 q 485 300 485 298 q 485 295 481 286 l 480 283 q 480 271 469 260 l 467 254 q 463 242 457 237 q 450 232 446 224 q 442 217 435 213 q 428 209 420 198 q 412 188 402 188 l 398 186 q 388 170 382 169 q 375 169 367 167 l 355 165 q 352 165 350 159 q 348 154 345 152 q 325 144 315 135 q 304 126 295 126 q 292 126 288 129 q 283 133 281 133 q 277 133 264 122 q 252 111 250 111 l 240 112 l 216 105 q 211 105 205 100 q 198 95 194 95 q 192 95 184 101 q 184 102 182 102 q 177 102 164 90 q 151 78 133 78 l 122 79 l 106 77 q 99 77 93 80 q 82 74 81 74 q 80 74 73 77 q 66 80 60 81 q 53 82 49 90 l 31 124 q 23 141 23 153 q 23 166 37 166 q 38 166 44 163 l 45 163 q 47 163 52 167 q 56 171 84 171 q 86 171 93 167 q 93 166 94 166 l 117 168 q 132 168 142 175 q 152 182 163 183 l 187 186 l 195 185 l 233 195 q 275 206 284 212 l 312 226 q 322 231 333 232 q 344 234 349 240 l 352 243 l 361 243 q 363 243 367 245 q 369 251 375 257 z"},";":{"x_min":0,"x_max":245,"ha":245,"o":"m 163 246 l 172 239 q 179 235 179 222 q 179 219 176 215 q 173 210 172 207 q 155 173 132 173 q 125 173 109 186 q 94 200 89 210 q 85 221 83 224 q 80 227 80 229 q 80 234 84 240 q 88 247 90 257 q 92 266 100 271 q 109 275 113 280 q 117 284 123 284 q 127 284 131 281 q 135 277 142 273 q 150 269 157 257 z m 52 54 l 55 60 q 57 64 59 65 q 60 67 66 79 q 72 92 88 94 q 93 99 102 99 q 114 99 130 77 q 146 55 146 49 q 146 41 135 31 q 135 15 125 4 q 116 -8 114 -13 q 111 -19 107 -22 q 107 -23 90 -45 q 73 -67 65 -67 l 44 -60 q 38 -59 38 -55 q 38 -42 52 -30 q 65 -17 67 -4 q 47 16 47 42 q 47 44 52 54 z"},"J":{"x_min":0,"x_max":478,"ha":478,"o":"m 51 -144 l 53 -134 q 50 -131 50 -126 q 50 -105 56 -99 q 63 -92 69 -77 q 74 -62 78 -59 q 82 -55 87 -39 q 93 -22 112 -5 q 115 20 134 25 l 152 53 q 154 56 159 57 q 164 59 171 65 q 174 76 190 84 l 204 98 l 212 102 q 215 104 227 116 q 239 127 251 135 q 263 142 274 148 q 285 155 287 160 q 289 165 294 176 q 300 187 304 199 l 314 212 q 315 213 315 214 q 315 215 313 219 l 313 220 q 313 231 323 242 q 332 254 332 268 q 332 272 339 282 q 346 293 350 295 l 348 307 q 351 315 355 320 q 359 324 363 342 q 368 354 373 354 q 377 354 379 349 q 382 344 383 344 q 384 345 384 346 q 384 352 379 354 q 374 356 374 360 q 374 372 377 378 q 381 384 381 388 q 382 392 385 395 q 388 398 389 401 q 389 405 390 409 l 390 414 q 390 419 396 427 q 403 436 404 438 q 405 440 406 441 l 410 442 l 411 445 q 404 446 404 453 q 404 461 415 465 q 412 471 412 475 q 412 488 425 488 l 428 488 l 429 490 q 425 495 425 499 q 425 516 433 516 q 434 516 436 515 l 439 514 l 439 517 q 433 522 433 527 l 437 538 l 436 546 q 436 551 441 553 q 447 556 447 558 l 448 563 q 449 565 449 575 q 452 578 453 581 l 453 584 l 452 594 q 452 595 455 600 q 457 604 457 606 q 457 640 439 654 q 433 655 429 658 q 428 658 427 659 l 410 659 l 395 652 l 386 653 q 380 646 379 646 l 372 647 q 370 647 366 642 q 363 636 357 634 q 352 631 346 624 q 340 617 334 615 q 328 612 324 609 q 321 605 309 597 q 304 584 290 579 q 288 577 286 568 q 273 557 265 544 l 226 486 q 224 483 223 475 q 221 466 219 464 l 211 455 l 211 453 l 212 448 q 201 438 201 436 q 201 432 202 429 l 202 424 q 202 423 196 401 l 191 380 q 189 376 189 368 l 184 338 q 184 337 188 332 q 191 327 191 325 l 190 313 l 191 295 l 188 284 q 192 279 198 265 l 202 259 l 203 259 l 202 246 q 211 240 216 228 q 220 216 230 213 q 240 210 247 195 q 254 179 254 167 q 254 152 247 152 q 229 152 226 156 q 223 160 214 176 l 201 208 l 187 234 q 182 241 181 248 q 179 255 175 259 q 171 263 171 265 l 172 273 l 170 283 q 170 288 167 294 q 164 300 164 308 q 163 317 159 322 q 156 327 156 336 q 156 340 153 348 q 154 353 154 367 l 151 382 l 151 384 l 150 390 l 150 392 q 150 430 159 461 q 160 464 160 472 l 170 506 l 177 522 q 186 543 194 553 q 201 562 203 568 q 205 574 216 579 q 225 596 227 598 l 233 599 q 240 614 254 616 q 254 628 277 638 q 285 643 290 649 q 294 655 304 655 l 357 675 q 358 676 365 669 l 366 669 q 369 669 370 672 q 370 676 374 677 q 377 679 380 683 l 382 683 l 389 681 q 409 681 418 684 l 426 684 l 430 685 q 467 685 476 670 l 506 644 l 511 628 l 514 595 l 514 584 l 510 576 q 511 573 511 572 l 504 510 l 495 481 q 484 446 478 443 q 471 441 471 440 q 475 435 475 431 l 473 425 l 473 417 l 466 394 q 463 381 453 375 q 451 375 451 373 l 455 368 l 455 366 q 455 364 453 357 q 451 350 451 345 q 450 341 446 339 q 441 337 440 334 l 440 321 q 440 315 431 308 q 422 301 422 299 l 423 287 q 420 282 417 271 q 414 260 410 256 q 406 253 405 247 q 405 241 397 231 q 390 220 390 217 q 390 214 392 214 q 397 214 402 221 q 407 229 423 236 l 439 249 q 443 253 451 256 q 459 259 471 272 q 484 286 498 290 l 512 300 q 518 303 522 303 q 532 303 532 293 q 532 289 529 281 q 526 274 525 267 q 524 261 512 253 l 506 247 l 496 248 q 492 246 488 238 q 483 230 479 230 q 475 230 470 227 l 464 225 l 459 225 q 457 224 454 217 q 450 210 444 208 l 411 191 l 408 191 q 398 181 395 179 l 386 179 q 364 163 361 159 q 361 143 351 137 l 350 137 l 351 126 q 351 124 343 116 q 342 116 342 113 l 343 105 l 343 104 q 343 102 335 91 q 327 79 325 74 q 326 72 326 69 q 326 61 315 56 q 315 52 301 24 q 286 -5 280 -13 l 230 -107 q 227 -110 222 -111 q 219 -119 211 -123 q 211 -138 199 -143 q 195 -155 187 -162 q 184 -181 177 -182 q 171 -184 169 -190 q 168 -197 158 -200 q 155 -217 143 -218 q 139 -222 137 -229 q 135 -236 124 -241 q 114 -246 107 -252 q 100 -259 91 -263 q 69 -262 55 -238 q 41 -214 41 -192 l 43 -176 l 42 -161 z m 92 -169 l 94 -175 l 95 -183 q 96 -186 97 -186 q 102 -186 109 -174 l 121 -161 q 129 -153 133 -138 q 137 -124 150 -122 q 152 -102 175 -74 q 177 -71 179 -63 q 182 -55 187 -49 q 191 -43 192 -38 q 193 -34 203 -22 q 205 -10 212 3 q 219 17 227 32 l 244 66 l 274 109 q 274 112 272 112 l 254 102 q 244 98 240 92 q 237 85 235 85 q 229 85 223 75 q 218 65 212 60 q 206 54 203 52 q 200 51 200 50 q 200 49 197 40 q 192 36 185 27 q 178 18 175 16 q 171 14 166 1 l 158 -4 q 154 -17 150 -24 l 143 -25 q 140 -31 139 -36 q 139 -42 137 -42 l 132 -44 q 130 -46 125 -57 l 121 -60 q 119 -62 119 -73 q 119 -78 115 -84 q 110 -90 106 -102 l 100 -118 q 100 -125 96 -134 l 91 -137 q 91 -141 88 -159 q 90 -164 92 -169 z"},"V":{"x_min":0,"x_max":560,"ha":560,"o":"m 179 445 l 192 456 q 206 468 210 468 q 212 473 227 486 q 233 487 239 495 q 245 504 252 505 q 259 507 267 516 q 275 525 290 531 l 295 535 q 306 544 311 544 l 418 590 q 422 592 438 583 q 454 574 454 554 q 454 524 441 519 q 442 517 442 514 q 442 508 427 485 q 413 461 409 456 q 405 451 403 443 l 398 434 q 398 429 392 420 l 382 403 q 368 384 366 370 q 366 369 360 362 l 352 349 q 348 328 341 324 q 334 321 334 318 q 334 307 328 297 l 306 237 q 303 230 295 213 l 292 200 l 282 182 l 282 168 l 279 162 q 277 159 275 148 q 273 136 270 129 q 266 122 266 118 l 266 112 l 267 104 q 267 102 265 97 q 266 92 266 85 q 266 82 268 79 l 270 82 q 275 83 280 89 q 285 95 290 98 q 294 100 297 109 q 300 118 306 120 q 324 138 326 144 l 354 190 l 371 213 q 371 224 388 237 q 396 249 399 256 q 402 262 405 262 q 410 262 412 259 q 414 256 415 256 q 419 256 419 261 q 419 268 413 272 q 412 272 412 274 q 412 286 423 300 q 433 314 437 323 q 441 333 456 352 q 471 370 475 379 q 478 387 484 387 l 486 387 q 495 396 502 396 q 504 396 505 390 q 511 394 511 396 q 511 401 505 402 q 498 404 498 408 q 498 411 517 434 q 536 456 538 456 q 540 456 543 453 l 546 455 l 546 463 q 546 465 553 472 q 553 480 560 483 q 566 486 566 487 l 564 494 l 565 494 q 571 498 573 500 l 585 499 q 589 499 591 506 q 583 508 583 512 q 583 516 591 522 q 598 528 598 534 q 598 539 621 558 q 628 566 635 574 q 641 583 661 594 q 663 606 667 608 l 679 607 l 685 611 l 684 621 q 705 635 711 638 q 718 641 722 646 q 745 661 753 661 l 763 659 q 771 662 777 662 q 782 662 785 661 q 788 659 795 657 q 803 656 808 643 q 814 631 814 623 l 815 607 q 815 593 802 578 q 790 562 782 562 l 776 563 q 767 559 757 557 q 746 555 736 547 l 733 545 l 727 545 l 726 543 l 726 540 q 724 538 719 533 q 715 527 705 520 q 696 512 687 502 q 678 492 666 486 q 654 479 650 468 l 648 466 l 643 466 q 634 455 626 446 q 619 436 614 432 q 608 428 607 426 q 607 424 600 417 l 595 407 q 588 404 578 391 q 569 378 567 376 l 563 371 l 555 366 q 547 358 544 354 q 544 345 534 342 q 529 337 526 325 q 523 312 520 312 l 511 313 q 510 312 506 305 l 503 301 q 500 298 497 291 q 495 283 486 280 q 480 265 479 265 l 474 261 q 472 255 472 254 q 463 244 458 239 q 452 233 453 232 q 451 229 448 227 q 445 224 443 218 q 441 211 435 210 l 432 203 l 432 197 q 430 195 413 173 l 396 144 l 358 93 q 346 93 346 77 l 335 63 q 330 58 329 52 q 328 47 319 47 q 304 29 283 29 q 278 29 275 28 l 260 38 q 253 42 250 45 q 248 48 247 48 q 237 52 227 82 q 216 111 216 131 q 216 134 221 157 l 221 158 q 221 159 219 163 q 217 166 217 169 q 217 173 220 176 q 224 178 224 181 q 224 195 229 200 q 232 209 232 214 l 230 221 q 230 225 234 233 q 241 236 241 240 l 240 254 q 240 263 251 264 q 250 269 250 272 q 250 277 252 281 q 255 286 255 293 q 256 300 260 303 q 263 306 265 315 q 267 325 277 339 q 287 353 289 360 q 291 367 292 367 q 303 367 303 371 q 303 375 297 379 l 296 382 q 296 392 311 405 q 311 419 320 419 l 317 427 q 317 433 326 449 q 335 465 340 485 l 345 492 q 349 497 349 499 l 348 505 q 353 517 353 518 q 353 523 349 526 q 334 524 326 512 l 324 510 l 315 510 q 307 510 295 493 l 281 482 q 258 465 245 454 q 231 443 227 436 l 219 424 q 217 420 212 399 q 207 378 185 378 q 153 378 153 411 q 153 423 179 445 z"},"\"":{"x_min":0,"x_max":424,"ha":424,"o":"m 279 454 l 277 454 l 273 452 q 269 452 257 464 l 252 466 q 245 469 238 482 q 230 495 230 506 q 230 509 233 514 q 236 519 238 533 q 240 547 253 551 q 258 552 258 555 q 258 556 257 558 l 257 559 q 257 561 266 575 q 275 588 281 612 q 288 636 304 636 q 312 636 328 615 q 344 593 344 582 q 344 567 335 555 q 326 542 310 518 q 295 494 293 485 l 290 467 q 281 458 279 454 z m 405 454 l 403 454 l 398 452 q 394 452 382 464 l 377 466 q 370 469 363 482 q 355 495 355 506 q 355 509 358 514 q 361 519 364 533 q 366 547 379 551 q 384 553 384 555 q 382 557 382 560 l 384 564 q 393 576 393 579 l 400 593 q 403 601 409 619 q 415 636 430 636 q 438 636 454 615 q 470 593 470 582 q 470 567 459 553 q 425 507 422 495 q 419 483 417 475 q 415 467 412 463 q 408 460 405 454 z"},"7":{"x_min":0,"x_max":419,"ha":419,"o":"m 223 556 l 215 556 l 203 554 q 167 554 164 562 l 160 566 q 157 567 152 583 q 146 599 146 605 q 146 642 177 642 q 189 642 238 622 l 257 625 l 268 623 l 311 626 q 317 627 323 631 l 327 629 l 335 629 l 352 630 q 381 630 386 640 q 402 637 405 637 l 419 638 l 500 631 q 501 631 505 633 l 506 633 l 510 631 l 517 630 q 538 621 548 606 q 558 591 557 582 q 556 573 558 559 l 558 554 q 558 526 536 516 q 528 512 526 509 q 524 505 516 500 q 509 496 505 492 q 502 488 491 480 q 485 472 479 465 q 474 458 459 455 l 436 430 l 424 430 l 419 425 q 415 410 412 410 q 409 410 402 406 q 395 403 387 392 q 380 382 379 382 q 373 382 359 368 q 346 354 337 343 q 328 332 317 321 q 305 309 302 303 q 300 297 295 292 l 285 291 q 284 290 276 271 l 274 269 q 266 268 264 266 l 242 227 l 232 213 q 226 207 216 184 q 206 160 200 151 q 187 146 187 122 l 190 103 q 191 101 191 97 q 191 83 182 83 q 181 83 157 105 q 134 126 134 149 q 134 150 135 155 q 136 159 136 162 q 136 189 142 195 q 148 200 153 212 l 153 223 q 153 229 200 289 l 206 301 q 210 310 219 313 q 227 317 231 325 q 236 334 246 344 l 268 368 q 281 383 293 397 l 299 400 q 303 402 314 413 q 324 425 329 429 q 334 433 339 438 q 344 443 348 446 q 351 449 356 454 q 361 458 368 461 q 375 465 384 479 q 386 487 416 502 l 428 514 q 441 525 454 531 q 466 537 474 547 q 481 557 491 564 q 502 572 502 574 q 502 578 493 581 q 484 583 479 586 l 473 585 l 466 586 l 461 586 q 450 586 444 582 q 438 578 434 578 q 431 578 425 582 q 419 586 415 586 q 413 586 404 582 q 395 578 394 578 q 384 585 382 585 q 381 585 370 581 q 359 577 348 577 q 341 577 334 574 q 328 572 318 572 q 313 572 303 568 q 294 565 289 565 q 281 565 274 566 l 269 566 q 259 566 241 561 z"},"S":{"x_min":0,"x_max":633,"ha":633,"o":"m 450 161 l 454 171 l 467 185 q 477 201 483 204 q 484 208 486 211 q 488 215 489 222 l 493 230 q 495 232 495 233 q 495 234 491 239 l 489 249 q 489 253 463 275 l 459 275 l 424 292 l 422 297 l 418 298 l 413 296 l 412 296 l 396 301 q 375 306 369 309 q 368 308 366 308 l 347 312 q 338 314 337 317 q 335 319 328 321 q 322 323 320 325 q 318 327 312 327 l 300 324 q 300 326 286 329 q 284 334 283 334 l 269 332 q 255 339 254 339 q 252 339 237 342 q 223 344 218 347 q 214 350 205 353 l 202 356 q 201 357 197 358 l 188 358 q 185 358 180 363 q 175 368 167 373 q 159 377 153 388 q 146 398 146 409 q 145 410 145 411 l 148 427 q 152 457 176 482 q 180 495 192 501 l 194 508 q 208 520 214 527 q 220 535 228 539 q 236 544 240 548 l 249 552 q 249 556 271 573 q 293 589 305 594 q 318 599 322 602 q 326 604 346 609 q 351 622 362 622 l 369 622 l 379 632 l 392 631 q 393 632 397 637 q 402 642 412 642 l 471 660 l 475 660 l 479 659 q 483 659 489 666 q 495 673 505 673 q 507 673 512 669 q 512 668 513 668 l 526 672 l 541 671 l 560 676 q 578 676 592 667 l 593 669 l 593 672 q 593 680 602 680 q 606 680 607 678 l 613 675 l 616 675 q 617 675 629 669 q 636 674 638 674 q 647 674 653 666 l 661 667 q 665 671 666 671 q 669 671 674 663 l 677 662 l 689 662 q 690 662 693 659 l 698 655 q 702 651 704 648 q 705 646 707 644 q 720 649 721 649 q 726 649 728 641 q 728 634 737 628 q 745 621 745 614 q 756 609 756 598 l 765 574 l 763 566 q 767 558 767 557 l 765 539 l 767 520 q 767 505 753 494 q 750 494 743 490 q 737 486 736 486 q 723 486 719 492 q 715 498 711 501 q 707 504 707 509 q 707 520 722 531 q 729 531 732 535 q 732 545 728 549 q 723 553 718 560 q 713 567 707 571 q 701 575 698 582 q 694 588 691 588 l 684 587 l 670 590 q 647 593 629 600 l 619 600 l 593 604 q 586 601 573 601 l 541 596 l 528 597 q 526 597 501 589 l 496 588 l 483 588 q 482 588 470 583 q 459 578 451 576 l 447 574 q 446 573 444 573 l 436 574 l 393 553 l 386 557 q 378 561 377 561 q 370 561 370 554 l 369 545 q 363 541 361 539 q 359 537 356 536 l 350 536 q 344 536 339 531 q 334 526 330 525 q 326 525 319 521 q 318 519 311 517 q 304 515 301 508 q 297 501 292 501 l 282 503 l 277 493 q 267 491 265 490 q 259 482 252 478 q 246 473 240 468 q 234 463 231 458 q 229 452 223 449 q 218 446 214 436 l 209 431 q 197 421 197 409 q 197 401 208 397 q 220 393 223 391 q 226 388 232 388 q 238 388 243 386 q 249 383 261 378 q 264 370 266 370 q 267 370 270 374 q 273 378 279 378 q 285 378 291 370 l 295 373 l 297 373 l 303 371 l 304 371 l 310 374 q 311 375 313 375 q 314 375 328 370 l 329 370 q 330 370 337 372 q 344 370 345 369 l 352 365 q 352 364 354 364 q 356 364 360 366 q 364 368 367 368 q 371 368 376 363 q 384 366 385 366 q 389 366 400 359 l 409 357 l 420 357 l 436 354 q 443 347 450 343 q 451 348 457 348 q 465 348 481 342 l 485 341 l 489 338 q 497 340 499 340 q 509 340 509 333 q 509 327 506 318 q 507 318 509 316 q 511 319 514 320 l 522 324 q 524 326 525 326 q 536 326 557 311 q 577 295 580 275 q 580 269 584 261 l 582 255 l 583 247 q 583 246 581 240 l 580 233 q 579 231 577 229 q 575 228 574 226 l 577 218 l 577 216 q 577 214 573 210 q 570 207 569 204 q 568 201 565 198 q 563 195 562 190 q 561 186 552 180 q 544 175 544 172 q 544 169 546 169 q 552 169 558 175 q 565 180 568 181 q 572 182 580 187 l 626 208 q 677 233 683 233 q 691 233 691 225 q 691 222 684 214 q 683 191 664 187 q 657 182 653 177 l 649 177 q 637 163 621 163 l 618 163 q 600 145 574 143 q 557 126 546 126 l 538 124 q 526 119 521 119 q 520 119 517 115 l 510 110 q 500 108 490 99 q 479 90 473 89 q 468 88 461 85 q 455 82 410 52 l 404 50 q 385 41 380 35 q 375 30 368 26 l 366 26 q 355 26 340 11 q 339 9 319 3 q 298 -2 280 -14 q 268 -17 251 -22 q 234 -27 226 -28 l 192 -35 q 181 -37 166 -41 q 157 -38 151 -38 l 142 -39 q 140 -39 136 -36 q 132 -32 125 -29 q 118 -26 118 -12 q 118 0 145 12 q 172 24 180 29 q 184 34 194 35 q 203 36 210 41 q 217 46 231 50 l 250 60 q 252 61 253 61 l 260 61 q 263 61 270 66 q 277 72 284 74 l 290 74 q 291 74 293 77 q 295 79 302 83 l 303 84 l 308 84 q 313 88 321 91 q 328 94 335 99 l 373 114 l 382 113 q 385 113 389 117 q 394 122 411 127 q 414 131 421 136 q 429 142 440 152 z m 280 39 l 273 40 q 266 36 260 36 q 253 35 239 27 q 225 18 207 10 q 189 2 189 0 q 213 3 239 13 l 274 23 q 281 25 283 27 q 286 29 294 32 l 302 38 q 304 39 312 42 q 321 45 321 48 q 321 50 319 50 q 301 50 291 44 q 281 39 280 39 z"},"}":{"x_min":0,"x_max":449,"ha":449,"o":"m 341 230 l 338 230 q 334 230 333 228 l 334 221 q 333 220 325 206 q 316 191 306 184 l 300 174 q 294 173 294 171 l 295 166 q 295 157 287 152 q 279 147 278 144 l 278 137 q 278 132 275 130 q 272 128 272 125 l 269 118 q 264 112 262 106 l 236 77 l 230 64 q 213 59 199 33 q 200 29 173 18 q 146 8 127 4 l 121 4 l 119 3 q 109 0 89 -3 q 69 -6 65 -7 q 62 -8 59 -8 q 45 -8 34 4 q 24 15 24 31 l 25 41 l 24 52 q 24 55 32 58 l 36 62 q 46 70 56 70 q 78 70 82 62 q 85 55 116 46 q 143 62 146 65 l 168 87 l 172 101 q 173 106 177 107 q 182 109 183 113 q 184 116 186 121 q 188 122 192 126 q 197 130 201 131 l 202 133 l 202 141 q 202 143 211 149 l 217 154 q 218 169 223 172 l 227 177 q 229 188 231 195 q 233 202 247 201 l 249 205 l 249 211 l 251 217 q 261 222 271 245 q 277 246 279 252 q 279 263 281 263 l 287 264 q 301 292 316 297 q 330 303 347 311 q 344 317 340 328 q 337 339 333 346 l 333 356 l 332 361 q 332 366 337 375 q 342 383 343 392 q 344 401 354 422 q 364 442 365 452 q 366 463 368 466 q 370 469 377 469 q 378 470 379 472 l 378 485 l 378 487 l 385 511 q 388 522 392 523 q 397 529 399 544 q 404 548 405 548 l 404 563 q 404 569 412 573 q 413 587 420 590 l 420 591 q 420 592 416 605 l 416 607 q 416 609 419 611 q 422 613 422 615 q 422 616 420 619 q 419 622 419 624 q 419 629 422 632 l 417 652 q 417 653 418 654 q 419 656 419 657 q 419 667 411 667 q 409 667 406 665 q 402 663 401 663 q 399 663 395 666 q 391 669 388 669 q 386 669 382 666 q 377 662 369 662 q 366 662 364 661 q 361 660 357 660 l 319 636 q 304 636 304 661 q 304 670 318 688 q 332 706 346 706 q 348 706 355 705 q 363 704 365 704 q 392 704 406 710 l 407 710 q 408 710 414 708 q 419 705 422 705 l 433 706 q 434 706 448 695 q 463 684 466 679 q 469 675 475 658 l 480 648 q 486 636 486 620 l 483 598 q 480 569 479 565 q 478 564 478 559 q 478 542 459 506 q 446 499 446 496 q 454 494 454 490 q 454 488 449 475 q 444 463 439 462 q 438 462 438 461 q 439 460 440 456 l 434 445 l 437 438 q 437 434 431 431 l 429 429 q 425 404 416 400 l 414 398 l 416 382 q 411 373 409 367 l 406 364 q 405 363 405 360 q 405 359 406 352 q 408 346 408 344 l 407 328 l 411 316 l 409 301 q 409 294 436 292 q 398 288 396 282 q 377 263 367 257 q 357 250 354 244 q 350 239 341 230 z"},"Z":{"x_min":0,"x_max":566,"ha":566,"o":"m 134 620 l 147 625 l 158 632 l 180 636 l 191 634 q 199 638 202 638 q 204 638 209 636 q 214 634 228 632 q 241 631 251 625 q 261 620 271 615 q 280 611 292 604 l 348 576 l 360 572 q 373 567 381 562 q 389 556 400 553 l 405 553 q 411 553 417 551 q 423 548 432 548 q 438 548 453 545 l 458 545 l 463 544 q 468 547 470 547 q 473 547 477 543 q 484 547 487 547 q 490 547 502 545 l 505 545 q 508 545 517 548 l 519 548 l 526 545 q 530 550 564 555 l 574 560 l 576 560 l 582 558 l 586 559 q 587 559 589 558 l 590 558 q 601 558 613 564 q 625 570 632 572 q 638 573 651 580 q 664 586 668 586 q 675 586 675 569 q 675 562 670 557 q 665 553 645 538 q 625 523 621 514 q 620 512 614 509 q 608 506 600 500 q 593 495 589 494 q 585 492 574 484 q 563 475 559 474 q 554 473 548 466 q 541 459 534 455 q 528 451 525 447 q 522 443 521 443 q 512 443 495 428 l 478 414 l 469 410 l 417 358 q 411 352 403 350 l 399 346 q 399 335 390 331 q 381 327 374 314 l 367 307 q 365 306 363 300 q 361 294 355 288 q 349 282 347 278 q 345 274 342 273 l 338 271 l 331 257 q 326 255 323 251 q 321 248 316 245 q 312 241 312 237 q 311 232 299 223 q 287 214 284 206 q 281 198 275 189 q 269 179 264 168 q 265 166 267 166 l 311 188 q 359 209 368 216 q 372 223 379 223 l 389 222 q 398 235 405 237 q 412 239 418 244 q 425 249 426 249 q 430 249 431 248 q 432 247 433 247 q 441 252 446 253 q 451 255 452 260 q 453 266 463 268 l 480 273 q 485 276 499 279 l 512 279 q 516 273 523 269 q 530 264 530 258 q 530 246 526 237 q 522 228 521 222 q 519 217 506 201 q 516 206 526 213 q 536 220 545 223 q 553 226 567 236 q 581 246 597 253 q 614 260 624 268 l 630 270 q 633 270 637 272 q 641 275 642 275 q 646 275 651 271 q 655 266 655 263 l 643 241 q 631 222 619 220 l 593 215 q 589 215 580 202 q 580 201 575 198 q 570 195 569 195 l 560 196 q 535 174 525 174 q 509 174 499 158 q 497 155 486 155 l 481 155 q 480 154 480 150 q 480 141 474 135 l 469 129 q 468 129 466 124 l 466 117 q 459 107 457 107 q 448 107 446 99 q 443 92 443 92 l 445 79 q 445 77 439 73 q 433 68 429 63 q 425 58 421 56 l 417 53 q 418 51 418 47 l 413 38 q 408 29 405 27 q 401 24 387 -6 q 383 -6 380 -8 q 376 -15 374 -31 q 372 -36 362 -44 q 362 -45 357 -57 q 348 -70 343 -87 q 333 -101 326 -102 q 325 -103 323 -112 q 320 -121 313 -132 l 303 -150 q 297 -158 295 -162 l 293 -163 l 288 -163 l 282 -166 l 283 -178 q 283 -181 274 -190 l 253 -224 l 229 -257 q 220 -270 214 -272 q 209 -274 205 -281 q 200 -287 198 -288 l 195 -288 q 188 -288 184 -292 q 179 -297 173 -298 q 167 -299 161 -301 q 142 -295 136 -286 l 132 -281 q 122 -269 122 -255 l 123 -243 l 122 -232 l 129 -198 l 127 -189 l 134 -166 q 141 -141 150 -124 q 158 -107 168 -97 l 171 -100 q 171 -101 172 -101 q 169 -85 169 -84 q 169 -82 172 -75 q 176 -69 176 -66 q 177 -64 179 -60 q 182 -56 184 -47 q 185 -37 202 -32 q 203 -31 206 -19 q 209 -13 217 -10 q 225 -6 226 -5 l 230 -5 q 233 -5 233 -3 q 229 3 229 7 q 229 12 240 21 q 250 30 254 40 q 259 51 272 54 l 274 55 q 281 72 294 76 q 311 88 327 100 q 343 113 354 118 q 366 124 375 134 q 383 143 397 150 q 415 158 419 162 q 423 166 424 178 q 434 189 434 193 q 434 196 431 196 q 429 196 421 190 l 339 159 l 333 156 q 327 153 314 153 q 313 151 301 144 q 288 137 284 134 q 281 130 276 129 q 272 128 267 125 q 262 121 260 121 q 245 121 242 118 l 232 108 q 227 103 219 103 q 212 102 204 98 l 191 95 q 187 94 182 89 q 181 90 178 90 q 176 90 167 85 q 157 80 149 80 l 138 83 q 132 76 130 76 q 127 76 121 82 q 109 88 103 91 q 96 94 96 100 q 96 114 127 146 q 129 151 144 168 l 167 196 q 176 206 185 210 q 194 214 194 222 q 194 230 198 234 q 203 239 210 248 q 217 257 221 260 q 226 264 229 270 q 232 275 242 281 l 246 287 q 249 290 256 294 q 268 308 289 325 q 310 343 314 347 l 401 417 l 516 497 q 551 516 551 518 q 551 519 550 520 l 543 517 l 534 519 q 503 508 468 508 l 459 509 l 454 509 l 439 506 l 432 510 l 430 510 q 425 510 409 508 l 407 508 l 395 511 l 383 509 q 380 509 373 516 q 370 515 366 515 q 363 515 357 518 q 351 516 350 516 q 348 516 336 523 q 325 520 323 520 q 319 520 311 527 q 306 527 278 539 q 250 551 231 552 q 225 558 223 558 q 213 558 198 555 l 196 555 q 195 556 193 556 q 192 556 189 553 q 187 551 177 550 q 168 549 156 537 q 154 534 151 532 q 149 531 146 526 q 128 517 128 495 q 128 487 137 476 q 147 465 154 463 q 161 461 165 458 q 168 455 171 454 q 174 453 187 446 q 192 448 194 448 q 200 448 204 444 q 208 440 209 440 q 210 440 211 441 l 218 443 l 229 442 q 232 441 235 441 l 243 442 q 244 443 245 443 l 259 439 q 263 437 266 437 q 279 437 300 441 l 335 447 q 349 450 356 457 q 363 464 376 468 q 386 488 411 488 q 436 488 436 474 q 436 460 417 448 q 398 436 386 436 q 374 435 356 429 q 338 424 334 424 l 332 424 l 323 425 l 308 420 q 306 420 298 421 l 296 421 q 292 421 283 418 q 275 415 251 415 l 240 417 l 228 416 q 226 416 223 419 q 220 422 219 422 q 217 422 211 421 l 209 421 q 206 421 200 426 q 194 430 193 430 l 173 432 l 170 432 l 160 439 l 139 439 q 136 445 123 449 q 111 453 107 462 q 103 471 99 479 q 94 486 94 491 l 89 506 l 91 517 l 87 527 q 88 529 89 534 q 90 535 90 538 q 90 541 87 549 l 87 550 q 87 552 90 556 q 93 561 97 573 q 101 585 105 592 q 110 599 121 606 q 131 613 134 620 z m 160 -197 l 161 -226 q 161 -229 157 -233 q 154 -238 154 -239 q 154 -245 157 -246 q 159 -246 166 -238 l 171 -236 q 172 -236 174 -233 l 177 -230 q 178 -230 181 -219 l 187 -216 q 189 -208 196 -200 q 214 -194 214 -191 l 211 -176 q 219 -176 241 -128 q 243 -125 250 -122 q 256 -119 260 -111 q 264 -104 272 -83 q 280 -63 286 -62 l 300 -46 q 302 -30 313 -22 q 325 -14 330 7 q 336 19 344 27 l 350 45 q 351 48 363 65 q 374 82 375 92 l 374 93 q 363 88 358 84 q 354 81 352 81 q 349 80 344 75 l 338 71 q 337 70 325 59 q 313 48 310 42 q 296 39 289 21 q 275 16 272 14 q 270 12 269 5 q 268 -2 256 -16 l 249 -25 l 240 -27 q 225 -50 220 -56 q 215 -63 215 -67 q 215 -73 209 -82 q 200 -88 199 -91 l 199 -93 q 199 -115 194 -119 q 189 -123 186 -130 l 184 -133 l 180 -147 l 181 -155 l 179 -157 l 178 -157 q 174 -157 174 -160 l 174 -162 q 175 -163 175 -164 q 175 -166 170 -170 q 165 -175 165 -178 q 165 -179 166 -181 q 167 -183 167 -184 q 167 -186 164 -191 q 160 -196 160 -197 z"},"x":{"x_min":0,"x_max":383,"ha":383,"o":"m 119 173 l 121 175 l 122 179 l 146 198 q 157 207 158 212 q 158 217 159 220 q 160 224 160 231 q 160 234 163 244 q 165 254 165 256 q 165 259 167 267 l 167 272 q 167 278 165 278 q 163 278 158 271 q 154 265 152 265 q 148 265 138 262 q 131 251 130 251 l 127 250 l 117 250 q 110 250 103 238 l 103 236 q 95 239 94 239 q 91 239 87 233 q 84 227 81 225 q 71 222 62 212 q 53 202 43 201 q 14 175 10 175 l 4 175 q -1 178 -1 193 q -1 199 5 209 q 12 220 22 225 l 25 227 q 28 241 39 244 l 49 248 l 58 261 q 68 261 75 272 q 83 274 89 283 q 95 292 123 300 q 126 303 132 310 l 142 313 q 150 325 161 326 q 173 327 182 332 q 191 336 197 336 q 238 336 238 304 l 235 292 l 236 285 l 234 257 q 234 254 236 254 q 239 254 257 266 q 267 270 271 274 q 276 279 279 280 q 283 280 308 297 l 312 298 q 316 301 320 307 l 345 325 q 363 338 371 338 q 386 338 386 314 q 386 305 380 303 q 374 302 365 297 q 356 293 345 290 l 335 286 q 332 280 318 273 l 311 268 q 307 263 299 260 q 291 258 289 255 q 287 253 281 251 q 276 249 274 246 q 271 243 260 236 q 249 229 247 228 q 244 227 240 223 q 237 219 235 219 q 227 219 227 216 q 227 207 216 166 l 216 161 q 210 151 210 150 l 212 142 l 205 113 l 205 111 q 205 109 207 103 q 208 97 208 94 q 209 90 210 90 l 217 89 q 220 89 223 92 q 226 94 232 97 q 239 99 250 109 q 278 128 291 130 l 295 135 q 295 138 304 143 q 311 137 312 137 q 318 157 329 165 q 340 172 345 176 q 375 203 387 203 q 395 203 395 189 l 395 187 q 395 163 382 154 q 375 154 367 143 q 353 130 342 124 q 331 117 325 111 q 319 105 314 104 q 310 104 303 97 l 290 94 q 278 69 236 52 q 228 34 220 33 q 213 32 207 27 l 205 27 q 204 27 201 28 q 192 25 188 25 q 179 25 159 38 q 140 51 139 66 q 137 68 136 77 q 135 78 135 81 q 135 98 148 139 q 149 140 149 142 q 149 143 148 145 l 147 149 q 147 152 145 155 q 140 155 134 147 l 127 140 q 125 140 122 138 l 106 129 q 104 127 97 117 q 90 107 89 107 l 80 110 q 77 110 77 99 q 77 94 72 90 q 67 85 63 79 q 40 38 15 38 q 10 38 3 48 q -4 57 -4 64 q -4 72 4 83 q 5 83 14 100 q 24 117 57 129 q 60 130 77 145 q 94 160 95 160 l 102 160 q 112 173 119 173 z"},")":{"x_min":0,"x_max":445,"ha":445,"o":"m 329 590 l 322 599 l 317 604 q 313 606 312 622 q 307 628 305 631 l 305 638 q 303 639 298 649 q 294 658 292 660 q 271 673 271 685 q 271 696 278 696 q 302 696 325 660 q 327 657 333 650 q 364 610 370 580 q 375 549 382 533 q 388 517 388 491 l 391 470 l 388 459 q 387 457 387 452 q 387 446 390 428 q 392 411 392 406 l 384 371 l 387 344 l 383 330 q 378 312 372 302 q 366 292 364 272 q 362 251 354 234 l 331 188 l 326 173 q 319 155 313 149 q 307 142 306 136 q 305 131 302 129 q 298 128 294 124 l 293 114 q 288 107 271 100 q 269 98 266 93 q 263 87 259 84 q 254 81 250 76 l 248 75 l 246 75 q 241 75 237 65 q 234 54 229 52 q 224 51 221 47 l 212 43 l 205 34 q 203 32 197 30 q 190 27 187 25 q 183 23 175 20 l 169 16 q 154 1 149 1 l 141 2 l 141 1 q 131 -4 125 -13 q 119 -21 105 -21 q 99 -21 99 -13 q 99 -4 116 8 l 143 34 q 152 46 159 52 q 167 59 183 76 q 198 92 198 96 q 198 106 209 115 q 220 123 220 124 l 221 133 q 229 140 241 161 l 246 165 q 247 166 259 200 l 275 228 l 276 240 q 288 278 298 293 q 308 309 308 313 q 308 318 309 325 q 309 332 323 361 l 320 384 q 331 390 331 391 q 331 393 330 396 q 328 400 328 403 q 328 406 333 432 l 340 466 l 340 468 q 340 469 337 482 l 337 484 q 337 486 339 499 l 335 542 q 334 551 328 562 q 322 572 322 576 q 322 583 329 590 z"},"&":{"x_min":0,"x_max":716,"ha":716,"o":"m 274 443 q 274 445 276 450 l 274 455 q 274 469 281 477 q 287 485 297 502 q 306 520 313 525 q 321 531 328 541 q 336 552 343 557 q 350 562 357 572 l 374 583 q 379 585 383 590 q 398 611 411 611 q 414 612 432 621 q 450 630 462 636 q 474 643 493 647 l 499 651 q 500 651 501 652 l 519 650 l 547 656 l 565 653 q 583 639 592 599 l 592 589 q 592 578 588 572 q 585 565 580 554 q 576 543 560 535 q 544 527 542 527 q 539 527 533 531 q 528 536 524 538 q 521 540 521 546 q 521 566 538 576 q 555 586 556 604 l 557 607 q 555 608 553 608 l 551 608 l 541 612 q 540 612 536 610 q 532 609 530 609 l 518 611 l 501 605 q 495 603 491 598 q 487 593 479 589 q 472 585 458 576 q 444 567 433 555 q 421 543 410 531 q 399 519 394 508 l 383 497 l 378 494 q 377 494 376 490 q 375 485 369 479 q 364 473 364 469 l 361 463 q 358 460 358 449 q 358 446 366 442 l 369 440 q 375 437 394 435 q 402 439 412 439 l 435 443 q 438 443 446 441 l 450 441 q 452 441 469 448 q 487 456 497 457 q 507 457 512 459 q 517 461 522 462 q 527 463 534 467 q 541 471 546 472 q 552 473 557 480 q 562 488 568 493 q 573 498 577 503 l 595 530 q 612 558 619 558 q 629 558 633 550 l 639 541 q 641 538 643 522 l 645 514 q 642 497 622 484 q 617 482 617 474 l 620 470 q 637 480 645 480 q 647 480 667 474 q 670 479 683 482 q 696 485 702 488 q 709 490 714 489 q 719 487 720 487 l 739 488 q 749 488 753 479 q 758 470 762 468 q 766 465 768 451 q 771 437 771 435 q 771 432 763 427 q 756 423 750 423 q 746 423 739 424 q 732 426 728 426 l 722 426 l 706 424 q 704 424 694 427 q 663 420 650 420 l 639 423 q 638 423 631 419 q 625 415 620 415 q 613 415 610 416 q 608 417 606 417 q 604 417 600 414 q 596 410 594 410 l 582 410 q 580 410 579 401 l 577 398 q 571 396 571 391 q 565 383 557 376 q 556 369 552 363 q 548 357 544 349 q 541 341 535 344 l 529 340 q 521 317 512 316 q 508 312 506 305 q 504 299 502 295 l 500 290 l 492 279 l 489 268 l 484 267 q 482 263 479 258 q 477 252 472 249 l 471 248 l 471 242 q 471 234 462 232 l 457 229 q 456 227 454 224 q 455 221 455 214 q 455 210 446 199 l 443 185 q 437 180 437 178 l 438 168 l 434 161 q 436 146 437 144 q 441 144 446 142 l 452 142 q 461 142 467 139 q 473 141 477 141 q 480 141 484 145 q 489 149 491 149 l 501 148 q 505 148 510 153 l 539 172 l 557 182 q 566 187 575 194 q 583 200 585 200 l 594 199 q 599 209 600 209 l 606 211 q 611 219 618 223 q 624 228 626 231 q 628 234 634 238 q 639 241 643 247 q 647 253 654 253 q 657 253 660 247 l 664 242 q 667 238 667 237 l 663 225 l 664 216 q 659 208 658 206 q 657 203 652 200 q 647 197 643 191 l 616 162 q 606 151 603 150 q 602 150 597 145 q 595 133 591 132 q 584 134 583 134 q 575 134 570 119 l 566 119 q 564 119 548 110 l 537 105 l 529 104 q 513 89 502 89 l 492 90 q 491 90 470 85 l 454 80 q 449 80 440 92 q 436 94 429 97 q 423 101 420 107 l 416 112 q 411 117 410 120 q 408 123 401 130 q 397 147 396 147 q 394 147 392 141 q 386 138 371 115 l 368 112 l 361 111 q 360 111 353 101 q 346 91 338 87 q 330 84 327 81 q 323 77 317 75 q 310 73 305 69 q 300 65 294 61 l 286 62 q 283 62 277 56 q 270 51 266 51 l 254 55 q 243 49 237 44 l 235 44 l 229 45 l 227 45 l 219 43 l 216 43 q 212 43 207 46 q 202 50 199 50 q 196 50 189 46 q 183 42 178 42 q 172 42 163 48 l 127 64 q 123 66 114 67 q 91 75 77 103 q 63 130 63 142 q 63 185 74 211 q 85 238 93 240 q 109 269 121 273 l 126 279 l 134 284 l 152 300 l 155 304 q 159 304 171 316 q 176 318 179 319 l 187 327 q 192 336 221 346 l 248 362 l 253 361 q 261 366 265 367 q 268 368 277 374 q 286 380 300 383 q 314 386 314 393 q 313 394 306 398 q 275 418 274 437 z m 219 109 l 230 113 q 233 114 238 114 l 240 114 l 243 113 q 259 113 276 128 q 277 129 280 130 q 283 131 285 132 q 287 134 292 135 q 298 137 300 139 q 302 141 306 141 q 312 141 320 151 l 326 151 q 331 151 336 158 q 341 165 347 167 l 349 168 l 355 179 q 360 182 366 185 l 372 186 q 375 195 386 205 q 397 214 407 244 q 409 249 414 253 q 418 258 425 275 q 432 292 435 298 l 447 296 q 450 299 450 302 q 450 304 447 306 q 444 308 444 309 q 444 323 454 330 q 456 338 463 340 q 462 341 462 343 q 462 344 464 347 q 467 350 469 354 q 472 358 475 360 q 477 362 482 373 q 487 383 492 386 q 498 390 498 392 q 498 396 494 396 q 493 396 490 395 q 488 394 475 393 q 462 392 457 389 q 451 386 445 386 q 439 386 429 381 l 418 377 l 406 378 l 395 375 l 389 377 q 376 372 364 369 q 352 366 347 362 q 342 358 330 354 q 318 350 319 344 q 318 342 306 338 l 304 337 l 303 332 q 300 330 297 329 l 291 325 l 286 324 q 282 317 267 314 q 258 308 254 303 q 251 299 247 296 l 244 291 l 235 287 q 229 274 224 274 l 217 274 q 209 268 199 255 q 189 241 179 232 q 170 223 166 205 l 159 202 q 152 191 152 186 q 152 180 149 166 l 149 165 l 150 160 l 149 137 q 149 127 158 124 q 167 120 172 117 q 177 114 186 112 l 191 109 l 193 109 l 203 110 l 211 107 q 213 107 219 109 z"},"_":{"x_min":0,"x_max":500,"ha":500,"o":"m 24 -88 l 476 -88 l 476 -128 l 24 -128 z"},"v":{"x_min":0,"x_max":364,"ha":364,"o":"m 43 249 l 45 253 q 61 253 66 266 l 68 268 q 85 274 93 281 q 101 289 120 295 q 140 302 141 302 q 144 302 159 293 q 174 284 174 260 q 174 242 164 227 l 164 212 l 163 208 q 155 202 155 195 l 155 191 l 156 177 l 142 147 q 134 143 134 140 q 134 138 138 135 q 142 133 142 128 q 142 123 139 108 q 140 107 141 107 l 143 107 q 145 111 151 113 l 156 116 q 157 122 159 124 l 165 124 q 169 124 169 132 q 169 135 190 157 q 212 179 217 186 q 221 192 227 196 q 232 200 233 205 q 234 209 239 213 q 243 217 246 221 q 249 225 254 229 q 260 232 265 240 q 271 249 289 264 q 292 266 296 272 q 300 279 310 285 q 321 292 330 302 q 340 311 363 311 q 376 311 388 299 q 401 286 401 273 q 401 266 398 262 q 396 259 390 250 q 385 241 380 241 l 371 244 q 362 235 352 235 l 343 237 q 334 231 329 230 q 323 230 320 225 q 316 219 312 219 q 307 218 302 214 l 294 210 q 289 198 273 192 q 267 186 262 178 q 262 177 258 174 q 253 172 248 166 q 243 159 240 159 l 236 159 q 232 155 230 146 q 228 136 214 133 q 212 132 208 126 q 204 120 197 116 q 194 105 184 98 l 178 88 q 176 83 169 78 q 162 74 161 73 q 161 72 155 60 q 149 48 142 44 q 135 41 128 33 q 121 26 116 26 q 99 26 80 54 q 60 82 60 89 q 60 116 68 132 q 75 147 77 161 q 78 175 82 185 l 85 200 l 89 207 q 92 211 95 220 l 97 228 q 97 237 92 237 q 85 237 80 228 l 78 226 q 66 229 65 229 q 62 229 59 214 q 57 209 49 208 q 42 206 32 192 l 30 190 q 25 189 24 188 q 17 177 14 177 q 11 177 8 182 q 5 188 0 191 q -5 194 -5 198 q -5 209 17 227 q 22 231 23 234 q 24 238 36 239 q 38 240 43 249 z"},"O":{"x_min":0,"x_max":555,"ha":555,"o":"m 121 260 l 124 262 l 127 262 q 130 265 130 266 q 130 268 128 270 q 127 272 127 274 q 127 284 136 288 q 135 292 135 300 q 135 304 139 309 q 143 313 146 325 q 150 338 161 340 l 161 342 l 159 347 q 159 350 163 356 l 163 361 q 163 367 169 369 q 176 370 176 372 q 176 378 184 386 l 182 394 q 182 398 191 405 q 207 421 207 429 l 207 434 q 207 438 221 450 q 221 451 222 451 l 229 450 q 231 457 232 465 q 233 472 251 488 l 252 491 q 259 500 260 501 l 264 502 q 270 512 272 517 q 274 522 277 522 q 280 523 282 526 q 285 529 290 530 q 296 538 302 547 q 308 556 318 562 q 320 580 328 580 l 335 579 q 339 590 361 607 l 379 620 l 382 620 q 384 621 389 628 l 396 633 q 397 642 405 642 l 409 642 q 419 657 443 662 q 446 661 450 660 q 455 659 458 653 l 463 644 q 465 637 467 637 l 473 643 q 503 648 527 665 q 535 663 538 663 q 540 663 543 661 l 545 661 q 546 661 552 665 q 558 668 559 668 l 575 667 l 590 664 l 610 665 q 620 665 636 653 q 642 642 648 640 q 654 638 665 613 q 676 588 676 580 l 676 572 l 674 556 l 675 545 q 675 537 671 532 q 667 528 667 518 q 667 503 655 478 q 643 453 643 445 q 631 414 625 414 l 614 386 q 610 376 605 373 q 600 370 596 367 l 597 353 q 597 348 584 338 q 580 329 576 321 q 572 312 565 307 q 548 285 542 271 q 540 269 533 264 q 521 249 513 237 q 506 225 498 219 l 491 212 q 487 207 480 205 q 481 203 481 200 q 481 190 470 183 q 459 177 456 173 l 435 153 q 432 151 427 144 q 423 137 418 133 l 411 122 q 378 100 377 100 q 375 99 371 90 l 362 87 q 354 71 340 68 l 335 66 q 334 64 331 62 q 327 61 324 59 q 322 58 311 54 l 300 51 l 295 52 q 293 41 283 41 l 278 41 q 276 40 269 37 l 267 36 q 264 29 263 29 l 248 30 q 240 26 238 26 q 237 26 233 27 l 228 22 q 221 26 220 26 l 217 25 q 205 22 199 22 l 193 24 q 179 31 177 31 l 158 30 q 157 30 152 36 q 146 42 136 49 q 125 56 115 78 q 105 101 105 107 l 102 135 l 103 143 l 100 170 q 100 182 110 196 q 109 203 109 207 l 109 214 l 110 225 q 110 232 117 239 l 116 251 q 119 254 121 260 z m 360 156 l 361 158 l 361 164 q 361 172 373 174 q 379 180 384 190 q 389 199 392 199 l 397 199 q 400 199 400 201 l 399 209 q 402 214 411 224 q 421 234 430 245 q 439 255 446 266 q 453 277 459 284 q 466 292 469 297 q 472 302 482 307 l 484 309 l 484 319 q 484 320 495 337 q 512 350 514 359 q 515 368 521 376 q 527 384 529 390 q 537 395 537 397 l 541 404 q 545 412 547 418 l 555 426 q 562 435 563 445 q 565 454 571 457 q 576 459 576 461 q 576 462 574 467 l 574 469 q 574 474 580 480 q 592 504 594 510 q 595 517 601 526 l 599 539 q 599 542 605 549 q 601 563 601 564 q 601 567 606 578 l 605 588 l 607 594 q 607 602 598 611 q 598 626 571 626 l 562 625 l 543 628 q 510 614 499 614 q 493 614 486 606 q 479 598 478 598 l 473 600 l 471 600 q 468 600 467 592 q 466 584 458 580 q 450 576 434 561 q 417 546 412 537 q 407 529 400 523 q 393 518 390 506 q 387 494 381 485 l 374 474 l 374 467 q 374 464 367 460 l 369 454 l 368 448 l 369 440 l 367 428 l 372 406 q 372 368 344 368 q 333 368 328 372 q 322 376 319 394 q 316 412 316 416 q 316 417 320 432 q 324 447 327 451 q 330 455 330 458 q 330 459 329 460 q 340 468 343 478 q 345 489 352 500 q 368 519 388 558 q 394 564 408 575 q 409 580 416 587 l 423 596 l 434 606 q 442 611 446 616 q 431 614 421 606 l 405 594 q 398 587 394 586 q 389 584 385 577 q 380 570 375 565 q 369 560 363 552 q 357 544 353 542 q 345 540 343 528 q 340 523 334 516 l 331 508 q 329 505 325 501 q 321 497 316 490 q 304 483 303 483 q 304 480 304 476 q 304 474 295 460 q 286 446 282 435 q 279 425 274 422 q 269 419 264 404 q 259 388 247 373 q 236 357 234 353 q 233 349 223 336 q 217 323 216 316 l 208 308 l 197 271 q 197 270 192 265 q 189 250 184 246 q 184 242 182 238 l 178 224 l 170 215 l 170 213 l 172 208 l 172 206 q 172 202 167 193 q 161 183 161 168 q 160 154 157 148 q 155 143 154 137 q 154 131 153 128 l 155 120 l 153 105 q 153 104 155 100 q 157 96 157 95 l 155 89 q 154 88 154 87 q 154 70 170 63 q 187 57 197 57 q 205 57 226 64 q 246 72 252 78 q 259 85 266 88 q 274 91 280 95 q 291 109 296 110 q 302 111 313 122 l 319 125 q 324 135 325 135 l 332 139 q 339 152 342 152 l 349 151 q 350 151 351 152 q 352 153 360 156 z"},"(":{"x_min":0,"x_max":445,"ha":445,"o":"m 261 427 l 265 437 q 276 464 290 478 q 289 490 312 513 q 324 536 326 542 q 329 543 337 544 q 342 550 352 558 q 355 574 368 581 q 381 588 384 593 l 417 628 l 466 666 l 472 669 l 478 675 l 482 677 l 491 685 l 493 685 q 498 685 509 696 q 521 707 534 707 q 546 707 546 694 q 546 683 528 681 q 526 681 524 679 l 524 669 q 524 660 506 659 q 504 658 498 652 q 492 645 483 642 q 474 639 467 628 l 460 616 q 455 608 454 608 l 444 604 q 443 602 438 594 q 433 587 431 582 q 429 581 418 576 l 406 552 q 400 541 391 529 q 381 516 375 502 q 363 484 353 474 q 344 469 344 459 q 336 446 335 439 q 320 406 316 397 q 312 388 306 371 l 298 355 l 291 335 q 290 332 287 328 l 276 313 l 275 308 l 279 295 l 279 293 l 271 277 l 268 243 l 269 232 l 264 207 l 265 193 l 264 183 l 266 160 l 262 146 q 262 143 265 134 q 267 124 268 111 q 269 98 276 90 l 273 75 q 276 65 301 31 q 326 -3 326 -10 q 326 -18 317 -18 q 293 -18 277 12 q 275 15 269 21 q 263 28 260 35 q 257 42 249 48 q 235 65 230 83 l 224 91 q 211 104 211 116 l 217 121 q 218 121 218 123 q 218 128 215 134 q 211 140 207 159 q 203 177 203 178 l 204 192 l 203 207 l 204 213 q 204 215 201 225 l 201 228 q 201 230 203 239 q 205 247 205 252 q 205 259 210 271 l 210 275 l 213 285 l 213 286 l 211 301 l 220 337 q 221 341 229 347 q 236 354 236 370 l 242 382 q 245 388 245 390 l 243 403 z"},"C":{"x_min":0,"x_max":541,"ha":541,"o":"m 141 303 l 147 309 l 147 313 q 147 315 152 325 q 157 335 161 338 q 165 342 167 346 q 169 351 176 352 q 173 357 173 360 l 171 369 q 171 370 174 373 l 177 377 q 179 379 183 382 q 187 385 188 390 q 188 395 195 404 q 201 413 205 413 q 208 413 210 415 q 213 417 215 417 q 218 417 220 413 q 222 408 223 408 q 227 408 227 413 q 227 416 222 417 q 218 418 216 422 q 215 426 213 428 q 212 431 212 432 q 212 436 217 441 q 221 446 225 446 q 229 446 233 450 q 227 453 227 457 q 233 463 239 474 q 244 486 251 486 q 252 486 256 484 q 257 486 261 497 l 258 507 q 267 520 271 522 l 275 525 q 278 539 298 548 q 324 575 329 575 q 330 575 333 572 l 338 573 q 341 573 341 570 q 325 555 325 554 l 326 554 q 327 555 329 557 q 332 559 337 564 q 337 562 339 562 q 344 569 344 576 q 344 577 339 580 l 338 583 q 338 586 355 601 q 373 616 393 628 l 398 634 q 400 636 403 636 q 407 636 415 631 l 417 632 q 416 634 416 639 q 416 642 420 643 q 425 650 441 656 q 457 661 463 666 l 473 670 q 481 671 487 673 q 492 675 500 675 q 501 675 508 678 q 514 681 517 681 q 520 681 528 675 q 528 674 530 674 l 536 678 l 537 678 q 544 672 552 666 q 572 651 572 629 l 570 609 l 571 592 q 571 583 563 577 q 560 555 554 546 q 549 536 546 520 q 542 503 517 473 q 517 472 511 465 q 505 457 496 438 q 482 423 479 415 q 475 406 465 402 l 463 402 l 465 391 q 446 361 428 361 q 417 361 406 371 q 395 381 395 391 q 395 415 451 449 q 452 449 455 448 l 459 455 q 457 459 457 460 q 457 467 472 476 q 479 490 487 491 l 506 521 l 508 526 l 508 533 q 508 535 518 542 l 519 544 l 519 554 q 519 560 527 564 q 529 566 531 580 q 533 593 539 604 q 537 627 533 632 q 530 637 522 637 q 515 637 499 629 q 483 620 478 620 q 476 620 474 622 q 472 623 470 623 q 468 623 465 618 q 463 613 459 612 q 456 611 451 606 q 446 602 437 598 l 429 588 l 421 582 q 419 572 408 572 q 406 572 400 560 l 396 556 l 388 556 l 387 552 l 387 547 q 387 544 384 542 l 365 522 l 362 520 l 358 520 l 356 519 q 354 501 346 501 q 346 495 332 484 l 328 479 l 322 479 l 321 478 q 324 475 324 474 q 324 471 319 463 q 313 455 310 456 q 308 442 301 432 l 297 425 q 294 420 291 417 l 291 413 q 291 400 267 390 l 270 378 q 268 374 262 366 l 258 357 q 255 348 251 346 q 250 342 246 338 q 243 335 243 333 l 244 326 q 237 313 235 307 q 234 302 230 297 q 227 292 225 286 q 223 280 216 273 q 210 252 210 250 l 203 244 q 203 243 200 237 l 199 233 l 199 226 q 199 220 187 211 q 193 209 193 203 q 193 192 188 186 q 184 180 182 174 q 180 168 175 158 q 180 155 180 150 l 176 117 l 179 108 q 178 107 173 105 q 174 99 179 95 q 184 91 194 71 q 196 69 202 69 q 208 69 211 70 q 214 71 224 72 q 234 73 245 81 l 253 81 q 265 81 269 90 q 274 98 279 98 q 283 98 293 102 l 296 102 q 298 106 300 107 q 302 109 308 116 q 314 124 319 124 q 336 135 345 144 q 346 145 351 146 q 355 146 357 150 q 360 155 379 171 q 399 187 403 197 q 407 206 412 206 q 414 206 419 205 l 420 205 q 422 205 423 209 q 424 214 443 225 q 443 235 458 242 l 475 259 l 483 258 q 486 260 486 267 q 487 273 494 276 l 498 276 l 501 278 q 504 294 512 294 l 516 294 q 520 294 520 303 q 520 312 541 317 l 551 322 q 552 323 555 323 q 568 323 568 303 q 568 298 564 295 l 557 289 l 556 281 l 539 265 q 534 261 534 256 q 533 250 531 250 q 529 248 525 246 q 520 244 519 241 q 512 225 497 221 q 489 202 481 198 q 474 195 473 191 q 471 178 460 179 q 442 162 437 152 q 437 151 436 151 l 429 152 q 428 151 424 146 q 420 141 413 141 q 406 140 403 132 q 400 124 397 122 q 395 120 392 115 q 389 111 386 111 q 382 111 380 119 q 376 117 372 112 l 375 105 q 375 103 373 102 q 371 100 366 92 q 361 84 342 81 q 341 81 338 74 q 335 68 324 67 q 314 52 307 52 l 286 45 q 281 45 277 46 q 274 39 270 39 l 263 37 q 260 32 255 32 q 248 32 248 36 q 248 37 249 39 l 249 41 q 249 44 247 44 q 247 23 236 23 q 234 23 225 27 l 224 27 l 215 22 q 214 21 211 21 q 193 21 175 32 l 170 32 q 155 32 147 50 l 146 52 q 134 55 133 67 q 131 70 123 77 q 122 84 119 90 q 115 95 115 96 l 104 133 q 102 149 102 159 l 101 163 l 101 166 l 103 179 l 102 184 q 102 188 111 213 q 120 238 123 250 q 125 262 127 265 z"},"W":{"x_min":0,"x_max":789,"ha":789,"o":"m 204 499 l 213 502 q 232 508 250 526 q 252 530 264 531 q 271 538 275 540 q 280 541 290 547 q 301 553 320 558 l 330 563 q 334 566 346 567 l 360 571 q 378 574 397 574 q 398 574 411 571 q 424 568 427 564 q 430 561 442 553 q 453 546 453 515 q 453 499 448 484 q 446 484 440 479 q 434 473 432 464 q 430 454 426 452 q 422 450 418 440 q 415 430 401 405 l 374 359 l 373 355 q 371 343 359 323 l 354 313 l 352 312 q 348 296 344 294 l 341 289 q 337 271 332 266 q 330 265 329 258 l 323 245 q 320 241 319 237 q 319 233 317 231 q 315 230 312 222 q 310 215 307 208 q 303 202 303 201 l 305 194 l 305 190 q 305 189 304 184 q 303 183 301 182 q 299 181 297 178 q 296 176 293 174 l 294 165 l 293 157 l 293 155 l 304 158 q 305 162 329 178 q 333 183 336 192 q 346 198 351 203 q 356 208 363 211 q 369 215 372 221 q 375 228 396 249 l 401 257 q 401 262 415 272 l 420 280 q 421 282 429 285 q 432 294 441 303 q 450 312 458 325 q 465 338 476 339 l 481 348 q 480 354 488 364 q 496 373 501 381 q 506 388 513 394 l 516 401 q 518 410 527 415 q 535 419 535 420 l 533 426 q 533 427 537 433 q 540 440 542 448 q 545 456 550 458 q 560 473 563 475 q 567 477 574 481 l 574 488 l 578 501 l 577 508 q 577 512 585 514 q 586 514 590 522 q 594 531 597 535 l 598 541 q 606 552 615 554 l 624 561 q 629 565 634 565 q 637 565 642 563 q 646 561 659 560 q 673 559 673 530 q 673 521 668 513 q 664 506 664 501 q 663 496 651 478 l 649 468 l 632 434 l 632 429 l 633 423 q 633 419 623 417 l 617 414 q 618 412 618 411 l 609 374 q 609 371 601 364 q 600 364 600 356 q 599 348 597 343 q 594 338 594 333 q 593 328 589 322 q 586 316 586 311 l 586 307 q 582 303 582 299 l 582 296 l 583 291 q 583 289 579 288 q 574 286 574 284 q 574 282 577 277 l 577 272 q 577 269 573 262 q 570 256 570 249 l 566 233 l 567 223 l 565 210 l 569 190 l 568 175 q 568 170 573 167 q 577 164 579 161 q 581 158 585 158 q 603 158 618 173 q 654 210 655 211 l 661 215 q 665 230 666 231 q 667 231 671 234 q 674 236 678 246 l 682 252 l 687 264 q 699 267 702 280 q 704 293 706 295 l 716 296 l 719 302 l 716 305 q 723 312 723 316 q 723 319 728 327 l 732 336 q 732 343 738 350 q 744 358 746 364 l 746 368 q 760 382 760 396 q 761 400 768 413 q 775 427 775 436 l 774 443 q 774 452 787 465 l 785 476 q 785 480 792 486 q 798 491 798 494 q 798 496 796 501 l 796 504 q 796 512 801 524 q 809 526 809 529 q 809 533 803 537 q 798 540 798 542 q 798 543 802 549 l 801 563 q 801 566 806 571 q 804 574 804 577 q 803 579 800 587 q 796 595 796 600 l 799 616 l 798 639 q 798 660 817 669 l 825 674 q 831 680 850 680 q 869 680 873 663 l 877 657 q 883 648 883 634 l 879 607 l 882 588 q 882 586 878 581 l 875 576 q 878 561 878 556 q 878 547 875 543 q 871 540 870 536 l 867 527 q 862 522 862 520 q 861 518 860 491 q 860 487 854 483 q 848 480 848 477 q 848 476 849 471 l 849 467 q 849 448 836 439 q 824 398 814 386 q 803 373 799 359 q 797 357 790 353 q 789 350 785 338 q 781 326 771 307 q 760 288 757 286 l 752 276 q 751 270 748 270 q 742 270 737 265 l 737 256 q 737 254 732 250 q 728 245 720 228 q 713 211 703 205 q 692 204 692 203 q 691 203 690 198 q 689 193 688 190 q 688 186 683 181 q 682 182 680 182 q 676 182 676 178 l 676 176 l 677 172 q 677 165 656 149 q 643 143 638 135 q 633 127 609 115 q 585 102 573 102 l 564 101 l 548 105 q 531 109 524 116 q 518 123 514 128 q 511 134 503 141 q 495 148 495 168 q 495 171 486 189 q 488 208 488 216 l 488 224 q 488 230 493 242 q 498 254 498 256 l 498 259 l 497 267 q 497 270 501 281 q 506 293 506 297 q 506 301 502 301 q 497 301 497 292 q 496 282 477 267 l 462 244 q 461 241 458 238 l 451 222 q 450 220 447 220 q 446 220 445 221 l 440 222 q 438 221 437 213 q 437 204 432 200 l 423 203 l 422 200 l 422 192 q 422 189 412 181 q 407 181 404 176 q 403 176 403 175 l 395 176 l 394 174 l 395 168 q 395 163 384 151 q 374 139 372 139 q 368 139 366 140 l 365 139 l 366 131 q 362 125 355 124 q 353 122 351 119 l 333 102 q 328 102 322 101 q 320 102 317 103 q 316 102 315 95 q 314 89 304 89 l 301 86 q 304 81 280 62 q 256 43 242 43 q 233 43 226 50 q 219 56 215 60 q 210 63 207 70 q 203 76 197 87 q 190 97 190 109 q 190 110 193 122 q 196 135 198 146 q 200 157 202 158 q 205 160 208 168 q 212 175 212 176 l 211 183 q 210 184 210 186 q 210 189 215 197 q 220 204 222 214 q 224 224 226 227 q 228 229 230 235 q 233 241 237 245 q 241 249 272 314 q 280 338 288 344 q 296 349 297 352 q 292 360 292 361 l 301 375 q 301 381 305 385 q 310 390 311 393 l 315 395 q 318 408 322 412 q 322 415 323 416 q 324 417 333 432 l 333 440 l 336 446 l 343 450 q 352 473 355 476 l 358 481 q 361 485 364 487 q 376 520 376 521 q 376 524 369 527 l 365 530 q 358 527 356 527 l 345 530 q 337 526 329 518 q 313 510 296 510 q 288 510 277 502 q 267 494 241 483 l 234 479 q 229 470 225 470 l 208 472 q 204 451 185 447 q 173 435 166 427 q 158 419 149 412 q 139 406 137 396 q 135 394 129 381 q 123 368 113 363 q 103 358 95 352 q 87 346 84 346 q 79 346 74 351 q 69 355 59 358 q 49 361 49 372 q 49 380 67 405 q 67 406 97 428 q 128 451 134 456 q 139 461 156 469 q 173 476 176 479 q 178 481 186 486 q 193 491 196 494 q 200 498 204 499 z"},"A":{"x_min":0,"x_max":596,"ha":596,"o":"m 131 282 l 132 293 l 132 297 l 136 310 q 146 340 157 354 q 168 368 169 374 q 170 380 177 387 q 183 394 186 400 l 190 406 q 190 415 201 425 q 212 436 213 441 q 214 447 228 463 q 228 467 238 479 q 248 490 251 495 q 254 500 263 504 q 265 514 273 521 q 281 528 285 533 q 289 538 295 541 l 300 547 q 303 552 316 562 q 329 571 333 576 l 345 581 l 347 583 l 348 589 q 350 590 355 595 q 360 601 364 604 l 377 617 q 385 622 390 625 q 396 628 397 633 q 399 637 415 642 q 424 654 440 656 q 446 666 475 678 q 504 691 516 691 q 527 691 536 688 l 544 689 q 546 688 553 685 l 554 685 l 558 684 q 575 665 575 643 q 575 632 574 618 q 569 601 569 591 q 569 584 564 574 l 560 561 q 557 532 540 532 q 513 532 513 557 q 513 573 527 584 q 551 599 551 633 q 551 642 543 642 l 542 642 q 537 639 534 639 l 525 642 l 524 642 l 520 640 q 519 641 513 637 q 507 633 496 629 q 486 626 475 615 q 465 603 452 598 q 439 593 429 579 q 429 578 428 578 l 418 579 q 416 579 411 567 l 408 565 l 405 565 q 403 564 398 559 l 392 554 q 389 545 381 541 l 375 531 q 371 529 366 525 q 361 521 357 520 q 354 518 351 509 q 347 499 328 492 q 326 490 326 489 q 326 488 327 485 l 327 484 q 327 474 302 454 l 302 452 q 302 447 293 432 q 285 417 279 411 q 273 406 273 404 l 273 397 q 273 389 266 387 q 260 382 257 379 q 257 369 249 364 q 240 359 239 356 l 242 350 l 242 348 q 242 334 228 330 l 228 328 q 228 323 221 314 q 214 304 208 301 q 207 301 206 299 l 208 285 q 195 258 183 243 q 178 242 178 239 l 180 231 l 180 229 q 180 217 176 212 q 172 207 172 206 l 175 199 q 175 195 171 193 q 167 191 167 189 q 167 188 168 186 l 168 183 q 168 179 161 156 l 161 149 l 159 142 q 159 141 162 136 q 164 131 164 127 l 161 120 q 160 119 160 117 q 160 108 164 94 q 168 79 178 79 q 195 79 198 83 q 202 87 219 100 q 237 114 242 119 q 248 125 251 126 q 254 128 278 157 q 301 186 319 209 q 320 210 322 216 q 323 221 332 230 q 341 238 359 263 l 368 272 q 379 287 381 291 q 382 294 388 298 q 393 302 396 308 q 399 314 405 315 q 410 316 410 320 l 409 330 q 416 341 425 344 q 424 346 424 350 q 424 362 434 365 q 444 368 444 372 q 445 375 447 380 l 448 384 q 452 392 456 396 l 462 405 l 472 415 q 472 416 473 417 l 471 428 q 471 431 484 436 l 485 438 l 485 447 q 485 451 494 456 q 497 466 504 470 q 505 483 513 492 q 521 501 527 510 q 533 519 545 519 q 551 519 568 510 q 584 501 584 484 q 584 482 579 472 q 574 462 570 433 q 560 406 556 401 q 559 394 559 390 q 559 384 551 375 q 549 366 547 360 l 547 352 q 547 343 533 339 q 532 339 529 327 q 527 315 527 314 l 529 301 q 529 294 525 290 q 521 286 514 277 q 508 267 508 265 q 508 257 506 252 q 504 247 503 241 q 503 236 499 231 q 495 226 494 223 q 497 217 497 216 q 497 213 494 204 q 489 199 489 196 q 489 195 492 189 q 491 183 487 173 l 486 170 l 488 142 q 488 141 484 136 l 484 134 q 484 129 487 129 q 489 129 502 136 q 515 144 517 147 q 521 156 557 176 l 621 229 q 627 236 630 236 q 638 236 638 228 q 638 217 633 202 l 633 195 q 633 182 619 171 q 618 167 613 165 q 607 162 604 157 q 602 153 594 149 q 585 145 580 140 l 576 138 q 569 135 566 127 q 564 120 561 120 q 550 120 531 101 l 525 99 l 519 95 q 514 91 511 91 l 504 92 l 478 87 q 472 87 467 96 l 459 96 l 452 104 q 440 108 431 131 q 422 153 422 170 q 422 180 427 202 q 431 223 431 233 q 431 244 435 255 q 439 265 439 272 q 439 274 443 285 q 447 297 447 309 q 447 310 445 310 q 419 273 411 268 q 407 266 403 261 q 408 253 408 252 q 408 244 389 225 l 384 214 q 381 211 380 211 l 369 212 l 366 208 l 369 198 q 364 187 356 185 l 354 183 l 353 178 l 348 175 q 347 175 347 174 l 349 164 q 347 161 344 158 q 340 156 336 146 q 333 136 325 136 l 321 138 l 320 138 l 319 129 l 320 125 q 320 121 312 116 l 307 111 q 307 105 296 94 q 285 83 280 74 q 271 70 262 58 q 246 44 243 41 q 240 37 231 36 q 225 29 214 28 q 204 26 197 23 q 189 20 187 20 q 169 20 151 34 q 139 35 134 43 l 113 62 q 93 92 93 126 q 93 133 95 138 q 97 143 97 145 q 97 147 94 149 q 92 152 92 154 q 92 158 100 163 q 94 169 94 174 q 94 178 98 185 q 102 192 104 192 q 106 192 111 187 q 111 186 112 186 q 114 186 114 188 q 114 193 108 196 q 103 199 102 207 q 100 209 100 210 l 109 247 q 112 262 125 274 z"},"f":{"x_min":0,"x_max":218,"ha":218,"o":"m -67 -92 l -62 -81 l -59 -69 q -59 -67 -54 -63 q -50 -59 -50 -56 q -38 -11 -26 6 l -14 35 q -12 45 -5 51 q 2 57 2 61 q 2 64 -8 70 q -18 75 -18 80 q -18 85 14 99 q 14 113 29 128 q 32 131 32 135 q 32 146 37 154 l 41 165 q 43 171 49 178 q 55 185 55 192 l 55 196 q 49 196 37 179 q 25 179 17 161 q 13 151 -1 148 q -7 136 -22 132 q -32 138 -32 143 l -28 173 q -28 183 22 224 q 25 224 41 243 l 68 273 q 90 295 101 305 q 122 338 122 349 q 132 358 139 385 q 146 413 152 426 q 158 438 159 444 q 179 503 188 518 l 193 534 l 200 540 q 201 542 202 555 q 208 557 213 577 q 219 596 225 604 q 231 611 233 619 q 235 627 245 635 q 255 643 265 643 q 269 643 277 633 q 285 623 286 610 q 288 597 289 593 q 290 588 290 580 l 291 566 q 291 562 287 541 q 283 520 281 511 q 280 502 271 499 q 263 496 263 493 q 263 490 267 489 q 271 487 271 486 q 271 484 265 473 q 260 462 255 459 q 258 453 258 452 q 258 450 251 437 q 244 424 239 419 q 235 415 230 399 q 226 384 208 373 q 201 366 196 351 q 191 335 181 331 l 175 322 l 175 320 q 175 312 170 304 q 165 295 160 283 q 155 271 151 267 q 149 256 144 247 q 139 238 138 231 l 135 227 q 125 226 125 218 l 127 207 q 127 207 118 191 l 116 181 q 114 169 107 165 q 100 161 98 146 l 96 135 q 96 134 97 132 q 98 132 103 137 q 110 135 111 135 q 114 135 116 139 q 119 143 125 145 l 127 146 q 129 153 134 153 q 139 154 143 158 q 146 162 148 162 q 149 162 155 158 l 156 158 l 160 160 l 159 168 q 159 173 164 174 q 168 176 170 179 l 188 191 q 200 196 205 201 q 211 207 218 209 q 224 212 228 216 q 231 219 244 220 q 258 232 266 237 l 270 242 q 271 243 274 244 q 277 245 281 250 q 286 255 290 255 q 300 255 300 245 q 300 229 285 219 l 284 218 q 282 198 272 198 q 270 198 265 190 q 260 191 259 191 q 255 185 249 180 l 246 180 q 238 180 183 135 q 180 132 178 131 l 169 132 q 169 131 163 122 q 156 120 147 113 q 138 106 134 104 q 130 102 126 97 q 123 93 117 91 l 111 85 l 108 85 q 104 85 98 80 q 93 75 93 71 q 93 69 97 63 q 101 66 125 33 q 148 1 148 -29 q 148 -51 141 -57 q 135 -64 135 -67 q 135 -69 136 -78 l 136 -80 q 136 -85 131 -86 q 125 -87 124 -90 l 124 -102 l 122 -108 q 116 -111 109 -131 q 94 -146 88 -148 l 87 -150 l 88 -163 q 88 -168 83 -171 q 79 -174 72 -183 q 64 -193 56 -197 q 54 -206 49 -210 q 43 -214 37 -221 l 34 -223 q 30 -224 26 -234 l 22 -235 q 15 -247 9 -252 q 2 -257 -1 -261 l -9 -266 q -13 -275 -27 -286 q -28 -286 -31 -283 l -32 -283 q -34 -283 -36 -287 q -37 -291 -41 -294 q -45 -298 -49 -304 l -51 -306 q -57 -306 -71 -323 q -80 -325 -87 -330 q -97 -342 -101 -342 q -102 -342 -112 -334 q -122 -326 -122 -308 q -122 -304 -128 -298 q -129 -292 -130 -282 l -130 -278 q -130 -272 -126 -264 l -123 -254 q -122 -250 -120 -248 q -118 -245 -115 -234 q -111 -222 -106 -211 l -105 -206 q -100 -183 -96 -183 q -93 -176 -90 -164 q -87 -151 -86 -144 q -85 -136 -79 -131 z m 34 2 l 36 -19 q 36 -21 28 -38 q 20 -55 18 -65 q 15 -75 7 -75 l 2 -75 q 1 -77 1 -79 l 2 -90 q 2 -96 -1 -112 q -5 -128 -11 -133 l -14 -136 q -15 -144 -22 -159 q -28 -175 -33 -184 q -37 -193 -40 -207 q -42 -220 -46 -224 q -49 -238 -52 -247 q -55 -256 -59 -271 q -58 -273 -56 -273 q -53 -273 -49 -262 q -47 -260 -42 -260 q -38 -259 -34 -249 l -33 -247 q -28 -246 -25 -241 q -23 -237 -20 -236 q -17 -235 -13 -231 l -10 -230 q -8 -229 -6 -225 q -5 -220 -3 -218 l 4 -218 l 6 -217 q 10 -201 15 -197 q 21 -192 24 -186 q 27 -179 31 -176 q 35 -172 37 -163 q 46 -153 48 -147 q 51 -141 55 -137 l 56 -134 l 54 -128 l 54 -126 q 54 -122 66 -106 q 77 -91 80 -80 q 83 -70 85 -63 q 88 -57 89 -49 q 91 -41 95 -36 q 99 -31 99 -22 q 99 -7 85 16 q 84 17 83 22 q 82 27 73 33 q 65 40 61 40 l 57 38 q 56 37 51 35 q 46 33 46 26 l 46 24 l 47 13 q 47 9 34 2 z"},"Q":{"x_min":0,"x_max":548,"ha":548,"o":"m 143 301 l 147 313 q 145 319 157 333 q 158 343 165 356 q 171 369 176 382 q 180 395 193 405 q 197 417 197 420 q 198 422 205 424 q 208 431 211 439 l 229 471 q 231 475 237 488 l 263 513 q 263 524 271 528 q 279 532 281 541 q 282 550 291 558 q 299 565 305 573 q 310 574 311 578 l 316 586 q 322 594 325 594 l 329 594 q 330 601 344 613 q 358 625 363 631 q 367 637 375 641 l 379 646 q 382 645 397 657 q 412 670 419 670 l 428 669 l 439 673 q 455 673 464 655 q 465 655 469 658 l 481 664 q 486 668 491 673 q 496 678 518 686 l 527 692 q 533 696 538 696 l 567 699 q 603 699 624 679 q 644 658 647 651 q 647 649 648 648 l 645 634 q 646 632 656 625 l 657 620 q 657 617 654 616 q 650 615 650 614 q 650 612 652 609 q 655 607 655 603 l 653 581 q 653 574 647 556 q 642 538 642 537 l 646 522 q 643 516 638 513 q 635 491 612 434 l 612 430 l 606 416 q 600 401 593 399 q 593 398 586 369 q 579 340 567 337 q 562 333 559 323 q 556 313 548 301 l 543 292 q 542 287 535 280 q 529 272 524 258 q 519 245 509 242 q 508 241 507 234 q 506 228 502 224 q 498 219 497 214 q 495 208 484 203 q 479 192 476 188 q 472 185 468 177 q 464 168 450 165 l 447 163 l 447 158 l 444 152 q 438 147 436 140 q 421 121 401 109 q 393 89 381 86 q 376 81 376 77 l 391 49 l 399 44 q 406 40 410 29 q 414 27 417 24 l 417 16 q 429 12 434 12 l 446 14 q 451 14 456 10 l 459 9 l 468 9 q 476 9 486 -1 q 495 -11 495 -19 q 495 -29 491 -32 q 487 -34 484 -39 q 481 -44 464 -44 q 462 -44 456 -47 q 452 -46 442 -45 q 432 -44 415 -35 q 398 -27 396 -23 q 393 -19 387 -14 q 382 -9 377 1 q 373 11 370 14 q 367 17 365 25 q 362 32 357 38 q 356 38 356 40 l 357 50 q 357 50 355 55 q 353 59 351 59 q 342 45 328 46 q 324 43 319 38 q 313 32 284 19 l 274 20 q 269 15 264 15 l 263 15 l 257 16 q 249 9 244 9 l 227 12 l 218 9 l 212 10 l 205 9 q 202 11 196 12 q 189 12 187 15 q 184 17 179 20 q 174 23 170 28 q 166 33 155 38 q 143 43 137 60 l 119 113 q 114 128 114 144 q 114 146 118 156 l 116 164 l 117 190 l 115 201 q 123 216 123 217 l 121 232 q 121 237 127 253 q 133 269 133 273 q 133 286 136 290 q 140 293 143 301 z m 397 213 l 404 223 l 410 226 q 413 228 417 235 q 421 242 436 255 q 437 257 440 265 q 443 273 450 276 q 450 291 463 301 q 475 310 478 319 q 481 329 491 345 q 511 374 515 377 q 520 380 521 393 q 523 406 527 409 q 531 412 533 419 q 536 426 539 432 q 542 439 543 445 q 544 451 551 456 q 552 456 556 464 q 560 473 568 477 l 565 484 q 565 504 573 512 q 581 521 581 523 l 581 526 l 579 532 l 579 533 q 580 534 580 536 l 580 542 l 594 608 q 596 617 593 628 q 589 639 583 644 l 577 650 q 575 653 550 654 l 517 642 l 458 601 q 452 597 445 587 q 437 576 428 571 q 420 566 416 558 q 415 557 409 557 q 403 556 400 539 l 394 527 q 386 523 385 519 q 385 514 382 509 q 379 504 378 499 l 375 493 q 373 492 371 467 q 380 450 380 440 q 380 435 372 420 q 364 405 353 405 q 326 405 326 438 q 326 451 338 473 l 337 481 q 337 483 344 490 q 351 498 354 504 q 356 510 359 514 q 363 518 365 530 q 367 542 387 560 q 391 576 399 584 l 404 593 q 413 602 425 610 l 429 616 l 424 616 q 420 616 414 613 l 409 612 l 403 607 q 399 603 386 599 l 383 597 q 382 593 376 589 q 370 584 365 578 q 361 571 352 562 l 342 546 q 334 546 326 530 q 319 513 314 509 q 310 504 309 497 q 307 490 303 488 q 303 481 294 475 q 292 473 290 466 l 281 452 q 281 446 274 440 q 267 435 267 434 l 270 426 q 270 422 258 407 q 246 392 242 378 l 240 373 q 232 368 232 360 q 232 356 230 343 q 226 341 219 330 q 211 319 212 310 q 212 300 205 287 q 197 274 192 252 q 189 252 188 251 l 191 240 q 180 219 180 214 l 184 201 q 179 196 179 193 l 180 185 l 178 172 l 179 160 q 179 156 178 154 l 176 144 l 178 129 q 178 125 176 115 q 177 113 180 109 q 180 72 194 58 q 196 55 198 51 l 208 50 q 211 50 213 52 q 216 53 220 54 q 224 54 227 57 q 237 59 243 65 q 250 71 258 71 q 266 72 280 88 l 286 92 l 310 112 l 313 113 q 317 115 317 117 q 305 131 301 142 q 296 154 290 154 q 288 154 285 151 q 275 143 268 143 q 240 143 240 156 q 240 182 278 182 q 287 182 307 171 q 308 169 318 159 l 333 141 q 335 139 336 139 q 342 139 361 163 q 380 186 385 199 q 392 209 397 213 z"},"w":{"x_min":0,"x_max":534,"ha":534,"o":"m 67 256 l 75 258 q 79 262 83 268 q 88 273 96 277 q 105 281 110 292 q 131 313 145 316 q 166 307 169 297 q 173 286 173 262 q 173 256 168 246 q 163 237 161 231 q 159 226 152 215 q 152 214 149 211 q 147 209 144 201 q 140 194 135 188 q 129 182 126 175 q 123 167 113 150 q 102 121 102 116 q 102 111 105 111 q 107 111 112 114 l 116 115 l 122 115 l 129 120 q 130 123 131 127 q 132 128 144 133 l 145 134 q 144 136 144 139 q 144 144 154 146 q 163 147 168 152 q 168 158 170 159 q 173 160 176 166 q 179 172 187 173 q 194 174 194 179 q 194 195 212 204 q 216 205 216 209 q 216 218 217 219 q 219 221 226 225 l 236 238 l 240 248 q 242 252 245 254 q 248 257 252 265 q 257 274 260 277 l 265 285 q 272 298 282 298 q 288 298 306 282 q 324 267 324 237 q 324 225 318 223 q 312 220 309 206 q 306 192 300 180 q 293 168 293 167 l 295 161 l 295 159 q 295 148 289 141 q 290 141 292 133 l 287 125 q 289 106 294 106 q 297 106 302 108 q 306 110 311 110 q 315 111 325 117 l 357 137 l 363 144 l 367 147 q 375 151 378 158 q 381 165 387 166 q 389 177 399 187 l 413 214 q 418 225 420 226 q 420 243 407 273 l 407 276 q 407 286 414 295 q 420 304 426 304 l 436 303 l 449 306 q 453 306 470 292 q 488 277 488 256 q 488 242 483 232 q 478 222 477 213 q 475 204 467 199 l 465 197 q 463 174 446 162 q 441 155 436 144 q 430 134 426 132 q 425 132 418 121 q 412 110 408 108 q 405 105 395 101 q 385 97 385 91 l 384 84 q 367 72 362 66 q 355 65 352 64 q 332 44 296 44 q 279 44 260 61 q 240 78 240 95 l 236 111 q 236 150 239 165 q 240 167 240 169 q 240 175 237 175 q 234 172 232 167 q 229 161 225 159 l 218 153 q 215 141 213 140 q 210 138 204 132 q 198 126 191 121 q 191 118 171 92 l 171 89 q 171 88 166 86 l 158 78 q 151 71 121 52 q 91 34 86 34 q 73 34 63 43 q 54 53 52 63 q 51 74 48 83 q 45 92 45 96 q 45 98 47 106 q 49 114 49 120 q 50 127 51 128 l 51 137 q 51 138 56 145 q 62 152 62 159 q 62 162 66 168 q 71 175 73 179 q 74 184 80 190 q 81 195 84 204 q 88 213 88 215 q 88 216 87 217 q 80 217 67 204 l 58 199 q 52 196 36 183 q 29 174 23 174 q 0 174 0 195 q 0 205 6 209 q 11 213 12 217 q 13 220 24 222 q 35 225 48 245 q 59 245 61 249 q 63 252 67 256 z"},"-":{"x_min":0,"x_max":243,"ha":243,"o":"m 83 194 l 89 194 q 99 194 104 196 q 107 194 112 194 q 113 194 116 195 l 130 195 q 135 195 147 199 l 148 199 q 153 196 156 196 l 158 196 l 167 198 q 185 198 211 189 l 220 192 q 224 192 231 188 l 235 187 q 236 176 236 171 q 236 158 229 154 q 222 149 212 140 q 202 132 194 132 l 183 135 l 180 135 l 169 133 q 167 132 163 132 q 155 132 148 137 q 141 142 139 142 l 111 138 l 101 141 q 100 142 97 142 q 94 142 86 140 q 77 137 72 137 q 68 137 62 140 q 56 142 53 142 q 49 142 42 140 q 34 138 29 138 q 24 138 16 146 l 14 147 l 4 147 q -7 147 -7 167 q -7 170 -1 178 q 5 186 11 187 q 17 187 24 190 q 31 193 45 193 l 59 190 l 61 190 z"},"E":{"x_min":0,"x_max":567,"ha":567,"o":"m 63 72 l 56 91 q 56 92 60 99 q 55 103 55 105 q 55 110 59 118 q 55 122 55 126 l 58 136 q 61 147 66 150 l 67 153 q 63 156 63 158 q 63 159 68 168 l 69 175 q 70 185 81 191 q 81 213 91 221 q 101 228 106 236 q 110 245 127 267 q 136 273 146 278 q 149 291 155 293 q 161 295 172 308 q 183 322 199 323 l 204 325 q 207 333 218 341 q 229 348 238 352 q 247 355 252 360 q 258 364 267 368 l 275 372 q 278 375 284 381 l 288 382 l 292 382 q 297 382 304 386 q 312 391 312 395 l 305 391 l 302 391 l 284 385 l 260 382 q 254 387 248 388 q 226 393 226 424 q 226 446 236 458 q 245 469 249 480 q 252 492 262 502 q 272 512 273 517 q 273 519 279 522 q 285 525 287 531 q 290 538 304 546 q 302 549 329 568 q 331 570 334 575 q 337 581 338 581 q 347 581 357 591 l 374 606 q 383 614 396 620 q 402 633 409 633 q 410 633 416 630 l 418 630 q 419 630 427 639 q 436 648 443 652 q 454 648 456 648 l 456 650 q 456 651 457 654 l 477 666 l 487 665 q 500 675 514 675 q 515 675 521 673 q 527 678 539 678 q 541 678 545 676 q 549 673 551 673 q 553 673 555 674 q 557 675 559 675 q 566 675 571 670 q 576 665 583 665 q 591 664 598 648 q 605 632 605 618 l 604 608 l 605 600 q 599 588 598 580 q 597 571 590 561 l 586 548 q 579 542 577 538 l 576 537 q 575 522 564 522 l 560 522 q 548 522 542 532 q 535 543 535 551 q 535 561 545 570 q 555 579 566 579 l 568 580 q 567 582 567 586 q 567 590 572 592 l 575 594 q 576 598 578 602 q 580 607 580 609 q 580 615 574 628 q 567 640 562 640 q 560 640 558 639 q 556 638 555 638 l 547 639 q 530 639 501 622 l 495 620 l 484 620 q 483 620 480 615 q 473 613 468 604 q 462 595 450 590 q 439 585 435 581 l 427 578 q 421 576 417 570 q 412 563 395 550 q 374 529 370 521 l 364 517 l 351 500 q 339 476 327 469 q 325 469 317 448 q 308 427 304 425 q 301 423 301 421 q 301 420 302 417 q 311 420 318 424 q 324 428 327 428 q 330 428 339 434 l 342 434 q 346 434 352 440 l 359 440 q 362 443 370 447 q 378 451 394 459 q 409 468 430 474 q 450 480 467 484 q 483 489 486 489 q 513 489 513 475 q 513 450 491 431 q 470 411 465 411 l 457 412 l 422 404 q 417 403 413 400 l 375 379 l 358 366 l 349 364 q 334 350 327 349 l 319 347 q 310 328 303 328 q 301 328 296 332 q 295 331 294 328 q 293 325 286 316 q 279 307 274 305 q 270 304 265 302 q 263 284 256 284 l 247 285 l 247 279 q 247 274 240 271 q 232 267 230 265 q 229 262 227 262 l 220 266 l 219 264 q 221 260 221 258 q 221 256 218 252 q 214 248 209 237 q 204 235 202 234 q 198 226 193 218 q 189 218 186 211 q 182 204 180 196 q 178 188 172 185 q 167 179 163 168 q 158 157 157 143 q 155 130 149 120 q 150 119 150 118 l 149 105 q 149 104 153 94 q 156 84 160 83 q 165 81 168 76 q 170 76 179 73 l 184 76 q 189 76 193 73 l 195 73 l 203 75 l 208 73 q 212 73 218 77 q 218 78 219 78 l 226 74 q 236 80 240 81 q 245 81 248 85 q 250 90 254 90 q 255 90 260 87 l 261 87 q 262 87 266 91 q 270 94 277 96 q 284 98 288 101 q 292 104 302 109 q 311 110 317 115 l 322 117 q 326 118 329 123 q 333 128 355 143 l 365 151 q 379 163 396 172 q 413 180 417 189 l 421 195 q 440 197 444 206 q 451 214 460 217 q 462 225 463 226 l 471 228 l 473 230 q 475 242 480 243 q 485 245 493 252 q 502 260 510 264 l 534 288 q 536 290 543 295 q 544 299 551 301 l 556 306 q 557 308 562 311 q 566 313 574 323 q 583 334 594 334 q 597 334 597 331 q 597 298 587 288 q 577 277 552 257 q 551 257 545 250 q 540 242 536 241 q 535 240 529 232 q 524 225 520 225 q 516 225 509 215 l 497 207 l 488 197 q 484 194 480 193 q 477 192 476 188 q 474 183 469 179 q 463 176 451 164 l 430 146 q 426 141 420 138 l 399 117 q 392 108 382 108 l 374 108 q 373 109 369 112 l 366 113 q 362 113 362 111 l 363 98 q 360 96 358 96 l 355 95 q 347 82 337 74 q 326 66 325 64 q 323 63 319 62 q 315 61 311 58 q 306 54 297 51 q 287 47 281 43 q 276 40 275 40 q 271 40 265 44 q 259 37 256 31 q 254 24 250 24 q 247 24 225 16 q 204 9 200 5 l 188 8 q 181 4 173 4 l 164 6 q 155 3 154 3 l 113 22 q 107 25 106 27 q 105 29 103 29 q 87 37 82 47 q 77 58 69 63 z"},"s":{"x_min":0,"x_max":268,"ha":268,"o":"m 78 272 l 85 284 q 88 289 93 293 q 97 298 103 317 q 108 336 115 344 q 121 351 134 351 q 141 351 153 344 q 165 337 177 301 q 188 266 188 251 q 188 245 191 236 q 195 227 196 222 q 192 214 192 213 l 193 193 l 187 177 l 187 165 q 181 155 181 153 q 181 150 183 147 q 206 157 211 163 q 216 169 220 170 q 225 172 236 183 l 245 188 q 250 194 253 198 q 257 203 261 205 q 266 207 272 212 q 279 217 291 223 l 296 229 q 303 237 313 242 q 323 247 324 247 q 328 247 331 238 q 335 229 335 220 q 335 212 325 204 q 316 196 312 192 q 309 188 297 185 q 296 185 281 165 l 271 159 l 266 153 q 265 151 253 149 q 252 149 251 144 q 249 139 240 137 q 223 121 222 119 l 212 117 q 209 108 207 106 q 195 103 194 96 q 192 95 189 94 l 187 93 q 176 84 165 82 l 154 79 l 150 73 q 150 71 138 67 q 126 63 120 57 l 112 51 q 97 45 93 40 l 86 40 q 79 40 64 30 q 50 20 41 20 q 13 20 2 27 q -8 34 -15 45 q -22 55 -28 62 q -33 68 -33 72 q -33 75 -29 79 q -24 82 -19 93 q -13 103 9 106 q 10 106 16 109 q 22 112 26 112 q 31 112 38 103 q 38 102 40 102 l 48 103 q 53 99 55 99 q 67 99 80 111 l 82 112 l 86 112 q 87 112 91 120 l 99 137 l 116 159 l 116 164 q 116 166 119 173 l 119 180 q 119 185 125 186 q 131 187 131 192 l 130 196 q 126 201 126 204 l 131 214 l 130 224 l 132 228 q 130 235 130 236 l 132 248 q 132 249 129 257 q 126 266 125 266 q 122 266 106 251 q 91 236 88 229 q 85 223 75 218 q 66 213 62 207 q 59 200 54 199 l 21 173 l -14 146 q -18 142 -19 142 q -37 142 -37 162 q -37 168 -30 185 q -26 187 -25 188 q -23 189 -23 189 q -23 190 -24 190 l -21 188 l -20 188 q -2 200 3 202 q 9 204 13 213 l 34 228 q 42 233 58 249 q 74 265 78 272 z"},">":{"x_min":0,"x_max":500,"ha":500,"o":"m 143 63 l 143 99 l 460 305 l 143 517 l 143 611 l 556 335 l 556 329 z"},"l":{"x_min":0,"x_max":265,"ha":265,"o":"m 48 155 l 48 158 q 48 165 49 169 q 46 177 46 183 q 46 184 51 197 l 55 212 q 59 221 59 221 q 56 229 56 230 q 56 241 62 249 q 69 256 73 269 l 83 299 l 99 338 q 100 339 104 346 q 108 352 111 357 q 113 361 118 370 l 123 371 q 125 373 125 375 q 125 376 123 383 l 140 411 l 150 432 q 155 440 161 443 q 171 461 178 465 q 181 474 189 485 l 198 486 q 201 493 203 496 l 204 506 q 204 503 207 508 q 209 512 214 525 l 227 540 l 231 547 q 233 550 239 560 q 246 563 251 571 l 261 579 q 260 584 273 603 q 281 606 288 612 l 295 614 q 295 631 307 637 l 313 641 q 321 645 322 645 l 325 646 q 331 648 339 648 q 357 648 372 635 q 386 621 386 604 q 386 597 379 590 l 377 586 q 370 559 367 559 q 365 559 362 556 q 361 540 360 538 q 351 537 351 516 q 350 513 344 506 q 338 499 334 487 q 331 474 327 474 l 322 474 l 323 467 q 323 460 317 453 q 310 447 309 439 q 307 432 297 422 l 292 414 q 289 409 284 404 q 279 398 276 387 l 263 364 q 250 340 243 341 q 239 322 237 319 q 236 316 230 313 q 225 311 222 305 q 219 299 216 296 l 207 278 q 199 274 196 265 q 188 263 186 252 q 184 250 181 243 l 164 226 q 151 217 150 205 q 149 193 137 193 q 129 193 113 200 l 112 200 q 110 193 105 185 l 107 172 q 107 169 99 141 q 103 134 103 131 l 102 120 l 104 107 q 107 91 116 91 l 128 89 q 129 89 140 96 l 158 106 q 159 106 159 105 q 164 103 167 103 q 172 103 172 111 l 172 117 q 175 122 179 123 q 183 124 187 127 q 190 131 192 131 l 197 131 q 204 131 204 148 q 206 149 209 152 l 215 152 q 219 152 223 161 q 228 171 230 173 q 239 174 242 176 q 258 204 266 204 l 269 204 q 277 212 278 218 q 279 224 283 226 q 287 228 291 231 q 294 234 295 234 q 302 234 302 229 l 301 215 l 304 200 q 304 198 300 193 q 296 187 296 180 q 296 166 291 165 q 286 164 283 158 q 280 153 272 148 q 265 144 261 135 l 253 133 l 248 130 q 242 115 236 111 q 229 108 219 91 q 218 91 218 90 l 210 91 q 206 83 201 82 q 197 80 194 76 q 191 72 183 69 q 176 66 174 62 q 172 58 168 58 q 164 57 161 54 q 157 51 155 51 q 154 51 148 52 l 146 52 q 138 46 132 46 q 126 46 123 44 q 120 46 114 47 q 108 48 100 52 q 92 50 90 50 q 82 50 69 66 q 56 83 56 98 q 56 99 51 106 q 45 113 45 121 l 45 126 l 46 132 l 46 141 l 47 144 q 54 145 54 146 z m 147 284 l 157 290 q 159 298 170 309 q 181 320 185 320 l 189 320 q 189 323 190 327 q 192 330 192 336 q 192 339 205 352 l 209 361 q 213 374 231 382 q 238 396 241 396 l 245 397 q 247 404 253 410 l 255 413 l 255 421 q 255 422 261 429 q 268 436 271 442 q 274 448 279 452 q 284 455 286 464 l 294 465 q 294 471 295 473 l 296 478 q 298 484 313 509 l 321 527 q 321 530 325 534 q 329 538 329 546 l 333 562 q 333 573 329 573 q 324 570 320 568 q 316 567 312 551 q 297 547 295 537 q 293 526 283 519 l 280 513 q 279 508 271 502 q 262 496 255 482 q 230 448 228 446 l 223 440 l 216 441 q 218 433 218 432 q 218 429 215 427 q 212 424 210 420 q 209 416 205 411 q 200 406 197 394 q 193 383 190 381 l 183 382 q 177 378 177 374 l 178 367 q 178 365 176 363 q 173 360 170 352 q 168 344 158 328 q 148 312 143 295 q 137 277 132 272 q 133 271 135 271 q 141 271 147 284 z"},"8":{"x_min":0,"x_max":478,"ha":478,"o":"m 139 310 l 144 313 q 145 323 153 325 q 161 326 166 336 q 171 346 172 346 q 178 346 183 349 q 183 359 216 384 l 266 424 q 273 431 281 436 q 288 440 291 443 l 304 448 q 311 451 317 458 q 323 465 327 467 q 326 476 298 477 l 222 492 q 213 494 210 500 q 207 507 197 515 q 186 522 186 552 q 186 562 211 582 q 235 602 251 607 q 266 613 271 617 q 275 621 289 622 q 306 634 316 634 l 321 634 q 341 647 351 647 l 364 644 l 370 645 q 371 646 373 646 l 382 643 q 397 654 409 658 q 412 655 414 655 l 450 662 l 459 660 l 478 662 q 479 662 485 657 l 496 657 q 500 657 509 652 l 519 650 q 549 644 549 614 q 549 596 537 589 q 525 582 524 582 q 518 582 514 596 l 503 607 l 498 617 l 494 619 q 476 614 475 614 q 472 614 469 618 q 466 622 464 622 l 456 618 q 455 617 452 617 l 446 620 l 445 620 q 443 620 435 616 q 427 613 424 613 l 416 615 l 411 615 q 404 615 394 606 q 384 597 378 597 q 376 597 362 603 l 361 603 q 359 603 355 601 q 352 599 341 594 q 329 588 323 582 q 318 576 316 576 l 309 581 q 309 582 308 582 q 305 582 301 573 q 296 563 291 563 l 285 568 q 285 569 284 569 l 277 565 q 274 563 269 562 q 264 560 258 553 q 251 547 251 543 l 252 541 q 259 540 271 536 l 278 535 q 296 531 302 522 q 314 517 328 513 q 351 501 361 494 l 365 493 q 369 492 371 491 q 396 499 403 508 q 410 517 434 522 q 436 523 444 530 q 452 537 469 542 q 487 546 502 556 l 511 560 q 522 566 525 570 q 529 573 533 573 q 557 573 567 561 q 567 561 579 544 q 591 527 591 523 q 591 507 574 507 l 571 507 l 563 510 q 561 510 556 503 l 554 501 q 532 501 516 491 q 515 486 510 486 q 506 486 498 481 q 491 476 486 475 q 481 474 479 472 l 472 466 l 468 466 l 457 467 q 451 460 438 451 q 426 443 426 441 q 426 433 434 424 q 443 415 443 411 l 443 409 l 442 406 l 456 388 l 457 380 q 460 365 463 360 q 467 355 467 354 l 465 343 q 469 339 469 325 q 469 315 466 308 q 462 301 462 288 q 462 281 459 275 q 457 270 457 261 l 455 254 q 449 250 447 240 q 445 230 441 225 q 437 219 434 213 q 430 207 426 203 q 421 198 418 190 q 415 182 408 179 q 400 162 394 162 q 393 162 391 163 q 388 164 385 164 q 381 164 377 151 q 374 138 373 138 l 363 139 q 362 138 356 128 q 351 117 348 115 l 338 116 q 330 95 325 95 q 323 95 321 96 q 319 97 317 97 q 315 97 312 94 q 308 92 303 90 q 299 88 293 81 q 287 73 280 71 q 273 69 267 62 q 264 62 255 55 q 246 49 243 49 l 240 49 l 229 51 l 214 48 l 203 44 l 194 45 l 186 44 q 183 44 173 50 l 165 49 q 154 49 134 65 q 114 81 114 82 q 110 89 106 92 q 103 95 99 103 l 91 112 q 88 115 82 129 q 76 143 76 148 l 72 175 q 72 176 74 180 q 77 184 77 185 l 75 197 q 75 216 88 236 q 102 256 104 263 q 107 270 120 282 q 133 295 135 301 q 138 308 139 310 z m 244 141 l 248 141 l 261 148 q 269 155 286 159 q 291 167 303 174 q 316 181 322 191 q 327 201 351 213 l 356 219 q 364 228 370 230 q 376 232 376 235 l 376 238 l 375 245 q 375 249 385 259 q 395 269 398 275 q 402 281 405 283 q 407 286 410 293 l 419 311 q 420 314 423 327 l 423 332 l 427 349 q 427 376 424 380 q 423 382 418 393 q 413 404 409 407 q 405 411 399 418 q 394 425 391 425 q 388 425 382 417 q 376 410 375 410 q 367 410 361 405 q 355 400 346 397 q 338 389 334 385 q 330 381 323 379 q 316 377 298 359 l 263 329 q 255 326 248 320 q 242 314 235 309 q 217 288 213 283 q 209 278 205 276 q 201 275 194 259 q 191 256 186 256 q 181 255 179 250 q 177 245 166 232 l 159 212 l 150 207 q 142 187 136 181 q 131 175 131 170 q 131 166 125 149 q 118 132 118 125 q 118 115 134 105 q 142 107 157 107 q 161 107 165 109 q 168 111 172 112 q 176 113 180 116 q 185 119 198 120 l 205 124 q 213 128 221 129 q 229 130 235 135 q 241 141 244 141 z"},"\\":{"x_min":0,"x_max":455,"ha":455,"o":"m 416 305 l 418 300 q 419 297 419 296 q 419 292 418 288 q 422 284 422 276 l 420 261 q 420 249 427 245 l 427 244 l 424 236 l 425 222 l 424 207 q 424 197 427 189 q 431 180 431 177 l 428 144 l 430 135 l 427 121 l 428 116 l 424 104 l 425 95 q 425 84 418 68 l 412 52 q 406 29 384 12 l 364 -8 q 349 -21 327 -23 q 325 -23 313 -25 l 310 -25 q 292 -25 292 -7 q 292 7 332 55 q 340 63 344 70 q 347 77 353 85 q 366 124 366 134 l 364 146 l 366 161 q 366 187 360 198 q 358 203 358 206 q 358 216 368 237 q 362 239 361 245 q 361 252 358 257 q 356 262 355 272 q 355 282 349 291 q 350 296 350 305 q 350 314 341 314 l 339 316 q 339 324 345 330 q 340 336 340 337 q 340 338 343 344 q 346 349 346 350 q 346 351 341 352 q 336 352 336 354 l 339 371 l 339 375 q 339 389 332 394 q 324 398 324 403 q 324 404 326 413 q 321 418 315 451 q 297 466 296 479 q 295 493 286 507 q 277 521 276 533 q 271 538 265 556 q 253 568 244 573 l 239 573 q 236 573 236 577 l 239 596 l 238 610 q 238 614 245 635 q 251 657 264 667 q 277 677 285 677 q 290 677 300 670 q 309 664 312 660 q 314 656 320 651 q 326 647 330 620 q 334 592 335 588 q 345 581 346 574 q 347 568 351 562 q 355 555 355 552 l 355 549 l 355 548 l 356 546 l 357 545 l 357 544 l 358 543 l 359 542 l 359 540 l 360 539 l 362 532 l 365 528 q 368 524 368 519 q 368 516 364 509 q 363 509 363 508 q 363 507 368 500 q 374 494 378 478 q 383 461 383 459 q 383 457 380 449 q 382 444 382 434 q 384 435 387 435 q 390 435 390 427 q 390 424 392 420 l 393 413 q 393 412 396 406 q 398 401 398 396 q 398 392 399 383 q 404 378 404 374 l 401 369 q 397 367 397 363 l 402 360 l 402 354 q 410 350 410 331 l 409 326 q 410 325 411 320 q 412 315 416 305 z"},"e":{"x_min":0,"x_max":323,"ha":323,"o":"m 67 238 l 77 246 q 89 247 90 258 q 91 270 106 278 l 112 286 q 119 293 152 305 q 160 310 163 314 q 164 315 165 315 l 173 313 q 179 313 189 316 q 199 320 208 320 l 229 321 q 231 321 237 318 q 243 315 252 315 q 263 315 272 305 q 281 295 281 287 q 281 272 265 256 q 250 241 240 239 q 232 230 228 228 q 223 226 219 221 q 214 217 211 217 q 209 217 208 218 q 207 219 205 219 q 197 219 188 200 l 179 201 q 171 196 168 189 q 166 183 158 183 q 140 165 134 165 q 133 165 127 167 q 123 162 123 157 q 123 151 115 150 l 109 144 l 104 145 l 94 135 q 87 135 79 130 q 78 124 76 115 q 74 106 74 105 q 74 91 100 91 l 124 94 q 133 94 141 99 q 149 104 158 104 q 161 104 167 106 l 172 104 q 175 111 185 117 q 194 123 199 123 l 204 126 q 206 132 210 134 l 214 137 q 218 141 221 141 l 228 141 l 230 142 q 236 155 246 157 q 257 159 260 164 q 262 169 269 170 q 276 171 281 177 q 285 182 292 187 q 299 192 302 194 q 304 197 306 197 q 309 197 309 192 q 309 188 311 188 q 313 188 313 190 q 313 192 312 195 l 312 198 q 312 206 320 208 l 342 222 q 343 232 347 234 q 352 236 354 238 q 357 240 360 240 q 366 240 366 233 l 364 220 l 366 207 q 366 204 362 199 q 357 194 354 183 q 352 173 348 172 l 345 172 q 336 163 331 161 q 326 159 323 155 l 307 136 q 302 131 298 127 q 295 123 293 123 l 289 127 q 289 128 287 128 q 282 128 281 122 q 280 116 276 112 q 261 105 257 99 l 254 98 l 245 98 q 239 98 236 89 q 234 79 222 78 q 211 76 206 72 q 205 71 202 70 q 198 69 188 62 l 147 47 q 142 45 141 45 l 127 43 q 124 43 121 47 q 118 51 117 51 l 108 48 q 99 45 90 45 q 85 45 79 48 q 73 52 70 53 q 56 53 50 75 l 44 74 q 42 74 31 109 q 28 113 21 115 q 15 116 15 124 q 15 146 25 154 q 34 161 35 165 l 42 190 q 44 192 47 200 l 58 221 q 60 224 67 238 z m 170 267 l 164 264 q 162 263 153 256 q 143 248 134 243 q 125 239 115 219 q 106 200 106 197 q 106 194 109 194 l 125 201 q 135 206 143 212 q 151 219 166 229 l 170 233 q 171 235 179 240 q 187 245 191 250 l 196 252 q 204 265 213 268 q 221 271 221 274 q 221 280 212 280 q 208 280 200 275 l 189 275 q 187 275 178 269 z"},"b":{"x_min":0,"x_max":311,"ha":311,"o":"m 179 60 l 176 53 q 174 48 166 48 q 165 48 150 42 q 135 36 125 36 l 112 35 q 100 35 89 42 q 78 48 73 54 q 68 59 59 86 q 51 113 51 118 q 51 137 61 139 q 61 142 56 150 q 52 158 52 159 q 52 189 65 206 q 59 225 59 227 q 59 228 62 235 q 64 242 65 248 q 66 254 68 258 l 69 266 q 70 272 76 272 q 79 272 79 276 l 79 280 l 78 286 q 78 300 85 306 q 92 312 94 324 q 96 336 100 339 q 103 342 105 349 l 112 363 l 117 381 q 118 386 123 388 q 128 389 128 392 l 127 398 q 131 408 132 413 q 134 417 141 420 q 148 437 153 443 q 158 450 161 459 q 164 468 176 476 q 177 478 180 486 q 183 494 188 495 q 193 496 193 499 l 191 503 q 191 507 198 517 l 204 528 q 208 533 214 535 q 221 549 231 562 q 242 576 250 592 q 261 605 271 611 l 287 631 q 293 643 299 643 q 308 661 322 666 q 324 667 336 677 q 347 686 356 686 q 364 686 376 669 q 388 652 388 640 q 388 637 385 632 q 382 626 381 620 q 381 614 375 585 q 370 557 366 553 l 353 528 q 351 522 349 521 q 346 520 343 513 l 345 503 l 344 503 q 339 497 333 481 q 325 469 320 459 q 314 448 314 445 l 311 438 q 300 422 297 412 q 292 408 289 401 q 287 395 282 391 q 278 388 277 380 q 275 373 274 371 l 264 372 l 264 371 l 265 357 q 265 355 260 353 q 256 350 252 342 q 249 334 240 333 q 236 330 235 327 l 237 318 q 236 317 229 308 q 223 298 221 298 l 211 297 q 208 296 208 280 q 208 269 198 265 q 173 226 169 222 q 165 217 153 215 q 153 214 151 214 q 146 214 130 228 l 129 228 q 123 200 119 196 q 115 192 115 187 l 120 178 l 120 177 q 120 163 115 143 l 115 140 l 117 130 l 117 112 l 116 101 q 120 94 120 89 q 120 73 128 73 q 132 73 140 83 l 146 86 q 155 90 163 104 q 171 117 171 127 q 171 137 151 137 q 141 139 141 158 q 141 167 148 174 q 156 181 161 189 q 173 207 186 207 l 211 216 q 215 216 219 214 q 222 213 228 211 q 244 217 244 217 q 261 217 267 199 q 267 196 275 196 q 292 196 303 206 q 315 217 328 223 q 341 230 349 237 q 357 244 359 244 l 366 244 q 367 244 372 250 q 377 257 390 257 q 395 257 395 253 q 395 227 387 222 q 380 218 369 201 l 364 198 q 359 194 355 188 q 351 183 347 182 q 336 165 330 165 q 327 165 323 167 q 320 170 319 170 q 316 170 314 158 q 311 154 298 144 q 296 144 291 150 q 291 151 290 151 q 282 151 281 142 q 279 133 270 132 l 250 129 l 239 130 q 235 130 222 106 q 209 82 206 81 q 191 76 185 63 z m 345 620 l 345 626 q 334 623 329 605 l 325 601 q 316 595 311 585 q 305 574 293 559 l 291 553 l 280 539 l 278 530 q 277 528 271 523 q 264 519 262 511 q 260 504 251 493 q 243 483 240 479 q 236 476 228 453 l 225 448 q 225 444 220 441 l 202 419 q 202 417 200 405 q 193 404 191 399 l 183 381 q 182 378 178 374 q 172 351 160 340 l 149 317 q 147 313 146 306 l 145 303 q 139 292 139 286 q 139 284 138 274 l 139 274 q 140 274 143 276 q 146 279 151 282 q 156 285 159 294 q 162 303 168 306 q 175 310 177 314 l 206 353 q 209 357 214 362 q 219 367 219 370 l 223 377 q 226 380 233 388 q 240 396 244 398 q 248 401 249 408 q 249 414 254 421 l 256 425 q 261 431 265 434 q 268 437 269 440 q 269 444 280 453 q 281 460 291 477 q 302 493 307 506 q 312 520 318 525 q 323 530 324 543 l 329 551 l 344 593 l 342 603 z"},"%":{"x_min":0,"x_max":492,"ha":492,"o":"m 231 245 l 236 247 q 242 250 252 274 l 282 311 q 287 316 298 333 q 309 349 315 353 q 320 356 323 361 q 329 362 329 365 q 329 366 328 369 l 328 374 q 328 376 334 382 q 341 387 346 395 q 351 402 360 411 q 369 420 373 427 q 377 435 380 435 q 382 435 384 434 q 389 443 396 449 q 396 457 412 475 l 416 481 q 419 486 424 489 l 433 498 l 440 503 q 443 505 447 509 l 447 516 q 447 521 454 527 q 461 532 467 539 l 485 558 l 498 568 l 503 575 q 512 583 520 588 q 532 602 533 606 q 524 613 523 613 q 520 613 516 602 q 514 601 506 600 q 504 593 500 591 q 497 589 495 585 q 493 582 486 582 l 484 582 q 483 583 482 583 q 476 583 471 577 q 466 571 461 567 q 458 557 451 557 q 447 552 442 545 l 434 541 l 427 533 l 418 528 q 396 512 387 500 l 361 478 l 356 478 q 350 478 343 469 q 336 460 331 457 l 322 448 q 319 445 316 445 q 312 445 310 446 q 300 434 289 429 l 284 426 l 283 426 q 282 426 279 429 q 276 432 272 432 q 264 432 264 418 q 261 416 244 409 q 228 402 220 396 q 213 391 209 391 q 198 391 185 399 q 172 407 172 421 q 172 449 173 456 q 174 463 189 476 q 203 489 206 496 q 227 517 235 518 l 241 522 q 244 525 250 528 q 260 546 283 555 q 287 558 313 574 q 315 573 316 573 q 320 573 330 580 q 340 587 342 587 l 351 585 l 383 594 q 389 594 389 589 l 388 578 q 389 576 392 576 q 396 576 400 581 q 417 600 436 603 q 456 611 465 616 l 474 617 l 482 623 q 488 622 491 622 q 496 628 508 630 l 512 630 l 514 634 l 543 643 q 587 657 589 663 q 597 666 607 671 q 616 677 621 677 q 628 677 635 668 q 641 659 641 651 q 641 630 624 601 l 614 579 q 612 573 603 573 q 594 573 571 554 q 549 536 539 521 q 529 511 519 503 q 509 495 501 485 q 493 474 490 471 q 487 467 481 463 q 476 459 463 452 l 440 422 l 429 413 q 425 400 410 393 q 396 385 384 353 l 382 352 l 375 352 l 373 351 q 371 337 369 335 l 363 332 q 362 331 360 317 q 347 313 341 304 q 336 294 326 281 q 316 269 312 264 q 308 259 301 252 l 296 245 q 290 239 287 237 q 284 236 282 221 q 281 207 265 193 l 230 138 q 224 125 212 88 l 214 78 l 212 63 q 224 35 224 25 q 224 0 218 -13 q 211 -25 192 -25 l 178 -23 q 153 -21 149 -10 q 145 0 139 11 q 133 22 133 45 q 133 50 135 57 q 137 65 137 71 q 137 82 145 93 q 152 104 153 110 q 155 116 158 120 q 158 128 173 147 q 179 159 186 174 q 202 197 212 207 l 229 236 z m 366 557 l 358 555 l 353 556 q 326 556 322 548 q 317 540 315 537 l 305 539 q 303 539 296 530 q 288 520 280 520 q 264 497 246 485 q 228 473 220 456 q 226 459 233 461 q 240 464 271 484 q 303 505 306 510 q 309 516 340 533 l 350 543 l 354 543 q 368 543 368 553 q 368 555 366 557 z m 396 274 l 401 274 q 404 274 408 277 q 413 281 416 281 q 419 281 419 274 q 419 266 415 261 q 410 257 410 252 q 414 252 419 255 q 422 255 427 257 q 433 259 436 259 q 439 259 447 244 q 455 229 456 220 q 457 212 459 205 l 459 203 q 459 198 456 195 q 452 192 451 186 q 450 179 444 176 q 438 172 434 168 q 433 156 421 142 q 409 129 402 127 l 372 97 q 370 96 365 94 q 359 92 353 88 q 348 84 335 78 l 323 72 q 292 72 283 106 l 278 117 q 273 125 273 138 q 273 145 283 160 q 294 176 300 182 l 305 193 q 317 206 337 226 q 358 245 359 247 q 366 248 392 271 z m 392 192 l 392 194 q 376 192 376 218 q 376 224 384 230 q 392 237 392 238 q 392 240 390 240 q 379 240 370 221 q 362 202 357 197 l 348 197 q 346 197 338 183 q 331 169 326 148 l 323 144 q 312 143 312 130 q 312 111 317 111 q 318 111 321 113 q 323 115 335 121 q 346 126 354 136 q 362 147 366 153 q 371 158 375 165 l 378 167 q 384 173 387 182 l 391 189 q 392 191 392 192 z"},"m":{"x_min":0,"x_max":630,"ha":630,"o":"m 200 261 l 214 267 q 221 271 227 280 l 244 292 q 259 302 263 302 l 271 299 q 272 299 277 305 q 282 311 289 311 q 298 311 313 298 q 328 285 328 274 l 326 258 q 326 254 330 236 l 330 232 l 328 220 l 330 208 l 325 184 q 325 175 331 175 q 339 183 345 184 l 352 191 q 356 195 358 195 q 360 195 363 199 q 366 204 371 206 q 376 208 378 213 q 405 243 420 247 q 422 247 427 252 q 431 257 434 258 l 445 266 l 449 264 l 450 264 q 451 264 458 269 q 465 274 468 274 q 486 274 498 261 q 510 249 510 242 l 508 231 l 511 216 l 511 206 l 509 196 q 509 193 513 188 q 517 182 517 180 q 511 174 511 172 l 512 163 l 510 136 q 510 133 516 125 q 519 127 524 128 q 530 130 533 132 q 536 133 536 134 q 536 134 535 134 q 536 134 541 132 l 543 132 q 547 132 547 139 q 548 147 557 152 l 569 151 q 570 152 573 159 q 576 166 594 180 q 611 194 620 194 q 628 194 628 187 q 628 185 626 177 q 630 170 630 165 q 630 156 614 145 q 598 134 590 118 l 588 116 l 578 117 q 577 117 573 110 q 570 102 565 101 q 560 100 558 98 l 548 92 q 545 90 529 72 q 512 54 501 54 q 496 54 483 59 q 471 64 466 70 q 462 75 454 82 q 446 89 446 108 q 446 109 448 111 q 451 114 451 115 q 440 130 440 136 q 440 139 441 143 q 442 146 442 149 l 441 166 l 443 175 l 442 180 l 445 205 q 445 211 438 211 q 436 211 433 207 q 429 203 424 201 q 419 199 413 187 q 404 182 401 177 q 398 173 396 173 q 395 173 392 174 q 386 170 386 165 l 386 163 l 387 159 q 387 155 380 151 q 373 147 362 131 q 357 131 355 130 l 349 118 q 344 115 340 108 l 334 105 q 331 99 327 94 l 324 89 q 303 64 295 64 q 287 64 275 86 q 263 108 263 120 l 265 138 q 265 139 261 146 l 261 148 q 261 149 265 159 l 265 174 q 265 175 264 177 l 264 179 q 264 180 268 187 l 265 201 l 267 209 l 266 226 l 268 241 q 268 243 265 246 q 263 250 262 250 q 258 250 241 239 q 225 228 219 221 q 213 215 203 206 q 193 201 189 181 q 189 180 187 180 q 187 181 184 182 l 182 182 q 180 182 167 161 l 165 159 l 156 161 q 144 161 144 136 q 144 132 138 130 q 132 129 128 122 q 125 115 119 108 q 108 103 106 101 q 106 100 96 86 q 85 72 84 69 q 83 67 77 64 q 72 61 72 58 l 73 50 q 73 42 58 42 q 29 42 29 103 q 29 110 35 118 q 41 127 47 139 q 56 148 69 166 q 82 184 88 190 l 94 200 q 94 206 97 209 q 99 212 99 216 q 99 224 95 224 q 86 224 81 219 q 75 215 69 213 q 62 211 60 206 q 53 203 46 194 q 38 184 36 182 q 33 179 31 175 q 29 171 25 170 q 22 170 19 167 q 16 164 10 164 q 5 164 2 173 q -2 182 -2 184 q -2 220 45 246 q 52 249 55 252 q 59 256 63 258 l 65 261 q 69 267 94 278 l 101 278 l 134 286 q 155 291 155 239 l 154 230 l 156 226 q 164 234 173 240 q 181 246 185 251 q 189 256 200 261 z"},"#":{"x_min":0,"x_max":500,"ha":500,"o":"m 124 151 l 125 159 q 125 162 129 168 q 133 175 135 180 q 138 185 139 186 q 141 187 144 195 q 147 203 150 205 q 152 207 155 216 q 158 224 165 228 q 165 234 171 242 q 177 250 177 257 q 177 261 167 261 l 163 261 l 152 264 q 150 265 146 265 l 143 265 l 129 263 q 111 263 111 289 q 111 306 128 306 l 146 311 q 146 311 150 309 q 153 307 154 307 l 161 308 l 186 306 l 188 306 q 210 306 213 321 q 215 335 226 344 q 227 344 228 348 q 229 352 237 359 q 244 366 244 373 q 244 377 227 377 l 221 377 l 214 379 q 212 380 208 380 l 205 380 l 192 379 q 173 379 173 405 q 173 420 193 422 l 200 424 q 206 426 208 426 q 208 426 212 425 q 215 423 230 421 l 233 421 q 270 421 271 429 q 273 438 275 438 q 286 449 291 463 q 295 477 302 481 q 301 486 312 500 l 313 506 q 314 509 317 510 q 319 512 323 521 q 327 530 329 533 q 331 536 333 538 l 334 545 q 334 550 338 551 q 342 552 347 562 l 351 570 l 352 576 q 358 606 372 623 l 375 635 q 375 636 385 642 l 387 645 q 394 655 397 656 l 399 656 l 413 657 q 417 657 425 646 q 433 634 433 627 q 433 603 414 581 l 409 565 l 387 532 l 380 518 q 377 508 371 504 q 365 500 365 496 q 364 474 347 461 q 344 457 341 447 q 338 437 333 433 q 328 429 328 427 q 328 424 337 424 q 347 424 349 425 q 352 426 354 426 q 355 426 358 425 q 360 424 362 424 q 364 424 366 425 l 368 425 l 385 424 q 387 424 387 425 q 388 426 389 426 l 402 423 q 416 423 421 434 q 421 436 425 440 q 428 444 430 450 q 433 456 436 458 q 438 461 440 469 q 442 477 445 478 l 450 481 q 450 484 454 491 q 458 498 460 503 q 461 509 465 512 q 469 516 473 526 q 478 536 479 538 l 481 545 q 482 548 486 551 q 490 554 494 562 l 498 570 l 499 576 q 501 594 511 610 q 516 616 522 635 l 523 637 q 533 642 537 648 q 542 655 544 656 l 546 656 l 560 657 q 563 657 572 646 q 580 636 580 628 q 580 601 561 582 l 556 565 q 548 554 533 532 l 525 513 q 523 507 518 504 q 512 501 511 496 q 511 474 494 461 q 491 458 489 451 q 487 444 485 440 q 482 436 482 435 q 482 432 492 432 l 496 432 l 503 431 q 511 431 513 432 q 516 433 519 433 q 521 433 527 431 q 533 428 540 427 q 546 427 546 423 q 554 413 554 411 q 554 390 536 382 q 519 375 507 375 q 503 375 500 376 q 496 378 494 378 l 477 375 l 453 377 q 449 377 435 354 q 421 330 421 324 q 421 316 444 316 l 457 318 q 458 318 464 315 q 470 313 476 312 q 482 312 486 304 q 491 296 491 296 q 491 275 474 268 q 458 260 444 260 q 440 260 438 261 l 431 262 l 410 259 q 402 259 399 260 q 396 261 393 261 q 391 261 387 257 q 383 253 378 250 q 374 247 373 234 q 373 221 355 208 q 353 204 350 194 q 348 184 341 179 q 333 175 333 170 q 333 148 312 132 q 310 130 310 127 q 310 115 299 98 q 288 81 284 74 l 276 67 q 274 64 268 50 q 262 35 250 35 q 244 35 233 41 q 222 47 222 58 l 223 64 q 226 69 227 77 q 228 85 235 90 q 256 122 271 152 l 271 159 q 271 160 281 177 q 292 194 295 204 q 297 205 302 215 q 306 225 312 228 q 312 234 318 242 q 324 251 324 254 q 324 259 303 262 q 302 263 299 263 q 293 263 290 261 q 286 260 281 260 q 277 260 273 262 q 269 264 266 265 q 227 254 227 242 q 226 220 216 212 q 206 204 203 194 q 201 183 194 179 q 187 175 187 170 q 186 147 166 132 q 163 130 163 127 q 163 117 154 104 q 145 90 138 74 l 129 67 q 127 64 121 50 q 115 35 103 35 q 100 35 98 36 l 90 39 q 74 42 74 55 q 74 57 78 72 q 82 87 88 90 q 93 99 96 102 q 100 105 102 111 z m 346 310 l 355 309 q 359 313 362 325 q 365 338 370 341 q 375 344 376 351 q 389 362 389 369 q 389 373 380 373 l 365 377 q 364 378 361 378 q 355 378 352 376 q 348 375 343 375 q 339 375 330 381 l 328 381 l 312 376 q 296 371 284 344 q 271 318 271 313 q 271 309 277 309 q 281 309 285 310 q 290 311 292 311 q 292 311 298 308 l 303 310 l 308 310 l 319 309 q 323 309 325 310 l 327 310 q 328 310 332 309 q 333 308 336 308 q 344 308 346 310 z"},",":{"x_min":0,"x_max":245,"ha":245,"o":"m 61 54 l 64 60 q 66 64 67 65 q 69 67 75 79 q 81 92 97 94 q 102 99 111 99 q 123 99 139 77 q 155 55 155 49 q 155 41 144 31 q 144 15 135 4 q 125 -8 123 -13 q 120 -19 116 -22 q 116 -23 99 -45 q 82 -67 74 -67 l 53 -60 q 47 -59 47 -55 q 47 -42 61 -30 q 74 -17 76 -4 q 56 16 56 42 q 56 44 61 54 z"},"n":{"x_min":0,"x_max":519,"ha":519,"o":"m 430 135 l 432 135 l 437 133 q 438 133 439 134 q 439 142 447 148 q 449 157 458 162 q 466 167 485 178 l 497 189 l 503 192 l 507 197 q 512 203 517 203 q 524 203 524 198 l 520 188 l 522 172 q 522 163 516 156 q 510 149 497 136 l 472 110 l 459 103 q 454 100 450 96 l 431 80 q 431 73 427 70 l 419 70 l 415 68 q 412 59 395 50 l 388 45 q 385 42 382 42 l 368 44 l 359 42 q 355 42 348 46 q 342 50 335 52 q 328 54 318 70 q 307 86 306 91 q 306 93 304 97 q 302 102 302 103 q 302 104 306 113 l 306 114 q 306 115 303 121 q 301 126 301 134 q 301 138 298 145 q 302 149 302 151 q 302 153 300 156 q 299 160 299 162 l 302 186 l 300 198 l 301 210 q 301 220 292 220 q 288 220 282 215 l 279 214 q 266 208 260 203 q 255 199 249 199 q 246 196 238 194 l 234 191 q 232 189 226 185 q 226 184 208 169 q 189 154 175 141 q 160 127 154 126 q 147 125 147 114 q 147 112 138 106 q 137 106 128 95 q 120 101 119 101 q 113 101 110 85 q 107 79 94 77 q 93 77 91 70 l 89 68 l 84 68 q 83 68 77 62 q 71 57 67 55 q 61 42 56 42 q 54 42 51 44 q 47 46 42 47 q 36 49 30 59 q 23 70 23 77 q 23 131 44 136 l 45 138 l 45 142 q 45 148 51 151 q 56 154 62 162 q 68 170 70 171 l 76 171 q 78 171 78 181 q 78 184 81 187 q 83 189 83 194 q 84 198 91 209 q 97 219 97 221 l 96 223 q 84 212 79 211 q 73 210 64 197 l 56 198 q 36 183 31 181 q 26 179 20 170 q 20 167 17 166 q 13 165 4 158 l 1 158 q -11 158 -11 176 l -1 204 q 3 217 20 226 q 36 235 47 243 q 59 251 70 252 l 73 257 q 90 263 96 277 q 102 291 112 291 q 139 291 153 271 q 167 251 167 239 l 168 226 q 168 219 165 207 q 159 198 159 194 q 159 190 164 190 q 167 190 172 194 q 177 198 183 202 q 189 205 190 208 q 195 219 207 224 q 219 228 222 231 l 227 235 l 231 242 q 244 248 249 253 q 253 258 260 259 q 268 261 277 268 l 284 270 l 291 274 q 292 275 297 276 q 302 278 311 281 q 321 285 324 285 q 349 285 364 265 q 378 245 378 233 l 377 224 l 379 211 l 379 209 l 375 182 l 376 173 q 376 150 366 141 q 364 140 364 136 l 364 132 l 374 111 q 378 101 380 101 l 396 105 q 403 107 407 115 q 411 117 421 127 q 424 135 430 135 z"},"h":{"x_min":0,"x_max":440,"ha":440,"o":"m 14 217 l 18 222 q 31 225 34 232 q 36 235 59 257 q 82 279 84 281 q 100 309 103 323 q 109 326 109 330 l 113 338 l 117 339 l 119 341 l 119 345 q 119 354 138 386 q 157 426 159 430 q 160 434 165 442 q 169 450 178 473 q 187 496 206 521 q 208 522 212 532 q 216 542 224 552 l 230 562 q 233 567 240 579 q 248 591 254 598 q 260 605 263 613 q 266 621 271 625 q 275 628 280 637 q 284 646 294 646 q 313 646 322 630 q 330 615 330 603 q 330 602 324 582 l 317 538 q 307 533 307 527 q 307 501 287 473 q 285 471 284 460 q 283 450 275 443 q 268 436 262 420 l 217 355 l 213 351 q 210 349 206 343 l 198 345 q 185 345 185 337 q 185 334 187 329 l 187 328 q 187 328 151 277 q 149 274 144 258 l 137 243 q 127 229 123 216 q 119 202 112 194 q 102 172 102 171 q 102 168 105 168 q 108 168 119 183 q 130 197 137 202 q 144 207 149 216 l 154 219 q 156 220 162 225 l 167 224 q 171 227 172 231 q 173 235 175 237 q 188 238 191 246 q 194 254 198 254 q 202 254 208 263 q 215 272 226 278 q 238 283 243 288 q 249 292 266 298 q 283 304 289 304 l 292 304 l 296 303 l 303 304 q 320 304 337 295 q 354 285 352 265 l 348 235 l 343 211 q 342 205 335 185 q 328 165 328 162 l 326 153 l 328 140 l 327 130 q 327 125 332 125 q 334 125 343 134 q 348 133 353 140 q 358 146 366 154 q 366 156 373 157 q 379 159 390 169 q 392 173 409 188 q 426 202 442 210 l 445 214 q 453 222 460 222 q 467 222 467 215 q 467 210 464 205 q 462 199 461 191 q 460 182 451 166 l 449 161 q 446 153 441 151 q 436 150 430 143 q 425 137 407 131 q 399 116 395 116 l 386 120 q 376 112 376 103 q 363 92 361 89 l 351 90 q 347 90 347 79 q 347 78 337 73 q 327 67 322 62 q 316 58 299 58 q 297 58 293 62 q 289 65 281 67 q 274 70 271 79 q 268 88 265 93 q 261 98 261 101 l 262 111 l 260 121 l 264 128 q 261 135 261 137 l 266 167 q 271 199 275 209 q 276 210 276 215 l 275 227 l 276 234 q 276 241 271 242 q 266 242 265 244 q 259 247 258 247 q 254 247 251 241 q 248 235 243 230 l 231 232 l 231 231 q 231 227 218 216 q 206 213 197 203 q 193 203 183 196 q 174 188 171 187 l 167 179 l 159 177 q 156 167 143 164 l 138 155 q 128 154 124 144 q 120 135 118 135 q 117 135 115 136 q 113 137 111 137 q 100 137 99 121 q 99 119 79 98 q 59 77 58 77 q 56 76 52 67 q 48 57 41 52 q 33 48 30 45 q 26 42 24 42 q 14 42 7 57 q 1 71 1 72 l 4 82 l 3 91 q 3 91 9 111 q 15 130 23 141 q 31 152 35 177 q 13 162 9 162 q -1 162 -1 175 q -1 198 14 217 z"},"z":{"x_min":0,"x_max":330,"ha":330,"o":"m 81 90 l 73 86 q 71 87 68 87 q 66 87 50 83 q 49 82 46 82 q 43 82 38 90 q 33 97 33 102 q 33 107 42 123 l 59 152 q 65 164 66 170 q 68 177 71 182 q 74 187 75 190 q 76 194 78 198 q 79 201 80 208 q 81 215 85 227 l 85 228 q 85 231 83 231 l 79 231 q 77 233 76 233 l 46 198 q 29 183 19 176 q 9 169 4 160 q -1 152 -5 152 q -19 152 -19 175 q -19 185 -16 188 q -12 192 -5 204 q -5 205 2 208 q 9 212 13 218 q 17 223 21 224 q 25 225 26 229 q 28 232 32 235 q 37 239 40 244 q 42 250 48 253 q 53 257 57 263 q 61 270 74 274 l 103 301 q 121 323 131 323 l 136 323 q 139 323 144 324 q 148 325 151 325 q 162 325 173 312 q 183 298 183 284 q 183 268 173 259 q 150 213 150 200 q 150 195 144 189 q 137 184 137 176 q 135 170 130 164 q 130 159 126 151 q 123 144 123 143 q 123 141 125 141 q 131 141 143 147 q 155 153 164 153 q 172 153 180 157 l 192 167 q 198 171 208 171 l 216 170 q 218 170 223 174 q 229 178 246 185 q 263 191 267 191 q 294 191 294 168 q 294 167 291 157 q 288 146 286 145 q 283 143 278 139 l 281 130 q 272 121 270 106 l 263 88 q 261 85 261 77 q 250 54 244 38 q 239 21 224 -14 l 223 -18 q 223 -20 220 -22 q 217 -24 217 -26 q 217 -28 234 -39 q 252 -51 252 -68 q 252 -81 240 -89 q 229 -97 215 -97 q 210 -97 202 -92 q 195 -86 188 -86 q 182 -86 177 -97 q 173 -108 166 -109 l 139 -156 l 135 -160 q 132 -163 125 -172 q 119 -180 111 -187 q 103 -194 96 -208 q 85 -213 73 -228 q 61 -243 54 -248 q 47 -253 43 -260 l 34 -271 q 31 -273 26 -275 l 24 -277 q 14 -285 4 -290 q 0 -302 -13 -307 q -26 -311 -34 -321 q -43 -330 -51 -332 q -59 -334 -67 -338 q -75 -343 -81 -343 q -93 -343 -103 -327 q -114 -311 -114 -293 l -109 -262 q -104 -227 -77 -184 l -49 -140 q -36 -131 -14 -107 q -11 -103 -5 -98 q 2 -93 18 -79 q 26 -68 37 -66 q 48 -64 59 -60 l 65 -59 q 67 -59 68 -56 q 76 -41 148 -29 q 161 -27 166 -16 q 170 -5 176 7 q 182 19 182 25 q 191 34 193 45 l 196 53 q 200 58 200 61 l 199 70 q 209 86 209 102 l 209 103 q 217 113 217 124 q 217 128 213 128 l 206 123 q 201 126 200 126 q 193 126 186 121 q 178 115 176 115 l 168 116 l 146 111 l 139 112 q 137 112 132 109 q 127 106 122 105 q 117 104 113 101 q 108 97 101 97 q 101 97 96 94 q 91 92 86 91 q 81 90 81 90 z m 75 -96 l 64 -103 l 55 -102 q 53 -103 45 -110 q 36 -116 34 -116 l 25 -116 q 10 -135 6 -136 q -5 -139 -10 -147 q -15 -156 -17 -156 l -24 -153 q -25 -153 -30 -170 q -31 -171 -38 -172 q -59 -206 -61 -207 l -66 -207 q -67 -207 -70 -211 q -70 -237 -81 -259 q -78 -278 -75 -278 q -71 -275 -67 -274 q -64 -274 -53 -270 q -42 -265 -40 -265 q -37 -264 -28 -256 q -19 -248 -9 -244 q 0 -240 7 -231 l 17 -223 q 17 -216 38 -203 l 49 -191 l 54 -181 l 60 -178 l 63 -170 q 64 -169 68 -168 q 72 -167 75 -159 q 79 -152 92 -132 q 98 -128 112 -101 l 115 -98 q 121 -93 121 -90 q 121 -87 118 -87 q 115 -87 97 -90 q 80 -94 75 -96 z"},"B":{"x_min":0,"x_max":703,"ha":703,"o":"m 546 145 l 544 145 q 544 143 534 133 l 527 133 l 524 132 q 511 119 506 119 l 496 121 l 494 121 q 488 121 481 114 q 475 106 468 106 q 465 106 457 109 q 451 101 439 101 l 412 87 q 407 85 404 83 q 401 81 395 81 q 388 80 381 76 q 374 72 369 72 l 358 75 q 342 63 325 61 q 309 59 302 57 l 288 56 l 267 51 q 260 48 250 48 q 238 48 227 57 q 221 53 215 47 l 212 46 q 211 46 208 47 q 205 49 203 49 q 202 49 199 47 q 197 46 194 46 q 190 46 178 56 q 175 53 172 53 q 159 53 152 71 l 144 68 q 142 68 138 76 q 134 85 134 92 q 134 110 213 161 q 292 211 312 217 l 317 220 q 320 223 323 223 q 324 223 328 221 l 331 221 q 337 221 339 228 q 342 235 351 235 l 356 236 l 411 266 q 415 268 438 276 q 461 285 469 289 q 478 294 496 297 l 501 300 q 509 303 514 303 q 547 303 547 271 l 539 255 q 532 239 519 239 q 515 239 513 241 q 511 244 510 244 l 485 243 l 474 247 q 474 247 463 243 l 455 243 q 453 243 442 236 l 429 231 q 408 227 372 210 q 335 194 329 195 q 320 191 313 184 q 307 177 289 171 q 223 138 223 125 q 223 114 284 114 q 312 114 319 119 l 371 131 l 376 136 l 386 136 q 393 136 400 142 q 407 147 418 147 q 425 147 431 151 q 438 156 442 156 q 447 157 450 159 q 453 161 466 164 q 479 167 483 173 l 489 176 q 492 178 498 181 l 504 181 q 505 181 513 188 l 536 201 l 542 201 q 552 201 561 218 q 567 223 576 223 q 590 230 608 249 l 621 258 q 633 269 639 276 q 640 276 640 277 l 648 276 l 649 279 q 649 280 648 282 l 648 284 q 648 288 652 290 q 656 292 656 294 l 653 304 q 655 306 655 310 q 655 320 645 326 l 644 329 l 644 333 q 639 335 633 336 q 629 347 607 355 q 585 364 543 373 l 502 381 l 482 379 q 477 379 468 381 q 458 383 454 383 q 449 383 440 386 q 427 382 423 382 l 411 385 l 397 383 q 355 383 355 395 q 355 434 400 452 q 406 454 412 458 l 451 470 q 456 471 465 476 q 474 480 482 483 l 489 487 l 494 488 q 498 493 510 498 q 523 503 551 521 q 579 540 582 544 q 585 546 591 548 q 596 551 596 565 q 596 574 586 578 l 580 582 q 579 584 575 585 q 572 586 568 588 q 563 589 523 594 l 495 599 l 484 597 l 472 598 l 450 592 l 441 598 q 441 599 439 599 q 437 599 433 594 q 429 590 425 590 q 417 590 409 592 l 407 592 q 400 592 400 587 q 400 584 410 567 l 408 558 l 409 547 q 409 543 402 534 l 401 528 q 398 519 388 498 q 379 477 378 472 l 361 438 l 358 428 q 347 399 342 391 q 337 383 334 374 q 332 365 325 357 l 304 303 q 302 300 297 296 q 292 283 287 267 q 287 253 279 241 l 277 232 q 277 230 273 223 q 269 216 267 210 q 265 204 261 204 q 247 204 236 223 q 225 243 220 245 q 212 255 212 264 q 212 273 221 291 q 230 308 232 314 q 235 321 239 328 q 243 335 245 341 q 247 346 249 348 q 256 355 257 365 q 258 376 269 384 q 268 386 268 389 q 268 393 274 399 q 280 405 281 410 q 283 416 285 420 l 289 422 q 290 426 291 431 q 291 437 298 438 q 300 458 306 459 q 312 461 319 467 q 313 471 313 474 q 313 485 324 492 q 323 495 322 497 q 320 499 320 500 l 332 527 q 337 541 348 549 l 349 549 l 346 562 q 346 569 361 574 q 366 580 365 585 l 363 585 l 355 588 l 333 584 q 325 582 309 576 l 303 578 l 301 578 q 299 578 293 574 l 289 572 q 286 573 283 573 q 269 573 259 570 q 249 567 241 568 q 238 566 231 564 l 226 564 q 225 564 221 562 q 218 560 205 556 q 199 558 198 558 q 196 558 185 550 q 174 542 167 542 q 160 541 156 538 q 153 535 147 531 l 141 522 q 139 515 131 510 q 122 506 119 502 q 115 499 112 499 q 106 499 98 508 q 91 516 91 522 q 91 538 99 547 q 108 556 116 566 q 131 577 157 583 q 184 588 189 591 q 189 592 190 592 l 198 589 q 201 587 209 595 q 254 613 275 613 l 277 613 l 290 612 l 300 616 q 311 620 316 620 q 322 620 324 618 q 326 616 328 616 q 331 616 335 623 q 344 628 361 629 q 377 631 387 634 l 390 634 l 402 633 l 427 637 l 460 635 l 475 637 l 488 636 l 516 638 l 561 631 q 585 628 612 612 q 638 596 646 588 q 654 579 654 563 q 654 528 605 493 q 557 459 529 452 q 494 439 494 436 q 494 433 513 430 q 532 427 538 424 q 543 422 547 421 q 551 420 566 414 q 581 408 588 407 q 646 386 656 364 q 657 363 664 362 q 670 361 676 339 q 684 337 689 315 l 691 309 q 694 303 694 299 q 694 260 685 255 q 683 253 682 246 q 681 240 663 221 q 646 202 636 201 q 634 200 628 193 l 623 189 q 615 185 613 182 q 610 179 607 179 q 605 178 601 172 q 597 165 592 165 q 591 166 587 167 l 586 167 q 566 145 546 145 z"},"K":{"x_min":0,"x_max":702,"ha":702,"o":"m 343 496 l 351 504 q 359 535 376 540 l 379 543 q 373 549 373 553 q 373 555 375 560 l 377 570 q 378 575 384 587 q 391 599 393 627 l 393 630 q 393 640 383 664 l 383 666 q 383 675 389 684 q 395 693 401 693 q 438 693 445 679 q 452 666 458 660 q 471 651 471 622 q 471 604 464 598 q 457 592 455 585 q 452 579 447 573 q 442 568 442 567 l 444 557 q 444 546 436 543 l 436 540 l 441 540 q 446 540 449 543 q 452 546 463 549 q 474 552 479 555 q 483 559 487 561 q 490 562 495 565 l 524 581 q 540 589 554 595 q 568 601 576 609 l 593 614 l 601 613 q 603 613 607 620 q 612 627 615 627 l 621 626 q 629 630 632 630 l 638 631 l 651 642 l 661 643 q 675 655 692 654 q 694 655 700 660 q 705 665 712 665 q 713 665 720 669 l 728 674 q 732 679 737 680 l 749 684 q 754 687 756 687 l 762 685 q 777 697 784 697 q 812 697 812 671 q 812 648 793 629 l 763 611 q 762 610 750 608 q 738 606 702 588 l 695 589 q 690 584 685 584 l 679 585 q 669 580 662 579 q 656 577 645 571 q 635 565 621 562 q 608 558 599 553 q 591 548 586 548 l 581 548 q 577 548 547 534 q 538 531 535 530 q 531 529 517 524 l 495 511 q 493 511 476 502 l 467 502 q 465 502 449 491 q 448 491 446 490 l 445 490 l 438 491 q 436 491 431 487 q 426 482 417 479 q 409 477 408 473 l 400 458 q 396 450 391 448 q 387 445 384 431 l 356 374 l 350 371 q 352 363 352 362 q 350 359 346 349 q 342 340 339 336 q 336 333 330 319 q 371 293 374 295 l 376 293 l 376 290 q 376 285 382 283 q 388 281 392 278 q 395 276 407 276 l 419 264 l 425 265 q 429 265 436 260 q 444 255 453 251 q 462 247 466 244 q 470 240 479 238 q 489 235 489 234 q 489 225 512 222 q 527 215 529 210 q 531 206 538 204 q 546 201 554 196 l 567 191 q 569 189 570 186 q 572 182 583 179 q 594 176 596 171 q 598 167 604 163 l 613 165 q 637 153 643 147 q 646 146 654 144 q 662 141 665 136 q 668 132 677 129 q 702 121 707 88 q 703 78 696 67 q 686 63 682 61 q 678 59 664 55 l 660 52 q 660 51 658 51 q 636 51 630 73 q 629 76 625 79 q 621 74 619 74 q 613 74 607 78 q 601 83 592 91 q 583 100 570 108 q 557 117 550 122 q 530 143 494 158 q 491 160 486 165 q 481 170 461 180 q 441 190 423 215 l 419 217 q 411 223 405 229 q 399 235 388 237 q 378 243 371 250 q 320 284 312 288 q 312 265 305 265 l 300 266 q 298 266 294 251 l 294 244 l 288 223 q 282 202 272 200 l 272 193 q 262 177 260 169 q 258 160 253 150 q 248 139 244 124 q 240 109 226 76 l 226 75 l 229 67 l 229 63 q 229 59 225 48 q 230 38 230 37 q 230 34 228 29 q 225 24 223 20 q 221 15 205 10 q 202 11 196 17 q 179 19 171 33 q 171 34 167 41 q 164 48 164 54 q 164 55 161 66 q 157 76 157 81 q 157 110 172 132 l 173 138 q 174 144 179 153 l 186 168 l 187 175 q 188 182 192 187 q 195 192 205 214 l 209 220 q 214 232 216 234 q 217 235 217 238 l 218 243 q 221 246 221 250 q 223 251 228 255 q 232 269 240 285 l 255 318 q 257 321 257 322 q 257 325 183 377 q 175 383 175 393 q 175 409 208 425 q 211 426 229 438 q 247 449 255 449 q 258 449 281 463 q 304 476 306 477 q 308 477 310 479 q 311 480 317 482 q 323 485 333 490 q 343 496 343 496 z m 266 359 l 272 356 l 274 356 q 278 356 295 401 l 310 437 l 304 438 q 302 438 298 433 q 251 416 241 407 l 237 405 q 226 400 226 387 q 243 371 266 359 z"},"R":{"x_min":0,"x_max":674,"ha":674,"o":"m 232 556 l 231 551 q 229 542 217 534 q 205 526 193 526 q 162 526 162 555 q 162 565 178 580 q 194 595 220 601 q 247 607 259 613 q 270 618 294 621 q 298 617 302 617 q 308 617 311 622 q 313 626 322 624 l 324 624 l 350 631 l 358 628 q 360 628 363 630 q 365 632 369 633 l 377 633 l 386 635 q 397 638 399 639 l 407 638 q 417 638 438 643 q 459 648 470 648 q 481 649 486 650 q 491 651 492 651 q 495 651 500 648 q 504 645 506 645 q 508 645 533 651 l 536 651 l 558 646 q 567 651 570 651 q 580 651 587 644 l 596 648 l 601 647 q 604 647 610 648 l 614 648 q 617 648 621 647 q 622 646 623 646 q 628 646 631 647 l 637 647 l 658 642 l 667 643 q 668 643 673 640 l 678 641 q 683 638 696 632 q 698 633 703 634 l 704 634 q 705 634 714 628 l 728 621 l 732 623 q 746 616 746 615 l 750 607 q 756 604 763 599 q 765 594 769 588 l 769 584 q 769 583 777 577 q 784 571 784 568 q 784 567 783 561 l 783 560 q 783 559 787 554 q 790 548 790 541 l 789 534 l 790 528 l 785 495 q 781 490 779 486 q 778 481 772 479 q 766 476 762 469 q 759 461 752 458 q 745 456 739 450 q 733 444 725 444 l 673 428 l 667 430 q 658 416 641 416 q 637 416 622 413 l 612 410 l 604 411 l 586 408 q 578 406 574 404 q 570 402 564 402 l 551 395 q 550 394 548 394 q 544 394 543 395 l 536 397 q 532 396 529 394 q 526 391 523 391 l 517 396 l 508 388 q 502 387 492 384 q 486 387 484 387 l 467 380 l 457 383 l 456 380 q 449 380 442 375 q 435 370 430 370 q 427 370 423 374 q 421 374 419 376 q 414 373 412 369 q 409 365 401 362 l 389 365 q 389 364 380 360 q 371 356 370 354 l 365 347 q 362 339 360 333 q 358 328 355 325 q 352 322 350 314 q 347 306 341 297 l 340 291 q 337 287 331 282 l 320 261 q 315 254 315 251 q 315 244 328 237 l 380 193 l 388 188 l 389 188 l 387 179 q 391 177 392 177 q 395 177 395 181 l 398 181 q 399 181 403 177 l 408 174 q 412 170 421 163 q 430 155 430 152 l 429 148 l 432 148 q 434 150 435 150 q 437 150 446 144 l 452 141 q 472 127 476 122 q 480 117 488 111 q 496 105 501 97 l 557 55 q 627 2 636 -15 q 638 -18 646 -21 q 653 -24 667 -37 q 680 -51 683 -58 l 683 -75 q 683 -77 678 -80 l 672 -86 q 659 -99 650 -99 q 627 -99 616 -89 l 614 -88 l 609 -88 q 601 -88 600 -74 l 598 -68 q 574 -60 561 -43 l 533 -17 q 532 -16 517 2 q 502 20 490 27 q 479 35 472 43 q 466 52 455 59 q 444 66 432 84 q 419 101 418 102 q 396 114 397 128 q 394 130 383 132 q 377 138 375 139 q 374 139 373 140 l 374 148 q 359 152 354 159 q 348 166 338 177 q 328 188 321 194 q 314 200 313 204 q 313 207 304 212 q 301 206 297 203 q 293 199 291 195 l 289 192 q 282 185 282 177 q 275 171 273 156 l 251 106 l 247 88 l 244 57 q 243 44 233 44 l 223 43 q 219 45 205 47 q 190 48 181 75 q 180 78 176 85 q 171 92 171 97 q 171 101 174 110 l 176 121 q 176 124 188 149 l 214 198 l 227 217 q 229 221 232 232 q 235 243 241 250 q 247 258 247 261 q 247 267 238 273 q 229 279 228 284 l 226 289 q 200 304 200 323 q 200 333 226 349 q 252 364 261 366 q 270 368 279 373 l 287 375 l 294 381 q 300 383 308 385 q 317 386 323 405 q 329 423 334 426 q 344 446 347 456 q 348 458 353 465 q 357 472 362 489 q 367 505 369 505 q 371 505 377 507 l 372 520 q 372 522 376 526 q 369 534 369 546 q 369 565 396 565 q 401 565 416 556 q 430 548 431 544 q 432 540 438 531 q 443 523 443 517 q 443 498 437 492 q 430 486 423 466 l 410 429 l 408 420 l 406 416 l 418 419 q 422 430 451 431 l 482 441 l 491 441 l 521 449 q 523 449 535 451 l 538 451 l 544 452 q 546 451 548 448 l 550 448 q 555 448 556 455 q 556 461 570 461 q 572 461 573 458 q 575 456 577 456 q 578 461 585 464 q 591 466 594 466 l 602 465 q 601 466 601 468 q 601 472 631 477 q 639 480 644 484 q 649 489 675 497 l 704 506 q 722 512 729 541 q 728 542 720 554 q 720 555 713 555 q 711 557 706 560 q 701 562 695 569 l 689 567 q 682 571 673 573 q 664 575 654 583 q 650 581 649 581 q 648 581 638 586 l 625 592 l 617 592 l 614 593 q 611 596 609 596 l 604 595 q 602 594 599 594 l 591 594 q 590 594 583 599 l 567 599 l 558 597 q 556 597 552 601 l 543 599 l 534 603 l 521 601 q 517 604 515 604 l 476 600 q 474 600 473 602 q 471 604 468 605 q 465 606 461 609 q 451 603 441 603 l 426 605 l 423 604 l 421 604 q 420 604 412 606 q 412 604 411 603 l 404 605 l 377 600 l 376 600 l 371 601 q 369 601 365 600 q 362 598 360 598 l 349 599 l 341 597 l 329 598 l 319 591 l 317 591 q 315 591 312 593 q 310 594 309 594 l 302 593 l 296 594 q 294 594 288 585 q 288 584 286 584 l 285 584 l 278 586 q 276 586 270 579 q 261 576 252 572 q 245 562 240 560 z m 264 325 l 252 325 q 249 325 241 320 q 234 314 234 312 q 234 310 245 301 q 257 292 260 292 q 269 292 281 332 l 276 330 l 270 331 q 264 326 264 325 z"},"T":{"x_min":0,"x_max":492,"ha":492,"o":"m 216 597 l 224 604 l 234 603 q 242 603 248 607 q 254 612 258 612 q 261 613 266 617 q 271 622 281 623 q 291 625 295 629 q 300 634 305 635 q 311 636 318 639 l 363 653 q 364 653 368 651 l 370 651 q 376 651 382 656 q 387 660 395 660 q 400 660 414 666 l 417 663 q 425 672 430 672 l 433 672 q 434 672 442 670 q 454 674 462 674 l 473 675 q 474 675 476 674 q 480 678 487 679 l 492 679 l 512 684 l 518 682 q 524 687 536 687 l 541 687 l 546 686 q 547 686 555 689 q 563 692 594 692 l 607 690 q 619 695 620 695 l 634 692 l 639 694 l 641 694 q 642 694 646 692 l 647 692 l 682 697 q 683 697 686 696 q 690 699 692 699 l 701 697 q 705 697 715 702 l 718 699 l 751 703 l 763 702 l 774 704 q 790 704 798 696 q 806 687 806 678 l 808 663 l 805 655 l 804 645 q 802 639 797 637 q 797 636 792 635 q 788 634 784 631 q 779 628 755 628 q 743 628 739 635 q 736 643 732 644 l 711 653 q 710 654 705 654 l 701 654 l 681 652 q 680 652 676 653 q 669 650 669 650 l 633 652 l 618 651 l 608 653 q 606 653 601 651 q 596 650 581 649 q 565 648 565 639 q 565 634 569 627 q 573 621 573 617 q 566 607 566 604 q 564 603 559 598 q 554 593 541 582 q 528 572 523 563 q 518 554 511 554 q 502 546 499 539 l 495 535 q 494 534 494 531 q 494 528 491 525 l 487 513 q 483 512 467 488 l 461 485 l 455 478 l 448 478 q 444 478 444 472 l 446 458 q 438 452 434 441 l 428 431 q 418 421 418 420 q 418 417 408 399 l 407 394 q 407 386 373 346 q 368 337 367 318 q 353 289 347 290 q 346 271 341 260 q 336 248 328 225 q 320 203 311 193 l 309 189 q 307 185 304 181 q 303 168 295 139 l 292 118 l 282 91 q 281 88 281 85 q 281 83 284 77 q 287 72 287 67 q 287 60 285 56 q 282 52 282 45 q 282 30 266 25 l 262 25 l 252 24 q 231 24 215 43 q 198 63 198 97 q 198 99 201 112 q 204 125 205 129 q 205 133 207 137 q 209 141 209 149 q 209 173 221 190 q 233 208 237 216 q 238 219 240 220 q 239 224 239 230 q 239 244 251 253 q 252 257 254 262 q 257 267 265 287 q 272 307 285 310 q 285 311 291 318 l 289 335 q 289 339 298 348 l 306 362 q 308 370 319 377 q 322 382 325 383 q 326 385 329 395 q 333 405 345 421 q 357 436 368 453 q 379 469 388 470 q 397 470 398 480 l 401 498 q 415 510 418 515 l 425 523 q 427 530 430 532 q 433 534 438 541 q 443 548 450 553 q 457 573 479 588 l 487 596 q 495 608 500 612 q 506 616 509 623 q 511 630 519 633 q 527 637 527 641 q 527 643 523 643 q 519 643 510 640 l 506 640 l 497 638 l 494 638 l 486 640 q 477 637 472 637 q 471 636 466 633 l 455 633 l 449 627 l 445 626 l 432 628 q 426 628 418 622 q 418 621 402 619 q 386 616 372 610 q 358 603 355 603 l 346 605 l 345 605 q 339 605 333 599 q 328 592 318 591 l 312 591 q 305 591 292 585 q 280 579 279 579 l 270 580 q 264 576 260 575 q 256 573 252 570 q 248 567 244 565 q 240 564 235 560 q 230 556 227 556 l 225 556 l 219 557 q 216 557 210 551 q 205 545 200 543 q 196 542 192 539 q 188 536 183 535 q 181 533 176 524 q 172 516 165 510 q 158 504 156 500 q 154 497 152 497 q 128 497 128 527 l 138 548 q 148 573 169 578 q 174 578 197 589 z"},"P":{"x_min":0,"x_max":615,"ha":615,"o":"m 264 609 l 268 614 q 271 619 278 619 q 284 620 290 623 l 362 643 q 372 646 387 647 l 403 652 q 409 655 421 655 l 437 658 q 439 658 440 655 q 442 651 443 651 q 466 666 472 666 l 473 666 l 485 663 q 488 663 491 667 l 493 669 q 504 664 505 664 q 512 664 521 667 q 531 670 539 670 l 554 669 l 588 671 q 591 671 594 668 l 604 670 q 618 670 632 666 q 646 662 666 660 q 685 658 694 647 l 702 644 l 708 644 q 721 644 723 634 q 726 628 735 622 l 741 612 q 740 609 740 606 q 740 603 751 599 l 753 598 q 753 591 762 581 q 771 572 771 546 l 771 534 l 773 509 q 773 483 758 446 q 742 410 725 395 q 721 382 716 382 q 699 366 694 366 q 693 366 691 367 q 685 355 670 347 q 655 338 650 336 q 646 335 628 328 l 616 331 q 609 324 606 324 l 580 313 q 547 304 537 304 l 525 308 q 522 308 516 301 l 507 299 q 504 302 488 303 q 481 299 477 299 l 455 296 q 451 296 450 303 l 446 302 l 444 295 q 442 294 439 294 l 413 297 l 401 294 l 381 298 l 371 297 l 363 301 l 355 300 l 347 302 l 338 300 l 336 301 q 334 297 331 294 q 328 292 323 284 q 312 275 309 262 q 306 249 292 247 q 291 245 289 242 q 290 241 292 234 l 292 232 q 292 220 273 208 q 270 190 266 183 q 262 175 260 170 q 259 165 252 161 l 250 158 l 250 144 q 250 143 247 138 q 244 133 239 123 l 236 118 l 232 102 q 222 95 222 83 l 223 55 q 223 48 214 40 q 204 32 195 32 q 171 32 162 61 l 159 65 q 149 73 149 90 q 149 109 169 147 l 201 205 q 202 206 214 214 l 219 212 q 221 213 221 216 q 221 217 216 230 l 216 232 q 216 236 219 237 l 223 241 l 222 251 q 231 264 231 268 l 236 279 q 241 291 244 291 q 244 311 256 320 l 260 328 q 261 331 266 332 q 271 332 271 333 q 271 335 270 338 q 268 341 268 343 q 268 348 274 355 q 279 363 282 363 l 289 359 l 289 362 q 284 366 284 369 q 284 373 289 380 q 293 386 294 389 l 298 394 q 299 394 303 408 q 307 421 314 421 l 314 426 q 314 431 325 449 l 351 495 q 352 500 359 512 l 358 524 q 358 532 367 548 q 376 565 382 565 q 385 565 386 564 q 387 563 388 563 l 396 564 l 412 550 q 418 544 419 531 l 421 528 q 433 505 433 496 q 433 484 431 478 q 429 472 416 464 q 404 450 401 439 q 398 429 391 419 q 384 410 378 392 q 373 374 360 365 q 358 352 356 343 l 356 342 q 356 339 360 339 l 376 341 q 379 341 383 339 q 387 338 391 338 q 395 338 401 342 l 404 342 q 406 342 416 337 l 418 338 q 421 343 424 343 l 443 341 l 452 342 q 459 346 473 347 q 488 347 493 350 q 499 352 503 353 q 508 353 515 356 q 522 360 527 360 q 538 360 558 370 q 565 368 566 368 q 575 368 581 376 q 587 384 594 385 l 624 398 q 628 399 641 414 l 650 420 l 656 428 q 656 429 665 434 q 663 435 662 437 l 673 449 q 672 454 672 455 l 672 457 q 677 464 682 468 q 687 471 687 472 l 682 478 q 689 485 689 487 l 687 501 l 689 526 q 689 545 687 551 q 684 556 683 562 q 674 580 657 592 q 656 593 656 595 l 655 600 l 655 602 l 639 600 q 638 600 636 605 q 634 610 629 610 l 622 607 l 621 607 q 618 607 604 616 q 601 617 592 617 l 585 620 q 582 622 580 622 l 577 622 l 566 620 l 541 622 l 526 625 q 518 619 515 619 q 513 619 506 622 l 505 622 l 490 620 q 483 619 479 618 l 476 618 q 460 618 451 621 l 448 621 q 443 621 439 617 q 436 614 433 614 q 431 614 428 620 q 422 615 419 614 l 410 617 q 408 613 380 609 l 357 604 l 353 605 q 342 601 334 600 q 327 598 322 595 q 316 593 310 592 q 303 591 291 587 l 283 589 q 274 583 256 576 q 239 569 234 564 q 230 560 226 560 q 225 560 220 561 l 219 561 q 215 561 205 551 q 195 541 188 537 q 180 532 175 523 q 169 513 149 509 q 148 508 147 506 l 147 498 q 139 494 133 481 l 130 476 l 129 467 q 129 452 125 451 q 121 450 117 447 q 113 444 109 444 q 101 444 93 458 q 86 473 86 476 q 86 505 105 519 l 141 545 q 159 558 172 558 q 176 560 180 567 q 185 575 200 578 l 208 575 q 209 575 211 579 q 213 583 217 585 q 221 588 224 592 l 237 600 q 238 600 239 601 l 246 599 q 247 599 249 600 q 251 601 256 601 q 258 601 259 606 q 261 608 264 609 z"},"|":{"x_min":0,"x_max":500,"ha":500,"o":"m 225 667 l 275 667 l 275 -167 l 225 -167 z"},"t":{"x_min":0,"x_max":277,"ha":277,"o":"m 142 480 l 149 482 l 154 487 l 155 487 l 159 485 l 160 485 q 172 485 181 490 q 190 494 196 496 q 202 498 204 499 q 205 500 206 500 l 214 499 q 218 499 224 513 q 231 527 239 533 q 248 540 256 557 q 258 560 260 565 q 263 570 264 570 q 271 570 276 579 q 291 596 300 596 q 312 596 317 573 l 322 554 q 322 554 319 547 q 317 541 317 534 q 317 527 317 525 q 316 523 316 520 q 316 516 324 516 q 327 516 335 520 l 338 521 q 343 518 346 518 q 347 518 360 523 q 373 528 376 528 q 380 529 388 532 l 394 532 l 398 531 q 400 531 406 535 q 412 539 429 540 l 436 543 l 438 543 q 454 543 454 529 q 454 526 449 519 q 445 511 442 502 l 419 474 q 408 459 397 459 q 395 459 385 472 q 385 473 383 473 q 378 473 373 471 q 367 469 364 469 q 362 469 338 462 l 326 460 q 324 460 317 458 l 292 453 q 279 447 272 429 q 272 428 267 425 l 245 385 q 234 382 231 372 l 229 369 q 224 368 219 363 q 215 358 211 355 l 202 342 q 197 335 191 327 q 186 319 184 310 q 181 301 180 299 q 178 298 178 294 l 177 290 q 171 284 171 277 l 173 269 q 166 246 166 244 q 166 243 167 239 l 167 236 q 167 225 159 209 l 160 201 l 157 179 q 157 175 160 163 q 158 161 158 160 q 158 146 173 130 q 187 114 187 79 q 187 76 186 71 q 184 65 184 58 q 183 52 176 45 q 169 39 164 39 q 138 39 125 77 q 113 114 113 125 l 114 144 l 111 154 l 114 197 l 112 207 l 123 249 l 123 264 q 123 265 130 272 q 130 273 128 273 q 125 273 120 267 q 115 261 108 256 l 104 249 q 103 250 100 251 q 98 250 84 228 q 74 227 68 216 q 62 206 52 206 l 50 205 q 48 191 36 191 l 34 190 q 27 173 19 174 q 14 159 -5 154 q -8 148 -13 145 q -19 142 -21 140 q -24 137 -26 137 q -32 137 -32 151 q -32 155 -29 159 q -26 164 -26 166 q -26 167 -31 172 q -31 187 -23 191 q -15 195 -11 202 q -9 208 -1 210 q 6 213 6 217 q 6 220 19 230 q 31 241 37 248 q 43 256 47 256 l 49 258 q 50 270 58 270 l 63 273 l 64 277 l 67 279 l 71 279 l 73 281 q 74 293 85 300 q 95 307 123 338 q 151 370 154 378 q 158 387 167 402 q 176 417 177 430 q 176 432 174 434 l 153 424 q 153 425 143 428 q 136 424 132 419 q 129 415 127 415 l 120 416 l 99 414 q 70 411 55 402 l 35 396 l 31 396 q 27 396 19 391 l 8 392 q -8 384 -15 384 q -16 384 -21 385 l -71 371 q -77 369 -97 351 l -101 350 q -106 350 -113 361 q -119 372 -119 381 q -119 429 -36 437 l -16 445 l -15 445 l -10 443 l -8 443 q -5 443 1 447 q 8 450 30 456 l 50 461 l 56 460 q 61 460 67 464 q 73 468 86 469 q 98 471 103 473 l 111 475 q 113 475 119 479 q 125 482 135 482 q 136 482 142 480 z"},"M":{"x_min":0,"x_max":920,"ha":920,"o":"m 186 448 l 189 449 l 202 449 q 208 449 219 463 q 220 464 245 472 l 247 474 q 254 480 257 482 l 266 482 q 267 482 274 487 q 281 491 303 497 q 325 503 332 507 q 335 508 354 510 l 367 512 l 378 511 q 404 511 415 477 q 415 475 417 471 q 420 467 420 465 q 420 444 400 422 l 393 404 q 393 403 388 396 q 383 390 379 382 q 375 373 358 356 q 355 350 350 338 q 344 325 341 321 q 337 317 322 292 q 306 267 306 262 q 299 257 296 244 q 293 231 286 220 l 285 217 q 301 222 301 234 q 301 235 309 241 l 313 248 q 319 255 323 256 q 324 260 333 267 q 343 275 346 278 q 349 281 356 284 q 364 287 373 308 q 374 312 381 314 q 387 317 392 323 q 396 328 399 330 l 403 336 q 408 341 410 342 l 434 371 q 453 383 455 390 l 459 391 l 462 391 q 470 397 472 400 q 472 415 483 419 q 494 424 499 430 q 504 437 510 437 q 511 437 515 434 l 516 434 q 518 434 519 439 l 519 444 q 519 452 524 458 q 529 463 537 465 q 545 466 553 477 q 561 488 571 488 q 581 489 584 496 q 588 503 605 512 q 623 521 627 521 q 632 522 635 524 q 639 526 643 526 q 648 526 657 523 l 666 521 q 677 516 687 503 l 692 498 l 692 496 l 693 488 l 693 484 q 699 481 699 478 l 696 472 q 694 468 694 464 q 694 459 693 454 q 693 450 692 446 q 691 441 690 438 q 689 434 688 431 q 686 428 684 425 l 680 409 q 678 400 670 387 q 661 374 660 369 q 658 364 653 355 l 654 352 l 654 345 q 669 347 669 357 q 669 367 681 372 l 692 381 q 705 403 723 410 q 723 418 732 426 l 751 444 l 764 451 q 773 469 784 473 l 795 480 q 805 485 806 490 q 807 494 813 499 q 820 504 832 515 l 836 517 l 841 522 q 846 525 853 527 l 857 529 q 869 538 879 541 q 889 544 901 552 l 918 554 q 924 556 926 556 q 972 556 972 504 l 971 496 l 972 468 q 960 448 960 447 l 961 438 q 961 436 955 427 q 948 417 947 415 q 946 413 938 405 l 933 390 q 931 385 925 381 l 925 375 q 925 368 906 353 q 903 340 897 334 q 891 328 888 322 q 885 315 878 309 q 878 303 870 288 q 861 272 857 268 q 852 264 847 254 l 843 252 q 840 233 836 231 l 828 232 l 828 230 q 828 229 830 227 q 832 224 832 221 q 832 218 829 215 q 826 213 826 210 q 825 208 823 206 q 822 203 821 196 q 821 189 814 177 q 807 165 807 160 q 806 156 805 153 q 804 150 804 147 q 804 144 802 132 q 811 110 815 102 q 819 94 819 92 q 819 72 814 66 q 809 59 790 59 q 778 59 769 68 q 760 76 753 76 l 753 85 l 752 86 l 744 86 q 743 87 740 89 q 737 92 734 96 l 731 99 q 727 104 724 115 l 721 125 l 722 133 l 721 145 q 721 150 722 153 l 723 166 q 723 168 725 175 q 727 181 728 190 q 728 199 732 204 q 736 209 736 212 q 737 216 739 218 q 741 220 743 229 q 744 238 753 243 q 758 252 761 260 q 771 274 772 274 l 779 274 q 774 280 774 281 q 774 294 784 294 q 786 294 789 293 l 791 297 l 789 305 q 789 313 802 322 q 802 336 815 347 l 814 355 q 817 358 822 368 q 828 378 836 388 l 851 411 l 858 419 q 858 418 858 419 q 858 419 859 421 q 860 422 861 426 l 864 433 l 867 437 q 880 440 880 446 q 880 447 876 452 l 876 454 q 876 458 882 464 q 888 470 893 480 q 898 491 898 493 q 898 495 896 495 q 880 495 875 484 q 875 481 856 472 l 851 465 q 845 459 841 459 q 836 459 829 454 q 822 448 798 428 q 774 409 763 396 l 752 388 q 745 385 745 383 q 745 378 737 370 l 731 363 q 724 365 723 365 q 718 365 714 360 q 718 356 718 355 q 718 347 703 339 l 682 317 q 681 316 675 312 q 668 307 665 301 q 662 294 648 278 q 634 261 631 260 q 629 259 625 253 q 622 248 611 238 q 601 229 599 217 q 590 213 590 211 l 587 206 l 583 204 q 582 202 582 198 q 581 193 562 181 q 543 169 538 169 q 537 169 534 167 q 531 165 530 165 q 528 165 517 171 q 505 177 500 198 l 504 211 l 502 221 q 502 224 507 229 q 511 234 511 241 q 519 259 523 266 l 524 274 q 526 279 531 285 q 535 291 536 299 q 537 306 542 308 q 548 310 582 367 l 582 374 l 596 398 q 603 409 612 423 l 616 434 q 601 440 600 440 q 597 440 593 436 q 593 428 564 419 q 558 416 549 405 l 535 397 q 532 395 526 389 l 519 383 q 507 380 498 369 l 485 360 q 479 355 477 353 q 475 350 459 342 l 451 334 l 444 330 q 436 322 432 316 q 428 310 422 309 l 411 305 q 408 292 393 281 l 379 263 q 375 260 372 258 q 370 253 365 251 q 359 243 357 240 l 351 236 q 338 231 338 228 l 339 219 q 339 214 327 209 q 322 207 322 201 q 321 196 318 190 l 309 190 q 308 190 300 185 q 299 185 298 184 l 300 173 q 300 167 292 159 q 284 152 280 146 q 276 140 274 140 l 271 140 l 268 138 q 269 129 256 118 l 250 111 q 247 108 233 86 q 220 64 208 51 q 195 37 185 32 q 175 28 163 23 l 143 27 q 140 32 135 36 q 129 39 129 43 l 123 60 q 123 67 128 77 q 134 87 135 93 q 136 98 141 108 q 145 117 145 118 q 145 131 149 135 q 153 138 168 149 q 169 149 169 151 l 169 152 l 168 160 q 179 179 182 179 q 183 179 186 178 l 183 189 q 183 191 188 195 q 194 200 197 205 l 195 211 l 195 213 q 195 222 207 232 q 209 236 215 252 l 228 274 q 232 284 238 287 q 243 290 244 294 q 244 299 247 304 q 247 302 248 304 q 249 306 250 313 q 252 321 261 325 q 272 354 279 354 q 281 354 284 352 l 286 352 q 294 352 294 358 q 294 360 292 360 q 288 355 284 355 q 281 355 281 357 q 281 358 282 359 l 293 381 l 294 390 q 296 393 302 399 l 310 410 l 310 415 q 310 416 314 425 q 319 434 321 443 l 329 455 q 331 461 331 466 q 331 473 329 473 l 301 468 q 278 456 268 449 l 257 447 q 256 447 244 440 q 232 434 223 433 q 214 432 207 426 l 205 425 l 196 425 q 190 418 188 415 q 187 412 185 412 q 136 379 123 373 q 109 366 103 360 q 96 354 91 352 l 91 346 q 91 338 79 327 q 67 317 58 317 q 55 317 49 320 q 43 323 35 324 q 28 325 28 343 q 28 368 69 388 q 75 391 81 395 q 86 399 124 414 l 138 421 q 143 426 155 430 q 166 434 173 437 q 179 440 183 441 z m 644 330 l 649 339 l 649 340 q 649 341 647 341 q 642 341 639 331 q 640 328 641 328 q 643 328 644 330 z"},"g":{"x_min":0,"x_max":364,"ha":364,"o":"m -23 -257 l -31 -262 q -36 -265 -41 -265 q -53 -265 -65 -249 q -76 -233 -76 -216 q -76 -185 -70 -172 q -64 -159 -63 -153 q -63 -152 -52 -129 q -42 -105 -33 -93 q -23 -81 -17 -70 l -15 -66 q -8 -54 -1 -50 q -1 -47 18 -30 q 37 -12 53 0 l 58 7 q 70 14 72 14 l 100 22 q 104 26 119 37 l 123 37 l 136 41 q 147 46 170 50 q 192 54 196 60 q 199 65 201 70 q 203 75 212 91 q 214 99 215 104 q 217 109 219 110 q 220 111 224 119 q 228 128 232 134 q 233 134 233 135 l 230 143 q 234 155 238 157 q 242 160 242 161 l 239 170 l 247 188 q 247 190 245 190 q 219 172 215 172 q 212 168 204 160 q 196 157 193 150 l 189 149 l 186 144 q 186 143 183 142 q 179 140 169 134 l 163 135 q 161 135 158 125 q 150 115 142 113 q 135 111 133 108 l 129 103 l 124 104 q 114 104 114 96 q 114 92 108 86 q 104 86 98 83 l 91 83 q 86 72 73 70 l 59 60 l 51 57 q 45 54 39 50 q 33 46 19 45 q 12 49 -2 52 q -16 56 -22 100 l -23 100 q -27 100 -31 97 q -36 94 -38 94 q -50 94 -50 104 q -50 126 -33 133 l -21 148 l 10 179 q 43 211 54 221 q 65 230 79 239 l 104 255 q 116 264 119 264 q 122 265 125 268 q 128 270 143 275 l 152 279 q 179 288 187 288 l 194 287 q 199 287 204 291 q 211 291 225 302 l 243 307 q 250 309 255 309 l 264 309 q 274 309 278 293 q 281 277 283 277 q 284 277 289 284 l 296 289 q 303 294 305 294 q 317 294 320 284 l 320 283 l 322 281 q 326 257 326 252 q 326 229 316 215 q 306 202 304 197 q 294 157 285 137 q 282 132 273 109 l 268 104 q 266 103 266 101 l 267 94 q 259 81 259 73 q 259 69 251 55 q 252 54 260 50 q 267 46 277 34 q 286 23 286 17 q 286 16 281 -2 q 263 -15 251 -15 q 246 -15 237 -9 l 234 -10 l 234 -8 q 228 -6 224 -4 q 220 -2 217 -2 q 213 -2 213 -6 q 213 -8 214 -10 q 211 -12 206 -17 q 206 -19 199 -31 q 192 -44 187 -49 q 176 -49 172 -65 q 168 -81 163 -85 l 158 -83 q 142 -116 125 -131 q 115 -133 115 -135 q 114 -136 114 -141 q 113 -146 102 -157 q 91 -168 89 -168 l 84 -169 l 81 -172 q 82 -182 55 -203 q 41 -211 40 -214 q 36 -223 11 -236 l 2 -244 q -4 -250 -11 -252 z m 145 150 l 151 158 q 154 162 161 164 q 168 166 172 172 q 184 189 200 197 l 205 200 q 212 214 218 216 q 224 217 229 224 q 233 232 233 237 q 233 239 230 239 q 223 239 218 235 q 213 231 211 231 l 201 232 q 192 227 177 220 l 168 213 q 162 209 157 208 q 153 207 150 202 q 148 197 144 197 l 140 195 q 138 193 129 193 q 124 190 119 185 q 114 179 113 179 q 102 167 94 164 q 85 161 83 156 q 74 153 67 145 q 61 136 56 133 q 51 130 47 125 l 42 121 q 39 119 34 108 q 29 97 29 93 q 29 90 32 90 q 37 90 51 97 q 64 104 68 108 q 72 112 73 112 l 92 111 q 95 117 102 119 q 109 121 113 127 q 117 134 135 141 l 140 150 z m 154 -6 l 139 -8 q 134 -4 131 -4 q 129 -4 128 -7 q 122 -15 102 -20 q 82 -25 75 -31 q 68 -37 63 -37 q 58 -38 58 -39 q 53 -43 51 -46 q 46 -48 41 -52 q 36 -56 31 -57 q 22 -76 18 -76 q 17 -76 13 -75 l 12 -75 q 6 -88 2 -90 q -1 -92 -3 -95 q -6 -99 -13 -104 q -20 -108 -22 -118 q -25 -129 -29 -133 q -32 -136 -33 -149 l -36 -156 q -38 -159 -40 -173 q -43 -187 -43 -187 q -43 -194 -37 -199 q -35 -197 -29 -196 l 0 -184 q 1 -183 11 -175 q 20 -167 27 -165 q 34 -162 40 -156 q 44 -150 50 -146 q 55 -142 56 -136 q 67 -126 77 -118 q 86 -109 89 -104 q 91 -98 97 -94 l 99 -88 q 100 -87 103 -87 q 106 -86 114 -71 l 127 -49 q 139 -37 146 -19 l 153 -13 q 155 -12 155 -9 z"},"j":{"x_min":0,"x_max":247,"ha":247,"o":"m 195 534 q 209 534 223 521 q 237 508 237 495 q 237 493 234 490 q 231 486 227 475 q 222 464 203 464 q 185 464 176 482 q 167 500 167 505 q 167 507 168 511 q 169 515 169 523 q 170 531 179 531 l 190 533 q 191 534 195 534 z m 86 151 l 86 153 q 86 156 89 160 l 100 185 q 101 189 103 191 q 104 193 104 200 l 108 213 q 109 215 109 222 l 114 240 l 113 250 q 94 239 83 230 l 73 225 q 71 223 66 213 l 57 207 q 48 198 48 196 q 48 191 36 186 q 24 181 23 171 l 23 169 q 18 164 13 164 q 6 164 -1 172 q -9 179 -9 185 q -9 202 -5 206 q -1 209 3 215 q 7 220 21 227 q 33 242 40 245 q 47 249 59 264 q 87 285 104 294 q 105 294 112 303 q 120 312 141 325 l 147 332 q 151 337 160 337 q 173 337 184 323 q 196 308 196 293 q 196 284 191 277 l 188 268 q 186 254 182 246 q 178 225 177 209 q 170 199 164 172 l 157 150 q 157 138 152 128 q 146 117 144 100 l 140 94 l 139 86 q 139 83 138 82 q 136 81 133 72 q 130 63 127 58 q 122 50 122 28 l 123 25 q 119 24 114 12 q 108 0 108 -2 q 108 -5 110 -5 l 130 1 q 140 3 145 3 q 150 4 154 5 q 158 7 179 10 q 200 14 208 14 l 218 13 l 242 17 q 244 18 249 18 q 276 18 292 3 q 307 -12 307 -33 q 307 -58 280 -60 l 277 -60 l 270 -61 q 263 -61 257 -47 q 251 -33 244 -33 l 237 -34 q 230 -31 226 -31 q 221 -31 217 -28 q 213 -25 205 -23 q 197 -21 184 -16 q 168 -20 163 -20 l 157 -20 l 134 -27 l 130 -27 l 121 -24 q 114 -30 95 -37 q 92 -40 91 -48 q 90 -56 85 -62 l 83 -69 q 81 -73 77 -76 q 73 -78 73 -80 q 73 -81 75 -88 l 75 -90 q 75 -91 74 -93 l 73 -98 l 73 -103 q 73 -105 69 -109 q 64 -113 59 -123 l 57 -125 q 55 -127 55 -129 l 56 -146 q 56 -153 48 -155 q 42 -168 41 -174 q 40 -180 36 -184 l 18 -216 q 18 -221 14 -231 q 10 -240 10 -244 q 7 -247 4 -249 q -2 -271 -4 -272 q -7 -274 -10 -286 q -19 -292 -21 -303 q -24 -314 -36 -323 q -48 -353 -76 -382 q -104 -410 -117 -410 q -119 -410 -123 -407 q -132 -407 -137 -399 q -141 -391 -145 -387 q -149 -384 -150 -380 q -151 -376 -155 -371 q -158 -365 -158 -360 l -160 -337 l -159 -299 q -158 -298 -156 -291 q -145 -247 -141 -242 q -138 -238 -137 -229 q -133 -223 -127 -211 q -122 -199 -122 -192 q -121 -185 -114 -180 q -109 -166 -100 -158 l -95 -150 q -85 -135 -75 -133 q -62 -105 -33 -77 q -5 -48 9 -44 q 12 -38 17 -34 q 22 -31 28 -25 l 37 -17 q 46 11 50 21 q 55 30 57 44 q 60 59 65 69 l 66 78 q 66 79 71 86 q 76 94 80 119 q 80 124 84 131 q 88 137 88 139 z m -80 -309 l -78 -309 q -74 -309 -71 -307 l -75 -297 q -75 -290 -68 -279 q -60 -267 -53 -252 q -46 -237 -38 -233 l -42 -226 q -38 -214 -37 -208 l 6 -101 q 16 -79 15 -72 q 3 -81 -4 -91 q -4 -92 -15 -102 q -27 -111 -36 -116 l -59 -148 q -64 -156 -69 -158 q -85 -188 -89 -197 q -93 -207 -96 -210 l -101 -222 l -107 -232 l -108 -244 q -112 -254 -115 -258 q -117 -261 -118 -263 l -116 -285 q -125 -297 -125 -305 l -122 -326 q -120 -338 -116 -338 q -114 -338 -108 -332 q -103 -326 -98 -325 q -93 -323 -88 -321 q -85 -313 -80 -309 z"},"i":{"x_min":0,"x_max":301,"ha":301,"o":"m 209 452 l 206 471 l 206 474 q 206 497 222 500 q 225 500 242 506 q 251 504 260 490 q 270 477 270 467 q 270 466 269 462 q 267 459 267 449 q 266 440 257 433 q 248 426 238 426 q 231 426 220 435 q 210 445 209 452 z m -2 208 l 6 215 l 9 215 q 12 215 19 222 l 24 224 q 34 239 41 241 l 49 247 q 51 249 54 250 q 58 252 66 260 q 74 268 79 268 q 84 268 87 267 q 90 273 99 279 q 107 284 113 292 l 119 295 q 127 299 133 305 q 139 311 149 311 q 163 311 178 297 q 194 282 194 269 l 186 231 q 177 189 167 187 l 165 177 q 158 172 158 169 l 161 157 q 161 155 156 150 q 155 150 155 147 l 155 127 q 155 122 148 118 q 149 117 151 116 q 154 119 164 119 l 172 118 l 183 129 q 186 130 192 134 q 198 137 213 143 l 277 192 q 290 205 297 205 q 304 205 304 196 q 304 185 300 178 q 296 171 292 161 q 289 151 284 147 q 280 143 277 138 q 274 134 261 125 q 248 116 239 107 q 230 98 224 94 l 203 79 l 200 74 q 199 73 191 70 q 183 67 177 62 l 168 57 q 165 55 158 55 q 152 54 147 49 q 142 44 139 44 l 132 45 l 122 42 q 114 42 102 52 q 90 62 90 73 l 90 76 l 91 83 q 91 85 88 93 q 85 101 85 102 l 86 109 l 85 112 q 85 125 87 128 q 89 132 90 138 q 91 144 92 148 l 94 160 q 96 166 99 168 q 100 172 103 181 l 105 190 l 110 197 q 114 201 115 207 q 115 214 120 221 q 124 229 124 230 q 124 236 118 236 q 116 236 106 228 l 97 231 q 96 231 92 226 q 92 224 87 223 q 83 222 79 216 l 75 215 l 69 218 l 67 218 q 62 218 61 207 q 56 199 47 197 l 36 194 q 31 192 28 185 q 26 178 19 173 q 11 167 9 167 q -5 167 -5 182 l -1 205 z"},"y":{"x_min":0,"x_max":456,"ha":456,"o":"m 366 157 l 366 152 l 367 148 l 367 146 q 367 145 365 135 q 358 127 357 113 l 351 104 q 351 97 346 93 q 342 89 338 78 q 335 66 330 53 l 319 25 q 319 23 321 23 q 322 23 324 24 q 326 25 328 25 q 330 25 332 24 q 334 23 335 23 q 336 23 342 26 q 348 30 356 31 l 374 35 q 380 37 398 37 l 413 38 q 431 38 449 29 q 468 20 472 9 q 477 -1 477 -24 q 477 -42 465 -42 q 458 -42 446 -33 q 435 -23 430 -9 q 426 5 416 5 l 404 9 l 397 7 l 395 7 q 393 7 386 10 l 385 10 l 370 6 l 350 6 l 341 1 q 334 -1 326 -2 q 318 -3 312 -6 q 305 -9 305 -11 q 305 -26 292 -37 q 287 -45 287 -50 q 286 -54 281 -60 q 276 -65 270 -77 l 266 -84 q 264 -87 264 -89 q 264 -90 265 -93 l 265 -97 q 265 -111 249 -123 l 249 -128 q 249 -132 241 -139 l 243 -149 q 243 -151 238 -157 q 232 -163 229 -171 q 225 -178 215 -184 l 215 -187 l 218 -193 q 219 -193 219 -195 q 219 -198 212 -205 q 210 -213 205 -220 l 185 -247 q 180 -254 180 -258 l 177 -267 q 171 -271 169 -276 q 167 -281 156 -294 q 146 -308 142 -308 q 145 -314 145 -315 q 145 -321 137 -329 q 125 -329 125 -334 l 127 -344 q 127 -346 122 -350 q 116 -354 113 -354 l 106 -354 l 108 -363 q 106 -368 102 -370 q 98 -372 89 -382 q 80 -391 76 -393 l 70 -397 l 51 -399 q 43 -396 21 -383 q -1 -369 -5 -357 q -8 -345 -8 -323 q -8 -321 -3 -315 l -2 -311 l -2 -302 q -2 -301 3 -284 q 8 -268 11 -266 q 15 -265 22 -247 q 29 -229 33 -224 l 78 -158 q 78 -152 80 -150 l 83 -150 q 87 -150 88 -147 q 90 -145 93 -141 q 93 -132 101 -126 q 110 -120 114 -113 q 117 -106 122 -100 l 123 -97 q 125 -95 132 -93 q 138 -90 139 -85 l 156 -69 q 158 -67 164 -64 q 169 -61 175 -53 l 178 -52 l 181 -52 l 183 -51 q 189 -38 195 -37 q 201 -36 203 -34 q 203 -19 220 -19 q 224 -19 226 -17 l 238 -8 q 240 -6 247 11 l 247 12 l 256 10 l 257 12 l 255 23 q 256 25 261 36 q 265 48 269 50 q 273 52 273 54 l 273 60 l 272 66 l 274 70 l 274 76 l 275 78 q 277 81 281 96 q 283 98 286 100 l 308 162 q 309 165 311 175 l 315 180 q 321 196 321 200 q 321 202 319 202 q 317 202 310 197 q 303 191 300 191 l 292 193 l 290 193 q 287 193 282 188 q 277 183 276 183 l 270 182 q 265 174 261 173 l 249 165 l 248 165 l 241 170 q 241 171 239 171 q 237 171 233 159 l 218 152 q 213 153 212 153 q 207 153 203 144 q 198 135 191 134 q 187 129 173 127 l 144 107 q 139 105 137 102 q 127 101 118 91 l 105 92 q 100 92 95 85 q 91 79 86 79 l 83 79 l 77 80 l 61 76 q 54 76 40 87 q 26 97 26 105 l 23 127 q 23 128 27 134 q 31 140 31 142 q 31 143 30 146 l 30 150 q 30 167 42 191 l 42 193 q 42 195 39 195 q 33 195 28 184 q 24 174 18 169 q 12 165 10 162 q 7 159 5 159 q 2 161 -2 162 q -3 163 -5 168 q -8 173 -13 176 q -18 179 -18 187 q -18 192 -4 201 l 2 207 q 24 229 32 231 l 35 238 q 42 243 52 253 q 62 262 70 266 l 96 289 q 108 300 128 300 q 144 300 144 280 q 144 260 137 249 q 130 238 128 229 q 126 220 115 205 q 104 190 102 183 q 99 176 92 163 q 84 151 84 141 q 84 136 90 136 q 98 136 111 145 l 115 147 q 120 149 125 152 l 137 157 q 141 165 148 167 l 157 172 q 164 175 174 179 q 184 184 187 188 q 190 193 195 196 q 199 198 205 204 q 218 204 240 226 q 263 239 282 252 q 302 265 308 271 q 311 273 319 276 q 326 280 336 287 q 345 295 360 295 q 373 295 384 285 q 396 276 396 267 l 395 243 q 395 221 383 205 q 380 186 376 178 l 377 167 q 377 164 366 157 z m 135 -217 l 137 -210 q 138 -207 144 -203 q 149 -182 157 -176 q 157 -165 158 -164 l 165 -157 l 184 -125 q 187 -118 190 -112 q 194 -106 196 -100 q 196 -93 212 -73 l 212 -70 q 212 -63 209 -63 q 206 -66 199 -70 l 168 -96 q 166 -98 155 -112 l 146 -122 q 138 -130 134 -132 q 129 -134 123 -146 q 117 -158 113 -158 l 111 -158 q 110 -158 106 -156 q 103 -157 103 -160 l 106 -172 q 106 -174 102 -178 q 98 -182 95 -187 q 93 -192 90 -193 q 87 -194 79 -211 l 70 -216 q 68 -245 52 -262 q 48 -270 45 -278 q 43 -285 41 -287 q 38 -305 31 -308 q 29 -309 29 -311 q 29 -314 33 -317 l 35 -319 q 29 -338 29 -347 q 29 -349 31 -349 l 45 -342 q 61 -334 66 -323 l 74 -308 q 76 -305 81 -304 q 84 -294 91 -291 q 97 -288 97 -283 q 97 -278 115 -250 q 134 -221 135 -217 z"},"@":{"x_min":0,"x_max":729,"ha":729,"o":"m 712 264 l 712 262 q 712 258 701 250 q 691 242 687 237 l 685 235 q 666 232 659 222 q 646 216 638 216 q 633 211 625 210 l 608 207 q 595 207 590 209 q 585 212 572 216 q 559 219 550 235 q 542 251 542 255 q 542 259 543 261 l 543 267 q 543 273 540 277 l 541 284 l 540 301 l 542 309 q 543 310 543 313 q 543 318 542 321 q 538 319 533 315 q 528 311 523 310 q 518 309 518 304 q 517 300 511 293 q 509 293 501 284 q 493 275 485 272 q 476 270 465 257 q 454 245 411 213 q 369 182 349 182 q 346 182 338 183 l 331 183 q 329 183 313 191 q 298 198 296 207 q 294 215 290 224 q 286 234 286 236 l 288 259 l 287 271 q 287 275 292 279 l 295 283 l 295 294 q 304 307 307 313 q 310 319 314 323 q 319 328 322 333 q 324 338 328 342 q 332 345 337 353 q 343 361 350 366 q 357 371 371 387 q 375 392 406 412 l 437 432 q 456 440 467 447 l 512 463 q 515 463 522 460 q 531 464 535 464 q 562 464 567 422 q 567 415 573 415 q 576 415 580 422 q 594 449 621 449 q 645 449 645 426 q 645 412 640 400 q 636 388 626 374 q 617 360 611 343 q 605 326 600 317 l 602 298 l 600 293 q 598 289 598 288 q 598 261 613 261 q 614 261 620 263 l 625 264 q 626 264 629 263 q 633 261 636 261 q 644 261 665 279 l 673 281 q 677 285 680 290 q 683 295 689 300 q 696 305 699 315 q 703 326 709 334 q 716 343 720 351 l 723 356 l 723 368 q 723 376 734 381 q 736 383 736 385 q 736 387 732 393 q 729 399 729 402 l 729 406 q 730 407 730 409 l 729 423 l 732 436 l 725 461 q 725 483 715 502 q 704 521 693 527 l 689 533 q 675 554 627 574 q 621 576 618 579 q 616 578 614 578 q 609 578 604 582 q 600 586 589 586 l 576 589 l 569 588 l 542 591 l 468 578 q 446 574 439 570 q 437 569 433 567 q 428 565 422 561 q 415 557 406 556 q 395 549 383 546 q 372 542 353 527 l 343 523 q 338 522 332 515 q 326 508 318 503 q 309 498 301 490 q 292 481 276 476 l 272 473 q 271 467 258 456 q 246 444 238 431 l 235 428 q 232 425 226 417 q 220 409 214 405 q 208 400 198 378 l 196 375 l 196 366 q 196 361 182 347 q 180 335 174 325 q 167 314 167 302 q 166 289 160 273 l 159 266 q 158 263 156 257 l 160 241 q 159 238 159 232 q 158 227 157 225 q 156 222 156 221 l 161 196 q 161 191 167 180 q 173 169 179 153 q 186 137 202 121 l 204 116 q 205 112 212 108 q 219 104 224 100 q 229 96 238 92 l 248 86 l 256 86 q 257 86 265 80 l 268 78 l 275 78 l 281 75 q 285 73 287 73 q 290 73 296 75 q 302 77 305 77 q 308 77 314 76 q 320 74 323 74 q 328 74 332 75 l 345 76 q 355 77 381 83 q 406 90 413 94 l 428 104 q 434 106 446 108 q 458 111 462 115 l 465 116 q 466 116 468 113 q 470 110 471 110 q 474 110 476 118 q 477 126 481 129 q 500 143 507 151 q 513 158 525 158 q 529 158 540 148 q 551 137 551 133 q 551 132 549 130 q 547 128 547 127 l 549 111 q 549 109 545 107 l 523 98 q 513 93 498 87 q 484 81 470 73 q 457 66 449 66 q 445 66 442 67 q 439 69 437 69 q 435 69 428 64 q 421 59 411 56 q 400 53 399 53 l 391 55 q 390 55 387 52 q 385 50 380 49 q 375 49 366 44 q 358 40 346 40 l 328 36 l 316 38 l 308 37 q 307 38 303 39 l 294 43 l 277 47 q 266 43 264 43 q 246 43 229 56 l 216 55 q 204 55 199 61 q 194 66 188 69 q 182 72 177 77 q 172 83 160 89 q 156 94 147 108 l 137 117 q 131 122 128 137 l 125 142 q 118 153 114 174 q 111 180 106 186 l 106 193 l 105 196 q 104 199 104 205 q 104 207 105 210 q 106 213 106 214 l 102 229 l 104 238 l 100 273 q 100 276 105 285 q 110 295 110 298 q 110 299 109 302 l 109 305 q 109 307 111 312 q 114 317 116 326 q 119 335 126 346 l 128 352 q 128 356 133 361 q 137 366 137 371 l 137 380 q 137 389 169 421 l 186 452 q 190 457 196 461 l 201 471 q 203 475 226 494 q 250 512 253 514 l 262 521 q 303 551 320 558 l 357 581 l 372 586 l 391 595 l 405 598 l 432 613 l 444 614 l 472 620 l 485 620 l 500 624 l 537 628 l 549 627 q 550 627 557 630 l 567 631 q 571 631 583 627 q 594 623 597 623 l 608 623 q 610 623 622 619 l 633 618 q 641 618 646 615 q 651 612 656 611 q 662 609 675 602 q 688 595 692 591 l 721 575 l 735 560 l 744 554 q 746 553 752 538 q 757 530 761 523 q 766 514 767 512 q 768 507 771 501 q 775 489 776 487 q 778 480 780 469 q 781 464 785 455 q 789 447 789 438 l 788 423 l 790 408 q 787 402 787 398 l 778 359 q 775 345 771 341 q 768 336 754 310 l 747 300 l 745 292 q 744 290 738 285 l 733 280 q 731 277 724 273 q 718 270 712 264 z m 545 387 l 539 388 l 528 387 l 508 391 q 484 382 471 379 q 458 377 447 369 q 436 361 430 358 q 425 356 418 349 q 411 343 401 335 q 391 328 390 324 q 388 321 383 316 q 378 312 370 298 l 365 295 q 359 291 352 273 l 345 263 q 344 262 344 252 q 344 236 354 236 q 361 236 387 250 q 413 264 426 276 q 439 287 461 299 q 483 310 490 323 l 541 372 q 554 385 554 388 q 554 390 551 390 q 546 387 545 387 z"},".":{"x_min":0,"x_max":245,"ha":245,"o":"m 134 68 l 143 61 q 150 57 150 44 q 150 41 147 37 q 145 33 143 29 q 126 -5 103 -5 q 96 -5 80 8 q 64 21 60 32 q 56 43 53 46 q 51 49 51 51 q 51 56 55 62 q 59 69 61 78 q 63 88 72 93 q 80 97 84 102 q 88 106 94 106 q 98 106 102 103 q 106 99 113 95 q 120 92 127 80 z"},"p":{"x_min":0,"x_max":449,"ha":449,"o":"m 51 67 l 56 74 q 59 78 59 83 l 71 118 q 77 136 78 138 l 80 148 l 86 159 l 88 172 q 90 186 102 214 l 103 221 l 107 232 l 107 234 q 107 239 104 239 l 100 239 q 91 239 90 235 l 87 221 q 87 214 78 214 q 77 214 73 215 q 69 217 68 217 q 65 211 60 202 q 55 200 44 192 l 39 191 q 34 183 23 175 l 21 172 q 14 161 2 161 q -14 161 -14 183 q -14 197 -1 204 q 12 211 16 217 q 20 222 37 232 l 42 239 q 46 244 49 244 l 57 247 q 59 249 66 249 l 65 256 q 65 259 77 262 q 80 265 91 273 q 101 281 127 315 q 129 320 135 323 q 140 325 144 329 l 154 329 q 158 329 171 316 q 185 303 185 282 l 171 219 l 172 215 l 171 211 q 171 209 173 209 q 175 209 181 217 q 184 226 193 231 q 202 236 207 241 q 211 247 219 251 q 226 256 239 266 q 251 276 261 277 l 266 280 l 268 287 q 277 294 287 300 l 299 309 q 320 316 330 316 q 335 316 339 320 l 350 315 q 351 315 354 318 q 354 319 356 319 q 376 319 390 303 q 404 288 404 269 q 404 268 402 265 q 401 261 401 259 l 404 251 l 404 250 l 393 222 q 392 217 387 195 q 378 180 365 167 q 353 154 349 147 q 351 145 353 145 q 357 145 365 154 l 388 168 l 392 166 q 399 171 406 177 q 414 184 419 184 q 422 188 429 194 l 434 199 q 437 199 441 203 q 445 206 450 207 q 455 208 460 215 q 466 221 469 222 q 473 223 474 226 q 491 243 500 244 l 506 246 q 507 247 508 247 q 513 247 516 237 l 510 227 l 510 222 l 511 217 q 511 212 505 204 q 500 197 492 197 q 484 193 482 188 q 480 184 468 175 q 455 166 452 159 q 449 153 444 153 l 435 156 q 424 141 420 142 l 417 142 l 415 141 l 409 129 q 404 128 401 126 l 396 127 q 366 97 358 97 l 349 98 q 348 98 344 93 q 341 87 338 84 q 336 82 332 77 l 322 77 q 318 77 307 69 q 307 68 306 68 l 299 71 l 298 71 q 293 71 285 63 l 270 57 q 270 56 269 56 l 259 58 q 256 58 250 53 l 246 51 q 243 51 236 46 l 220 40 q 218 41 216 41 l 207 40 l 199 42 q 197 42 192 35 q 192 34 190 34 q 189 34 185 35 l 179 35 l 168 32 q 164 32 154 40 q 144 48 141 54 l 136 62 q 129 65 127 68 l 123 66 q 123 64 119 60 q 115 55 115 53 q 115 47 111 36 q 106 26 97 -1 l 91 -9 q 89 -11 89 -14 q 89 -18 81 -29 q 81 -41 72 -53 l 70 -58 l 70 -65 q 70 -68 60 -89 l 59 -99 q 56 -100 49 -118 q 42 -137 32 -150 l 28 -166 l 23 -175 l 20 -184 q 19 -187 17 -188 l 16 -193 l 13 -195 q 14 -202 4 -219 q 4 -221 -1 -226 q -6 -231 -12 -240 q -19 -250 -31 -258 l -52 -271 q -75 -271 -84 -246 q -85 -243 -94 -230 q -102 -217 -102 -191 l -98 -171 q -93 -144 -88 -137 l -82 -124 q -81 -120 -79 -116 q -76 -113 -73 -105 q -71 -98 -60 -91 q -53 -75 -46 -64 l -39 -51 q -39 -45 -29 -38 q -24 -29 -17 -19 q -9 -10 -6 -8 q -4 -6 -2 5 q 0 15 7 18 q 13 20 14 24 l 19 32 q 24 36 29 44 q 33 53 39 55 q 45 67 51 67 z m 171 123 l 188 126 q 202 129 203 129 q 204 129 208 127 q 211 126 215 125 q 219 123 224 114 q 248 125 253 130 q 258 135 261 135 q 262 135 264 134 q 265 136 267 140 q 268 143 274 148 q 279 152 291 169 l 307 187 l 324 212 q 331 222 335 235 l 338 241 q 340 247 340 248 q 340 251 333 264 l 321 259 l 321 260 q 315 264 311 264 q 308 264 306 260 q 303 257 299 256 q 294 255 291 251 q 287 248 281 248 q 276 247 269 240 l 263 241 l 260 239 l 254 240 q 244 229 240 226 q 235 223 228 213 l 221 213 q 217 213 214 202 q 209 199 204 193 l 192 188 q 188 182 183 178 l 164 154 q 162 152 160 151 q 157 151 155 150 l 157 140 l 156 140 q 144 134 141 118 l 138 106 q 138 103 140 103 q 142 103 146 106 q 149 110 158 116 q 167 123 171 123 z m -64 -203 q -62 -202 -39 -165 l -34 -156 q -30 -148 -26 -143 l -25 -139 q -22 -137 -20 -132 l 7 -61 q 13 -45 14 -39 q 16 -32 28 2 q 25 1 22 -5 q 19 -11 17 -11 l 10 -12 q 9 -12 2 -30 l 0 -32 q -7 -33 -10 -40 l -18 -57 l -18 -64 q -18 -76 -35 -86 q -41 -100 -42 -100 l -47 -100 l -45 -109 q -45 -120 -52 -128 q -58 -136 -58 -137 l -57 -147 l -58 -156 q -64 -170 -64 -190 z"},"X":{"x_min":0,"x_max":599,"ha":599,"o":"m 71 529 l 70 538 q 69 546 115 573 q 160 599 205 611 q 207 612 214 616 q 220 620 234 625 q 236 624 237 624 q 242 624 249 630 q 255 636 261 637 q 267 637 272 640 q 287 649 295 649 l 307 648 q 315 656 328 656 q 336 656 340 647 l 341 647 q 345 647 349 661 q 353 665 358 665 l 370 664 q 381 670 399 670 l 426 665 q 457 660 467 654 l 473 652 q 484 648 491 632 q 499 616 499 610 q 499 608 496 600 l 496 579 q 496 577 493 572 l 495 555 q 485 542 485 531 q 485 519 477 512 q 481 495 481 494 l 481 491 q 481 490 479 484 l 480 480 q 511 514 519 518 q 527 522 530 531 q 533 539 542 543 q 550 547 557 553 q 565 560 576 571 q 587 581 590 585 q 593 590 629 617 l 634 617 l 639 611 q 642 612 642 614 q 642 615 639 619 q 638 619 638 621 q 640 624 641 629 q 642 635 646 637 q 650 639 653 643 q 656 646 661 648 q 676 679 718 679 q 732 679 745 662 l 749 660 q 755 654 755 642 q 755 636 748 626 q 741 617 727 614 q 714 612 710 608 q 707 604 704 604 l 698 606 q 696 602 688 597 q 680 593 676 590 l 667 593 q 664 587 663 582 q 661 576 657 575 q 653 574 650 571 l 644 570 l 642 570 q 637 562 634 560 l 626 560 q 626 559 617 549 q 608 538 606 538 l 601 539 q 598 539 592 535 q 585 531 585 524 q 578 517 571 516 q 568 510 561 506 q 553 501 552 490 q 538 469 527 465 q 512 446 505 439 q 497 433 495 427 l 494 426 l 490 427 q 487 427 481 414 q 473 413 473 401 q 472 389 464 387 q 455 385 455 376 l 455 372 l 456 365 l 449 318 l 449 313 l 450 304 l 445 287 l 446 280 q 441 272 439 268 q 438 264 436 261 l 437 247 l 436 240 q 440 231 440 228 q 440 224 439 222 l 437 212 q 436 209 432 206 q 428 202 428 200 q 433 193 434 188 q 434 183 436 180 q 437 177 437 175 l 436 159 l 441 144 q 441 142 437 136 l 437 135 q 446 130 449 120 q 459 113 460 113 q 463 113 467 117 l 473 114 l 475 114 q 476 114 479 116 q 483 118 495 125 q 508 132 516 140 q 525 149 547 160 q 553 173 561 175 l 564 177 q 567 182 572 185 q 576 188 585 199 q 595 210 602 213 q 603 213 610 218 q 616 222 619 222 q 630 222 630 214 l 629 206 l 630 197 q 630 188 614 170 q 599 153 587 151 l 583 149 q 568 118 550 118 q 543 118 538 112 l 515 88 l 504 90 q 502 89 492 79 q 482 69 474 63 l 473 62 l 465 64 q 454 53 439 53 q 436 53 433 57 l 432 58 l 417 56 q 416 57 412 62 q 408 66 402 68 q 395 71 391 75 l 380 80 q 379 81 374 89 l 369 94 q 351 112 351 137 q 351 142 354 160 l 354 164 q 354 166 351 174 l 351 176 q 351 178 354 184 q 356 190 356 193 q 356 196 359 205 l 359 206 l 355 224 q 356 228 368 231 q 366 235 363 260 q 360 286 359 286 q 357 286 354 275 q 352 264 346 259 q 341 253 340 247 q 339 240 330 239 q 328 234 320 229 q 312 225 311 223 q 300 205 296 205 l 293 205 l 293 195 q 291 192 282 188 l 281 188 l 283 180 q 271 167 264 158 l 257 150 l 250 146 q 249 143 249 137 q 248 132 243 130 q 238 127 236 126 q 232 113 224 111 q 220 100 216 95 l 207 79 q 204 76 197 72 l 196 70 l 196 62 q 196 56 189 51 q 182 46 178 40 q 174 29 165 29 l 140 21 q 131 23 123 27 q 114 30 113 38 q 112 46 110 51 q 108 56 108 63 l 108 72 q 108 81 121 101 q 135 121 142 126 q 149 131 154 135 q 159 140 169 147 q 179 154 183 161 l 201 177 q 207 182 212 185 q 213 185 216 191 q 219 198 233 204 q 246 234 261 243 q 275 267 290 268 q 300 276 302 285 q 305 293 312 300 q 334 317 347 334 q 360 352 370 361 q 379 371 380 378 q 381 386 384 392 l 386 399 l 386 403 l 387 409 q 391 417 391 418 q 391 419 389 423 q 387 427 387 431 q 387 446 392 446 l 404 446 q 406 452 400 457 q 394 462 394 464 q 394 467 402 491 q 399 497 399 498 q 399 501 404 504 q 409 507 409 509 l 406 521 l 408 533 l 407 545 l 411 560 q 414 563 414 569 q 414 570 413 574 q 411 579 411 594 q 411 597 413 600 q 414 603 414 605 q 414 607 407 615 l 404 621 q 399 631 382 631 l 369 627 l 357 629 l 336 625 q 331 625 323 618 q 317 616 312 616 q 311 615 301 609 q 290 603 289 603 l 278 606 q 272 602 264 599 q 256 595 242 585 q 228 574 227 574 l 215 578 l 214 578 q 211 578 207 572 q 203 565 197 563 q 190 560 190 560 l 182 561 q 182 547 168 545 q 160 537 155 533 l 153 531 q 146 509 137 506 q 128 502 122 496 q 118 495 98 486 q 96 487 93 490 q 90 493 79 499 q 69 505 69 523 z"},"*":{"x_min":0,"x_max":387,"ha":387,"o":"m 414 596 l 403 586 q 401 584 390 578 q 380 572 380 569 q 380 564 397 542 q 414 520 414 511 l 412 499 q 409 485 401 485 q 384 485 374 501 q 364 518 356 518 q 352 518 347 492 q 343 466 328 466 q 321 466 314 476 q 308 487 308 500 q 308 502 310 505 l 321 535 q 321 541 315 541 q 295 541 255 512 q 251 510 250 510 q 240 510 240 524 q 240 536 245 540 q 250 545 262 549 q 275 553 282 559 q 289 565 298 567 q 307 569 316 578 q 307 598 297 610 q 286 622 286 637 q 286 647 294 647 q 299 647 314 634 l 323 627 q 335 617 338 613 q 341 608 344 608 q 347 608 347 613 q 347 617 353 625 q 358 633 358 635 l 358 645 q 358 648 365 652 q 367 656 367 657 l 367 659 l 364 670 q 364 677 376 677 q 400 677 400 645 q 400 639 389 632 l 385 620 l 385 616 l 384 612 q 384 609 386 609 l 404 619 l 411 628 q 416 633 426 633 q 440 623 440 620 q 440 617 433 608 q 427 599 414 596 z"},"Y":{"x_min":0,"x_max":665,"ha":665,"o":"m 218 499 l 219 492 q 219 490 209 483 q 199 475 197 475 q 162 475 162 495 l 165 506 l 164 518 q 164 526 181 543 q 186 545 195 553 q 204 562 223 568 q 225 569 229 576 q 241 583 248 585 q 254 588 270 596 q 285 605 301 612 q 317 618 329 625 l 339 628 l 346 634 q 350 636 355 637 q 361 638 366 641 l 369 642 l 375 642 q 376 642 379 645 q 383 647 407 650 q 431 653 432 653 q 445 653 455 637 q 466 622 466 602 q 466 588 455 573 q 445 557 439 544 q 434 531 429 527 q 425 523 419 511 l 403 486 q 399 478 396 464 q 392 450 382 447 q 377 432 371 424 q 365 416 364 410 q 362 404 360 399 q 357 394 352 379 q 338 363 336 351 q 333 339 322 334 q 317 319 314 314 q 311 309 308 302 q 306 294 303 292 l 289 252 l 286 239 q 280 230 278 222 q 276 214 273 207 l 273 199 q 273 196 270 190 l 267 181 q 267 170 260 166 l 260 165 q 260 164 263 153 l 263 151 l 258 136 l 258 134 l 261 124 l 260 110 q 260 102 266 90 q 272 77 275 77 q 276 77 279 81 q 289 84 295 89 q 300 94 308 96 q 309 97 311 101 q 312 105 318 108 q 318 109 320 109 l 325 108 l 326 108 q 327 108 329 112 q 331 116 335 120 q 340 123 351 138 q 362 152 374 158 l 404 195 l 416 205 q 419 217 423 220 q 427 223 431 230 l 436 235 l 438 239 q 447 254 454 262 q 460 269 461 273 q 462 277 470 289 q 479 302 489 319 q 499 336 503 342 q 508 348 510 355 q 511 362 520 369 l 545 416 l 559 440 l 562 443 q 565 446 567 454 l 573 468 q 576 476 578 480 q 579 484 585 491 l 586 495 q 587 500 590 506 l 597 509 q 599 513 600 521 q 601 529 606 534 q 612 540 617 540 q 618 541 625 554 q 631 567 648 567 q 668 567 685 543 q 702 519 702 505 q 702 490 685 487 q 671 470 664 453 q 657 436 652 427 q 642 397 642 394 q 637 388 634 377 q 630 365 627 363 q 625 360 618 341 q 612 322 608 318 l 608 306 q 608 287 590 261 l 587 250 l 582 246 l 582 234 q 575 231 574 222 l 572 210 q 571 210 571 208 q 571 206 574 206 q 584 206 590 221 q 591 222 601 227 q 611 232 613 234 l 620 240 q 626 243 630 250 q 635 257 641 258 q 648 259 651 264 q 654 269 670 277 l 696 298 q 704 304 718 304 q 726 304 726 294 q 726 290 720 284 q 714 278 713 274 q 713 271 711 269 q 709 267 708 258 q 706 248 698 246 q 691 244 687 240 q 682 235 678 234 q 674 233 669 230 q 665 227 660 225 q 655 223 646 211 q 646 210 634 204 l 626 197 q 618 192 611 188 l 608 188 l 605 187 q 599 178 579 161 l 554 140 q 547 134 547 129 q 546 124 540 116 q 534 108 534 105 q 534 70 521 65 q 519 64 519 56 q 519 32 511 25 q 509 19 501 5 l 500 4 l 501 -7 q 501 -13 496 -21 q 491 -29 491 -34 l 486 -54 q 484 -61 480 -65 q 477 -68 465 -103 q 456 -117 455 -120 q 454 -123 446 -123 l 440 -124 q 440 -126 443 -130 q 445 -135 445 -137 q 445 -148 440 -156 q 435 -164 434 -170 l 431 -177 q 430 -178 429 -183 q 428 -187 423 -194 l 420 -200 q 418 -206 410 -212 q 407 -225 395 -246 q 383 -268 373 -275 l 368 -280 q 367 -281 365 -281 l 362 -281 l 356 -279 q 353 -279 352 -288 q 350 -297 343 -297 q 339 -297 337 -295 q 324 -308 318 -309 q 312 -310 309 -311 q 306 -312 305 -312 q 301 -312 293 -299 q 286 -286 282 -285 l 276 -281 q 275 -281 266 -264 q 258 -247 258 -233 l 255 -213 l 257 -205 q 254 -197 254 -196 q 254 -184 260 -176 q 266 -168 266 -167 q 266 -166 261 -157 l 261 -155 q 261 -151 271 -127 l 274 -117 l 276 -116 l 280 -116 q 281 -116 282 -110 q 284 -104 288 -102 q 292 -99 292 -97 l 292 -95 l 290 -89 q 290 -87 295 -82 q 300 -77 303 -69 q 307 -60 311 -58 q 314 -56 315 -47 q 324 -30 337 -30 l 340 -27 l 338 -21 q 338 -14 361 5 l 365 12 q 368 18 372 18 l 386 15 l 388 16 l 385 31 q 386 32 388 33 q 390 36 392 44 q 394 52 397 52 q 398 52 408 46 l 412 50 q 412 52 410 55 q 408 58 408 60 q 408 72 429 76 q 433 81 435 88 q 437 95 444 97 q 451 100 461 110 q 471 121 471 125 q 471 135 480 150 q 489 154 489 156 q 489 157 485 162 q 484 162 484 164 q 484 173 492 175 l 493 176 l 491 190 q 500 203 504 225 l 504 231 q 504 234 508 238 q 512 242 516 254 l 515 264 q 515 266 522 278 l 523 283 q 516 279 511 271 l 506 266 q 500 259 498 255 q 496 251 492 248 q 489 245 487 241 q 485 237 482 234 q 479 232 478 227 l 475 222 q 467 220 466 215 l 455 194 q 442 190 442 175 l 442 171 q 441 170 435 169 q 429 168 429 163 q 429 160 425 154 q 419 155 405 132 l 400 125 q 396 120 387 117 q 382 109 377 107 q 373 105 373 102 l 374 93 q 374 89 362 88 q 357 84 356 73 q 355 62 345 62 q 342 62 335 55 q 330 54 326 49 q 322 44 320 43 q 318 43 315 41 l 308 43 q 303 34 301 34 l 288 35 l 281 33 q 270 33 251 47 q 232 62 225 73 q 218 85 212 90 q 207 94 207 100 q 206 105 201 112 q 195 119 194 135 l 192 142 l 192 146 l 194 158 l 193 167 l 201 200 l 200 211 q 200 213 205 221 l 207 231 q 207 236 211 244 l 213 255 q 213 261 218 267 q 223 272 227 272 q 230 272 232 275 q 226 279 226 282 q 226 288 229 292 q 232 297 233 307 l 260 360 q 263 367 265 374 q 267 381 271 387 q 275 393 278 396 q 280 400 282 403 q 283 407 285 412 q 287 418 296 426 l 299 433 q 302 440 313 451 l 316 461 q 317 466 324 474 q 332 482 333 485 q 340 509 346 516 q 353 524 358 534 l 364 540 l 373 540 q 374 540 374 542 q 374 543 372 546 q 370 550 370 552 q 370 565 379 565 q 381 565 382 563 q 384 562 386 562 q 387 562 388 563 l 388 567 l 386 573 l 386 574 q 386 577 389 588 q 392 599 392 601 q 392 604 389 609 q 387 615 383 615 q 382 615 375 613 l 374 613 l 368 617 l 367 617 q 365 617 365 613 q 361 607 357 607 l 350 610 q 349 610 340 605 q 331 600 329 600 l 328 600 l 320 602 q 316 602 314 595 q 313 589 297 588 q 293 582 287 579 q 282 577 246 552 l 242 550 q 239 539 229 531 q 219 522 219 511 z m 410 -61 l 413 -59 q 412 -57 412 -55 q 412 -51 417 -43 q 416 -41 416 -37 q 416 -35 422 -26 l 423 -17 q 424 -9 427 -6 q 431 -4 432 1 q 432 6 436 14 q 439 23 439 27 l 446 53 q 418 21 411 15 q 405 9 400 0 q 396 -9 386 -23 q 375 -38 368 -48 q 361 -59 358 -67 q 355 -76 345 -95 q 335 -115 332 -124 q 329 -133 327 -147 q 325 -161 314 -167 q 313 -167 313 -169 q 313 -170 316 -172 l 318 -175 l 318 -185 q 318 -188 314 -191 l 314 -197 q 314 -202 309 -221 q 314 -229 314 -241 l 312 -246 q 312 -247 314 -249 l 317 -255 q 317 -257 318 -257 q 320 -257 322 -251 l 328 -244 q 331 -240 338 -227 q 344 -214 349 -210 q 354 -207 354 -205 q 354 -203 353 -196 l 353 -195 q 353 -189 357 -187 q 362 -184 362 -182 l 365 -175 q 370 -163 370 -155 q 372 -152 377 -147 q 383 -142 383 -137 l 382 -128 q 382 -117 404 -82 l 411 -83 q 412 -83 412 -81 l 408 -78 q 404 -78 404 -72 q 404 -65 410 -61 z"},"c":{"x_min":0,"x_max":337,"ha":337,"o":"m 42 180 l 42 185 q 42 190 52 206 q 62 222 74 227 q 75 227 75 228 l 74 236 q 76 238 84 249 q 92 259 99 258 q 104 266 113 271 q 121 276 128 284 l 146 295 q 165 308 174 308 l 181 308 q 187 318 197 318 q 206 318 209 315 q 210 314 211 314 q 211 314 217 318 q 222 322 230 322 q 232 322 252 314 q 258 320 263 320 q 265 320 270 317 q 275 314 280 312 q 285 310 290 294 q 295 278 295 276 q 295 268 282 258 q 269 247 258 247 q 254 247 248 254 q 233 257 223 261 q 209 258 202 254 l 201 254 l 197 258 l 193 259 l 192 259 q 190 257 188 252 q 180 247 175 245 q 169 243 166 240 q 162 236 154 232 q 146 228 142 221 q 132 216 128 215 l 125 215 q 121 207 107 189 l 94 168 q 90 164 83 159 q 77 154 77 150 q 77 149 78 145 l 78 140 q 78 137 73 133 q 69 129 69 127 l 70 116 l 66 99 q 66 84 88 84 l 95 84 l 116 87 q 126 89 133 90 q 140 92 141 92 q 142 92 149 97 l 154 97 l 158 98 q 160 108 186 115 q 192 124 206 128 q 220 132 234 146 l 241 146 q 243 146 250 152 q 258 157 266 161 q 274 164 276 167 q 278 169 283 171 q 292 185 304 188 l 306 190 q 314 197 316 197 l 322 196 q 327 196 328 202 q 329 208 344 219 q 358 229 362 229 q 371 229 371 219 q 371 212 363 211 q 368 198 368 197 q 368 181 352 176 q 350 175 350 173 l 349 164 q 350 164 349 163 q 349 163 347 161 l 340 160 l 338 157 q 327 151 313 137 l 303 127 l 302 127 q 297 132 294 132 q 292 132 289 125 q 272 108 265 106 q 262 105 255 98 l 245 92 l 238 92 q 236 90 235 88 q 234 85 227 80 q 219 74 216 70 q 213 66 207 64 l 198 66 q 194 58 182 58 q 179 56 174 51 q 168 45 166 45 q 164 45 156 51 l 155 51 q 150 51 150 43 q 150 36 141 36 q 132 35 124 31 l 123 31 q 112 31 107 35 q 102 39 98 41 q 83 36 82 36 q 76 36 71 41 l 50 52 q 48 53 43 65 l 40 69 q 24 72 19 101 l 15 113 q 14 114 14 117 q 14 122 18 132 q 22 142 26 159 q 30 176 42 180 z"},"!":{"x_min":0,"x_max":299,"ha":299,"o":"m 329 480 l 324 476 l 311 452 q 310 449 307 446 l 301 437 q 298 427 292 420 q 287 414 286 408 q 284 402 281 398 q 278 395 274 379 l 263 346 l 257 338 l 257 332 q 257 329 249 324 l 249 307 q 244 300 238 288 l 233 255 q 229 212 219 204 l 213 198 q 210 193 203 193 q 199 193 186 206 l 180 208 q 172 212 164 227 q 156 241 156 254 q 156 271 160 279 q 165 286 166 290 l 190 355 q 205 395 222 420 l 229 439 l 234 445 l 239 464 q 241 466 245 469 q 252 494 259 502 q 266 510 269 521 q 272 532 276 535 q 281 537 283 550 q 286 563 302 568 l 299 574 l 299 575 q 299 576 305 584 q 311 592 323 625 q 334 659 352 659 q 361 659 379 635 q 396 611 396 599 q 396 584 377 562 q 358 539 347 519 q 337 499 334 490 q 332 482 329 480 z m 187 150 l 191 146 q 201 136 202 131 q 203 125 207 119 q 211 113 211 108 q 211 106 205 99 q 199 92 196 68 q 192 44 171 44 q 153 44 145 53 q 137 53 134 55 q 131 58 125 71 q 119 84 115 88 q 111 93 111 101 q 111 112 119 121 q 126 131 130 141 q 145 156 150 157 q 156 157 159 159 q 163 160 168 160 q 177 160 187 150 z"},"/":{"x_min":0,"x_max":455,"ha":455,"o":"m 182 245 l 187 247 q 193 250 203 274 l 233 311 q 238 316 249 333 q 260 349 266 353 q 271 356 274 361 q 280 362 280 365 q 280 366 279 369 l 279 374 q 279 376 285 382 q 292 387 297 395 q 302 402 311 411 q 320 420 324 427 q 328 435 331 435 q 333 435 335 434 q 340 443 347 449 q 347 458 354 466 q 362 473 367 482 q 373 490 384 498 q 394 505 398 509 l 398 516 q 398 521 405 527 q 412 532 418 539 l 425 545 l 431 553 q 436 558 449 569 l 454 575 q 457 579 471 588 l 499 625 q 517 649 537 660 l 540 663 l 562 674 q 567 677 572 677 q 579 677 585 668 q 592 659 592 651 q 592 630 575 601 l 565 579 q 563 573 554 573 q 545 573 522 554 q 500 536 490 521 q 480 511 470 503 q 460 495 452 485 q 444 474 441 471 q 438 467 432 463 q 427 459 414 452 l 391 422 l 380 413 q 376 400 361 393 q 346 385 335 353 l 333 352 l 326 352 l 324 351 q 322 337 320 335 l 314 332 q 313 331 311 317 q 297 313 292 304 q 287 294 277 281 q 267 269 263 264 q 259 259 252 252 l 247 245 q 241 239 238 237 q 235 236 233 221 q 232 207 216 193 l 192 156 l 187 146 l 181 138 q 175 125 163 88 l 165 78 l 163 63 q 175 35 175 25 q 175 0 168 -13 q 162 -25 143 -25 l 129 -23 q 104 -21 100 -10 q 96 0 90 11 q 84 22 84 45 q 84 50 86 57 q 88 65 88 71 q 88 82 95 93 q 103 104 104 110 q 106 116 109 120 q 109 128 124 147 l 137 174 q 153 197 163 207 l 171 222 l 180 236 z"},"[":{"x_min":0,"x_max":449,"ha":449,"o":"m 275 472 l 279 472 q 283 472 284 478 q 284 484 289 490 q 294 496 299 505 q 304 513 307 516 q 310 518 315 526 l 317 528 q 322 529 322 530 l 322 531 l 321 536 q 321 546 333 550 q 334 552 337 555 l 336 563 q 344 571 344 577 l 347 584 q 351 587 353 594 l 380 624 q 380 635 393 639 q 398 650 405 658 q 412 666 418 678 q 425 690 445 691 l 451 693 q 468 697 478 697 q 482 697 484 700 q 490 698 491 698 q 495 698 502 703 l 510 701 q 511 701 516 705 q 520 708 534 708 l 544 708 l 556 710 l 557 710 q 571 710 581 698 q 592 687 592 671 l 591 661 l 592 650 q 592 647 584 644 l 580 640 q 570 632 560 632 q 535 632 534 639 q 532 647 524 648 q 512 653 500 656 q 493 652 488 652 q 486 652 482 653 q 478 654 476 654 q 473 654 473 646 q 472 638 460 627 q 448 616 448 614 q 447 611 445 604 q 443 596 438 594 q 434 593 432 585 q 429 577 415 571 l 414 569 l 414 561 q 414 559 405 553 l 399 548 q 398 533 393 530 l 389 525 q 384 500 370 501 l 367 497 l 367 491 l 365 485 q 354 479 345 457 q 338 456 337 448 q 337 439 335 439 q 329 439 328 436 q 326 433 324 417 l 321 407 l 316 404 q 309 374 295 356 q 293 354 289 343 q 285 331 280 325 q 274 320 273 311 q 273 302 262 281 q 252 260 251 250 q 250 239 248 236 q 246 233 239 233 q 238 232 237 230 l 238 216 l 231 192 q 229 182 224 179 l 219 172 l 219 159 q 217 157 215 156 q 213 155 212 154 l 213 139 q 213 132 204 129 q 204 121 204 118 q 204 115 203 115 q 202 115 196 112 l 196 111 l 200 97 l 200 95 q 200 93 197 91 q 194 89 194 87 l 198 78 q 198 74 194 70 q 196 66 200 50 q 197 46 197 44 q 197 35 206 35 l 215 39 q 218 39 221 36 q 225 33 228 33 q 230 33 234 37 q 239 40 247 40 q 250 40 252 41 q 255 42 259 42 l 297 66 q 312 66 312 41 q 312 32 298 14 q 285 -4 270 -4 q 268 -4 260 -3 q 253 -2 251 -2 q 224 -2 210 -8 l 209 -8 l 194 -3 l 183 -4 q 183 -4 167 7 q 152 18 149 22 q 146 26 141 44 l 136 54 q 132 62 130 82 l 138 137 q 139 138 139 143 q 139 149 147 172 q 154 195 162 199 q 170 203 171 206 q 162 208 162 211 q 162 213 168 226 q 174 239 178 240 l 178 241 l 177 246 q 177 247 182 257 l 180 264 q 180 267 184 270 q 187 273 190 288 q 195 299 200 302 l 202 304 l 201 320 l 209 336 q 228 374 228 382 q 231 385 241 410 l 247 420 q 251 426 254 436 q 256 447 264 459 q 272 472 275 472 z"},"6":{"x_min":0,"x_max":479,"ha":479,"o":"m 513 650 l 520 642 l 527 637 q 534 630 534 617 q 534 601 522 598 q 519 595 491 595 l 485 590 q 482 590 475 584 q 465 570 456 570 l 446 572 q 440 568 435 559 q 430 550 413 544 q 411 542 406 531 q 402 521 389 520 q 377 518 380 515 q 373 506 370 506 q 361 506 356 498 q 351 490 339 484 q 335 478 326 468 q 318 458 316 449 q 315 440 304 436 q 301 436 296 424 q 291 411 276 404 q 267 385 261 385 l 249 392 q 249 378 241 369 l 238 362 q 236 357 230 350 q 231 350 232 349 l 236 349 q 242 349 248 352 q 257 369 294 373 l 298 374 q 299 378 316 381 q 332 384 339 387 q 346 391 365 392 l 382 394 q 393 397 400 397 q 402 397 405 394 q 407 391 410 391 q 414 391 419 393 q 424 394 427 394 q 429 394 431 390 l 433 388 q 435 390 437 391 q 444 387 451 385 q 458 382 477 357 q 496 333 496 305 l 497 296 q 498 294 498 292 q 498 289 496 284 q 493 280 493 267 q 492 255 475 252 q 466 234 461 229 l 452 217 l 445 214 q 438 211 432 199 q 426 187 420 182 q 415 177 404 165 q 393 153 387 149 l 382 144 q 368 130 349 126 l 351 120 q 351 116 344 112 q 337 107 332 107 l 330 108 l 327 108 q 325 108 323 103 q 321 98 308 94 q 295 89 283 83 q 272 76 265 75 q 258 74 238 67 q 230 66 218 72 l 216 72 q 210 67 204 67 q 201 67 195 69 q 189 72 179 73 q 170 75 159 81 q 148 87 143 88 q 137 90 135 94 q 134 97 129 100 q 101 115 93 142 q 91 154 86 158 q 82 162 78 182 q 75 202 75 205 q 75 207 80 224 q 84 242 89 246 q 98 263 99 276 q 105 291 116 302 q 127 314 130 322 q 131 323 135 327 q 139 331 143 341 q 147 351 154 353 l 159 356 q 161 360 168 369 q 169 383 194 408 l 196 413 q 205 427 223 431 q 225 433 225 435 q 225 437 224 443 l 224 444 q 224 457 236 464 q 248 471 257 481 q 266 490 276 498 q 286 506 289 510 q 291 514 299 520 q 307 525 310 532 q 313 540 323 546 q 333 553 339 561 q 345 568 357 573 q 368 577 372 585 q 376 593 385 593 l 399 597 q 404 599 406 604 q 408 610 412 611 q 425 625 438 630 q 451 634 455 637 q 459 641 463 643 q 468 645 473 648 q 478 652 483 652 q 488 653 494 654 q 500 656 502 656 q 508 656 513 650 z m 141 119 l 161 120 l 176 123 q 178 124 182 124 q 186 124 190 123 q 195 121 197 121 q 207 121 226 134 l 243 142 q 253 155 270 155 q 280 159 281 166 q 283 167 290 170 q 292 170 306 183 q 320 195 332 203 q 344 210 356 225 q 369 239 372 240 q 390 250 392 253 q 394 256 394 262 q 406 271 411 279 q 416 286 424 294 l 428 302 q 430 307 436 309 l 437 311 l 437 319 q 447 332 447 336 q 447 342 428 347 q 422 343 420 343 l 411 347 l 410 347 l 394 344 l 384 346 q 379 346 375 343 q 370 339 366 339 q 361 339 357 336 q 354 333 352 333 l 340 337 q 332 328 327 328 q 321 332 320 332 q 309 319 304 319 q 303 319 297 323 q 283 323 281 319 q 278 315 275 314 q 273 313 272 309 q 259 301 259 301 l 249 302 q 247 302 238 291 q 228 280 226 280 l 215 286 q 203 275 198 266 q 192 258 185 254 q 178 250 168 236 q 166 238 164 238 q 161 238 159 232 q 159 235 158 233 q 157 230 155 225 q 153 219 150 215 q 147 211 145 203 l 141 194 q 139 191 136 183 q 134 176 131 171 q 128 167 126 154 l 121 145 q 121 132 129 125 q 137 119 141 119 z"},"r":{"x_min":0,"x_max":359,"ha":359,"o":"m 93 276 l 100 278 l 103 284 q 127 298 137 311 q 138 313 142 315 q 145 317 149 322 q 167 340 192 340 q 221 340 223 304 l 226 297 q 230 290 237 269 q 244 248 244 243 q 244 230 236 217 q 229 213 203 180 l 198 177 q 194 168 188 159 q 178 156 178 152 l 178 143 q 178 142 176 139 q 174 136 170 128 l 166 122 q 164 120 162 114 q 160 108 156 103 q 153 98 153 95 q 153 88 172 88 q 173 88 179 91 l 186 89 q 187 89 191 92 q 195 95 203 97 q 211 99 217 103 q 223 107 232 110 q 240 113 248 119 q 256 126 263 129 q 271 132 278 138 q 284 144 292 149 q 301 155 319 173 q 331 182 335 183 q 336 183 344 196 q 351 209 361 209 q 371 209 371 199 q 371 194 366 189 l 366 186 l 367 178 q 368 177 368 174 q 368 172 365 168 q 361 164 359 158 q 358 152 350 150 q 347 139 343 138 q 338 136 330 128 q 321 120 306 108 q 291 97 285 91 q 280 85 278 85 q 277 85 274 87 q 271 89 270 89 q 267 89 266 82 l 264 77 q 258 73 257 73 l 254 74 l 252 74 q 246 74 246 70 l 249 65 l 249 64 q 249 57 241 57 q 236 57 210 39 l 196 36 l 184 30 q 178 33 177 33 l 169 31 l 155 30 q 154 30 137 40 q 120 49 116 59 q 113 69 107 79 q 102 89 102 93 q 102 116 106 126 q 110 136 111 141 q 112 146 116 152 q 121 157 124 170 q 138 198 144 205 q 149 211 152 220 l 158 229 q 159 230 161 237 q 163 243 166 244 q 170 251 170 253 q 170 267 157 267 q 155 267 152 262 q 149 257 138 252 q 128 247 125 245 q 123 242 115 239 q 107 235 101 227 l 93 223 q 89 214 86 213 q 83 212 68 208 q 67 208 63 202 q 59 197 52 197 q 46 191 40 183 q 38 183 30 179 l 20 177 q 16 174 11 167 q 7 161 -6 161 q -13 161 -13 173 q -13 197 4 211 q 21 225 28 226 q 36 227 38 232 q 40 237 48 240 q 55 243 65 254 q 75 265 87 269 z"},"2":{"x_min":0,"x_max":452,"ha":452,"o":"m 262 304 l 258 297 q 257 296 247 291 q 236 286 219 268 q 202 249 193 247 q 192 247 188 243 q 184 239 179 236 q 174 234 166 225 q 158 216 154 213 q 150 211 145 198 q 134 183 124 181 q 122 179 122 175 q 122 154 139 154 q 141 154 144 155 q 147 156 157 157 q 168 158 172 161 q 176 164 186 164 l 188 164 l 198 163 l 232 170 l 239 173 l 255 172 q 260 172 267 176 q 274 180 278 181 q 279 182 280 182 l 293 181 l 310 187 l 333 190 q 338 191 365 191 q 370 191 383 189 q 384 188 387 188 q 389 188 399 189 q 408 191 416 191 q 449 191 452 176 l 463 154 q 469 142 469 138 l 469 134 l 467 127 l 468 120 q 468 105 461 103 q 454 100 451 97 l 450 97 q 436 97 426 115 l 420 113 l 411 116 q 407 114 399 114 q 396 114 385 122 l 383 122 q 380 122 375 120 q 369 118 367 118 q 366 118 363 120 q 360 121 358 121 q 354 121 337 115 l 269 104 l 257 106 q 244 106 233 99 q 228 95 226 95 l 210 99 l 138 87 q 135 86 131 91 q 126 96 124 96 q 123 95 121 88 q 118 81 109 81 q 87 81 75 92 q 74 93 71 93 l 61 95 q 61 97 56 105 l 52 118 l 46 128 q 41 136 41 150 q 41 191 55 204 q 69 217 70 221 q 82 243 117 273 l 138 294 q 139 295 141 296 q 143 297 158 310 q 174 323 181 328 q 188 333 202 343 l 226 361 q 241 375 275 395 l 278 398 l 288 401 l 294 407 q 302 413 313 413 l 352 437 l 371 444 q 380 449 392 456 q 404 462 418 466 l 431 471 l 441 480 q 445 483 456 488 q 468 492 474 497 q 480 502 496 509 q 512 516 512 530 q 512 539 502 541 q 491 542 486 546 q 480 550 479 550 l 452 549 l 446 551 q 436 553 433 553 q 427 553 420 551 q 413 549 409 549 l 394 553 q 389 552 368 543 l 364 542 q 360 538 357 538 l 344 539 l 322 529 q 314 523 308 521 q 302 519 297 516 q 293 512 289 512 l 276 516 q 273 516 269 511 q 265 506 262 506 q 241 506 241 547 q 241 561 255 576 q 268 592 280 592 l 318 597 q 320 597 331 595 l 333 595 l 346 602 q 352 604 354 604 l 369 603 l 405 608 l 447 604 q 467 601 472 600 l 482 599 q 502 599 528 560 q 530 556 541 543 q 552 530 552 508 q 552 497 541 484 l 539 478 q 538 475 523 456 q 508 436 492 436 l 482 437 q 477 437 475 434 l 439 410 q 429 402 414 395 l 407 390 l 398 388 q 396 387 388 378 q 380 369 376 369 l 363 370 q 357 370 345 359 q 333 347 321 339 l 313 330 q 310 329 299 325 q 288 322 283 316 q 279 311 271 309 q 263 306 262 304 z"},"{":{"x_min":0,"x_max":449,"ha":449,"o":"m 275 472 l 279 472 q 283 472 284 478 q 284 484 292 493 l 301 510 q 304 513 307 516 q 310 518 315 526 l 317 528 q 322 529 322 531 l 321 536 q 321 545 333 551 l 337 555 l 336 563 q 344 575 344 577 l 347 584 q 352 589 353 594 q 374 619 380 625 l 386 638 q 402 643 417 669 q 416 673 443 683 q 470 694 489 698 l 495 698 l 497 699 q 534 710 557 710 q 571 710 581 698 q 592 687 592 671 l 591 661 l 592 650 q 592 647 584 644 l 580 640 q 570 632 560 632 q 539 632 534 640 q 533 640 533 644 q 532 647 522 650 q 512 653 500 656 q 473 640 470 637 l 448 615 l 444 601 q 443 596 438 594 q 434 593 431 584 q 429 575 415 571 l 414 569 l 414 561 q 414 559 405 553 l 399 548 q 398 533 393 530 l 389 525 q 384 500 370 501 l 367 497 l 367 491 l 365 485 q 355 479 351 471 q 348 458 343 456 q 338 454 337 447 q 337 439 335 439 l 330 438 l 313 417 q 308 409 270 391 q 279 363 283 356 l 283 346 l 284 341 q 284 336 279 327 q 274 319 274 313 q 274 304 263 282 q 252 260 251 250 q 250 240 248 236 q 246 233 239 233 q 238 232 237 230 l 238 216 l 231 190 q 228 180 224 179 l 219 172 l 219 159 q 214 154 212 154 l 213 139 q 213 132 204 129 q 204 121 204 118 q 204 115 203 115 q 202 115 196 112 l 196 111 l 200 97 l 200 95 q 200 93 197 91 q 194 89 194 87 l 198 78 q 198 74 194 70 q 196 66 200 50 q 197 46 197 44 q 197 35 206 35 l 215 39 q 218 39 221 36 q 225 33 228 33 q 230 33 234 37 q 239 40 247 40 q 250 40 252 41 q 255 42 259 42 l 297 66 q 312 66 312 41 q 312 32 298 14 q 285 -4 270 -4 q 268 -4 260 -3 q 253 -2 251 -2 q 224 -2 210 -8 l 209 -8 l 194 -3 l 183 -4 q 183 -4 167 7 q 152 18 149 22 q 146 26 141 44 l 136 54 q 132 62 130 82 l 138 137 q 139 138 139 143 q 139 149 147 172 q 154 195 162 199 q 170 203 171 206 q 162 208 162 211 q 162 213 168 226 q 174 239 178 240 l 178 241 l 177 246 q 177 247 182 257 l 180 264 q 180 267 184 270 q 187 273 190 288 q 195 299 200 302 l 202 304 l 201 320 l 208 335 l 211 338 q 212 339 212 341 q 212 345 210 351 q 208 356 208 358 l 209 374 l 205 386 l 207 401 q 207 408 181 410 q 211 411 227 426 q 242 440 252 448 q 262 455 267 465 q 274 472 275 472 z"},"9":{"x_min":0,"x_max":453,"ha":453,"o":"m 119 387 l 119 391 q 119 402 125 408 q 132 414 134 417 q 136 421 141 426 q 143 426 154 445 q 164 464 174 468 q 176 470 183 487 l 201 501 q 202 502 204 507 q 206 511 209 512 q 212 513 215 517 q 218 521 220 521 l 227 523 q 228 523 236 531 q 243 538 253 546 l 256 550 q 262 558 271 562 q 279 566 286 573 l 289 575 q 298 579 306 592 l 323 603 q 343 618 347 620 l 350 623 q 353 626 361 629 l 368 634 q 383 645 390 647 q 397 648 401 653 l 404 653 q 413 662 420 665 q 428 667 444 673 q 459 679 474 682 l 480 685 q 484 687 486 687 q 488 687 501 681 q 514 675 514 662 q 514 650 507 639 q 499 628 491 628 q 485 628 480 633 q 475 638 473 638 q 470 638 459 633 l 456 632 l 446 632 q 443 632 428 621 l 406 608 q 405 607 392 598 q 378 589 372 586 q 365 584 359 573 q 344 567 337 560 l 330 556 q 326 543 314 543 q 311 543 306 526 q 284 507 282 507 q 280 507 276 510 l 274 510 q 269 510 269 499 q 265 490 248 479 l 246 475 q 242 467 236 463 l 221 442 q 199 416 187 403 q 174 390 174 372 q 174 369 178 369 q 193 369 198 376 q 204 384 213 388 q 221 392 222 394 l 225 399 q 235 400 243 406 q 250 413 261 419 q 271 426 281 435 q 291 444 300 449 q 309 455 314 457 q 320 460 321 466 q 321 472 330 472 q 334 472 338 477 q 342 482 347 485 l 350 490 l 359 495 l 365 502 q 370 510 375 511 q 380 512 383 518 q 393 524 405 538 q 405 542 411 544 q 417 545 421 551 l 428 561 l 429 561 q 430 561 434 560 l 436 560 q 447 560 453 578 q 453 579 457 580 q 461 581 463 584 l 469 587 q 481 597 488 604 l 493 607 l 513 631 l 534 647 q 545 661 555 665 l 577 681 q 581 683 583 683 q 599 683 610 669 q 621 655 621 634 q 621 623 609 605 l 589 575 q 582 564 562 554 q 557 549 555 532 l 554 529 q 548 526 540 512 q 532 498 528 493 q 523 489 514 475 l 490 448 q 481 438 475 428 l 470 423 q 468 421 468 420 q 468 396 458 391 q 449 385 447 382 l 436 379 q 437 376 438 371 l 418 327 q 410 309 397 295 q 385 282 379 251 q 377 249 370 246 q 363 243 360 229 q 357 216 348 196 q 340 176 337 163 l 331 148 q 324 130 324 124 q 324 124 327 103 q 330 82 335 74 q 340 67 340 65 q 340 62 334 61 l 330 60 q 321 52 316 52 q 288 52 268 71 q 247 89 247 121 l 256 153 q 261 170 261 176 q 261 181 267 187 q 272 192 274 200 l 276 204 q 280 212 280 215 q 280 218 286 226 q 293 234 295 237 q 297 240 301 243 l 304 246 l 304 266 q 313 275 315 284 q 322 297 327 304 q 332 311 333 318 l 333 320 q 349 337 354 345 q 360 354 364 357 q 365 358 365 359 l 365 370 q 365 377 376 377 q 383 384 383 390 q 383 391 381 397 q 386 402 393 405 q 399 407 401 413 q 402 418 407 426 q 428 447 434 462 l 439 469 q 454 480 483 529 q 472 518 459 509 q 447 499 439 490 q 431 480 430 480 l 425 481 q 419 481 410 465 l 404 461 q 400 459 397 452 q 395 446 385 437 l 372 430 q 360 412 335 406 q 326 389 313 389 q 309 385 305 379 q 301 372 296 372 q 295 372 292 373 q 290 374 287 374 q 284 374 275 358 q 267 343 258 343 l 241 344 q 233 344 224 328 q 216 312 205 312 l 196 315 q 193 304 185 304 q 184 304 156 320 q 129 336 123 348 q 122 351 119 356 q 115 362 115 363 q 115 381 119 387 z"}," ":{"x_min":0,"x_max":250,"ha":250,"o":""},"I":{"x_min":0,"x_max":375,"ha":375,"o":"m 286 670 l 289 675 q 292 681 300 681 q 301 681 307 679 q 306 680 306 682 q 306 688 312 688 l 314 688 q 315 688 325 691 l 359 695 q 371 695 389 689 l 396 689 l 409 685 q 418 677 422 676 q 426 675 426 673 q 429 668 438 661 l 452 646 l 454 642 q 458 635 464 627 q 469 619 469 601 l 467 595 q 472 593 472 591 l 469 573 l 469 558 q 469 549 467 542 q 464 535 464 527 q 464 525 457 516 l 457 515 l 459 502 q 459 500 455 496 q 450 491 450 489 q 450 479 445 473 q 444 463 433 448 q 422 432 419 421 q 417 411 406 394 q 402 382 400 376 q 399 371 390 363 q 381 355 381 342 q 378 332 367 327 l 356 317 l 356 311 q 356 301 344 289 l 328 255 q 323 245 315 245 l 313 243 q 312 229 308 225 q 305 220 301 214 q 297 208 293 204 q 290 199 286 189 q 282 179 275 172 l 270 161 l 270 157 q 270 144 261 144 q 260 144 256 145 l 255 145 q 258 135 258 130 q 258 127 244 99 l 242 92 l 242 84 q 235 76 232 70 q 230 64 225 62 q 219 59 219 58 l 221 55 l 221 53 l 218 38 l 220 20 q 220 18 216 10 q 232 -2 232 -15 q 232 -36 215 -40 l 212 -40 l 202 -41 q 185 -41 178 -36 q 171 -31 161 -21 l 155 -17 q 152 -15 150 -10 l 145 -5 q 135 8 135 36 q 135 39 139 43 l 140 46 l 139 55 q 139 58 150 87 l 164 116 q 176 140 180 144 q 182 152 185 162 l 188 164 q 189 171 196 179 q 202 187 205 198 q 212 199 212 201 q 212 202 211 205 l 211 207 q 211 216 218 222 q 225 229 229 238 q 232 247 237 251 q 241 256 245 267 q 249 271 255 272 q 261 274 261 277 q 261 278 257 286 q 270 316 285 333 q 287 336 289 343 q 291 349 297 352 q 302 369 310 379 q 317 390 323 403 q 329 416 338 416 l 340 419 l 339 429 q 339 430 343 438 q 347 447 351 448 q 354 449 359 456 l 355 464 q 357 465 358 469 q 360 472 362 472 q 374 479 374 487 q 374 489 373 493 l 373 495 q 373 498 382 508 q 391 518 391 532 q 392 539 397 545 q 402 551 402 555 q 402 558 405 562 l 403 574 q 412 588 412 600 q 412 601 410 605 q 407 609 407 615 q 407 618 402 623 l 400 628 q 385 633 380 638 q 376 642 356 642 l 347 640 l 340 642 q 337 640 335 640 l 334 640 l 329 641 q 321 641 306 635 q 291 628 286 628 q 271 628 266 619 q 261 611 258 611 l 253 613 l 252 613 q 248 613 245 599 l 244 597 q 225 586 214 575 l 182 542 q 166 525 165 520 q 163 514 155 509 q 147 495 147 489 q 147 476 142 471 q 136 467 136 464 q 136 462 137 460 q 138 458 141 449 l 141 447 q 141 441 137 437 q 134 432 134 431 q 134 430 142 421 q 151 412 151 408 q 151 395 139 384 q 128 373 115 373 q 104 373 97 378 q 91 384 91 411 l 92 424 l 96 438 l 95 453 q 95 455 104 470 q 114 485 116 492 q 125 521 143 536 q 147 539 147 543 q 147 550 153 556 q 153 558 160 564 q 167 570 168 576 q 170 583 177 585 q 184 587 187 598 q 198 612 214 620 q 221 634 231 637 l 244 646 l 247 651 q 250 654 255 656 q 260 658 264 663 q 278 670 282 670 z"}}}
